<?xml version="1.0" encoding="UTF-8"?>
<svg id="Layer_2" data-name="Layer 2" xmlns="http://www.w3.org/2000/svg" viewBox="0 0 282.24 363.65">
  <g id="Layer_1-2" data-name="Layer 1">
    <g>
      <g>
        <path d="M282.24,315.12v.48c-.87,2.57-1.11,3.7-3.79,5.27.25,1.62.29,3.23-.07,4.81s.03,3.04-.07,4.56c-.26,4.22-.49,8.25-.14,12.5.59,7.25.95,14.8-6.39,18.82-4.93,2.69-10.43,2.25-15.95,1.64-1.52-.17-3.03-.28-4.48-.63-3.62-.86-6.07-3.68-6.52-7.38-.29-2.38-.56-4.75-.61-7.17l-.15-6.26c-.11-4.7-.32-9.21-.16-13.92-1.82-1.3-3.06-2.97-3.88-5.12-2.79-.09-5.03-1.68-5.96-4.33-.82-2.31-.48-4.7.56-6.88-1.76-.72-2.91-2.06-3.12-3.6-.44-3.14,3.01-5.44,3.59-4.5.65,1.05.23,2.21-.32,3.17-1.17,2.04,3.46,2.26,4.53,2.59l-2.02,3.57c-1.14,2.02-.81,6.25,2.47,7,1.03.23,2.44.55,2.89,1.63.74,1.79,1.65,3.59,3.62,4.31,3.7,1.35,6.38.04,7.92-3.62,4.45.24,6.91,3.64,12.19,2.71,1.97-.35,3.27-1.75,3.31-3.72.02-.9.4-1.87,1.1-2.39,1.87-1.39,4.92.95,7.2-1.59.61-.68.58-2.13.34-3.04-1.8-6.82.33-9.89-1.91-12.96-.4-.55-1.18-1.03-1.73-1.02-1.74.03-2.28,2.65-5.28,1.9-2.68-.67-2.32-3.32-3.55-4.4-1.23-.2-1.15,1.87-3.3,2.06l-.56,5.28-6.48-4.13c-3.38-2.15-6.74-3.01-9.91-.21-3.81,3.37-4.49,2.85-8.83,5.51-.45-.87-.62-2.01-.13-3,.85-1.73,4.33-2.42,5.49-3.51l2.84-2.68c-3.49-2.56-2.42-1.53-5.29-3-2.19-1.12-1.79-2.74-5.92-2.25-2.66.32-2.38-1.77-6.72-1.69l-5.51.1c-2.15.04-4.06-.17-6.2.24-.08-1.01-.02-2.16.15-3.22l2.26-.18c3.61-.29,5.99.46,9.11.02,1.27-.18,3.81-.26,4.76.35l1.6,1.03c.35.23,1.34.4,1.76.4,2.17,0,3.73.94,5.49,1.97l2.14,1.25,2.23,1.14c1.16.59,2.04,1.63,2.82,2.66,1.99-.24,4-.02,5.81.59,1.08-1.8,2.79-.45,2.22-2.14l-1.2-3.58-5.2-10.37-4.77-8.68-1.29-2.73-1.86-2.58c-2.23-3.09-3.91-6.41-6.7-9.1l-7.81-7.54-3.51-3.71c-.91-.96-2.33-1.45-2.82-2.93-.45-1.35-1.77-2.12-2.49-3.23l-3.9-5.94c-1.68-2.57-3.51-4.67-6.23-6.32-5.76-3.49-11.63-6.67-17.78-9.48-2.08-.95-4.09-1.56-6.06-2.7s-4.25-1.68-6.46-2.43c-3.26-1.12-6.41-1.89-9.82-2.62-5.46-1.16-10.71-2.34-16.31-2.68-.31-.02-.77-.22-.92-.41s-.09-.85.04-1.11c.59-1.17,2-1.43,3.26-1.37,3.32.15,6.43.54,9.6,1.56,2.53.81,5.92.91,8.73,1.81l4.63,1.48,3.94,1.27c1.51.49,3.05.94,4.51,1.54,1.58.65,3.04,1.68,4.67,2.21,3.28,1.07,5.91,2.89,8.87,4.56,4.39,2.48,8.82,4.56,12.99,7.42,2.03,1.39,3.56,3.1,4.9,5.18,4.41,6.83,9.57,12.76,15.4,18.43,8.27,8.05,10.38,11.46,16.13,21.31,2.39,4.1,4.32,8.24,6.48,12.46,2.31,4.49,3.95,8.97,5.39,13.81,1.97-.98-.11-.97,2.77-2.66.83-.49.73-1.62.9-2.47l.84-1.78c3.02-2.07.38-4.33,2.68-6.16,1.81-1.45,2.88-5.68,4.4-7.34l3.78-4.13,1.91,2.47-4.03,4.72c-.29.34-.74,1.05-.98,1.46-.31,1.34-.74,2.86-1.33,4.02-.31.6-1.75,1.04-1.86,1.79-.29,1.89-.9,3.2-1.75,4.79l-1.14,2.13c3.29.89,2.6,4.11,3.89,4.39.35.08.95-.29,1.24-.59,2.17-2.26,5.73-1.84,7.58.67s2.24,5.66,1.77,8.74c1.18,2.92-.05,4.44,1.49,7.43ZM247.38,351.99c.19,4.24,1.91,7.41,6.26,7.83l9.39.9c4.01.38,8.03-1.2,10.48-4.37,1.52-1.97,2.09-4.43,1.92-6.91l-.76-11.27.24-16.52-2.24-.19c-.37,3.27-2.63,5.6-5.85,6.13-2.25.37-4.51.03-6.67-.71l-4.13-1.4-1.25,1.31c-2.08,2.18-4.74,3.11-7.94,2.4-.09,1.82,0,3.41.05,5.14l.19,5.75.03,6.02.27,5.9Z"/>
        <path d="M240.03,289.08c-.31-.59-.38-1.15-.47-1.87-.22-.37-.97-1.14-1.37-1.44-3.43-1.27-1.36-3.21-4.93-2.65-1.85.29-.99-1.42-3.8-1.6-1.19-.08-2.41-.09-3.5-.25l-3.65-.55.45-3.08c2.24.18,4.05.58,6.25.94,1.21.2,2.79-.53,3.91.4.39.32.99,1.33,1.48,1.34,1.68.03,2.83.71,3.85,1.75,2.06,2.1,4.15,1.78,4.04,5.64-.61.44-1.3.87-2.26,1.35Z"/>
        <path d="M261.32,281.17c-.69-.29-1.43-1.09-1.75-1.67.67-1.4,1.07.89,2.84-2.59.23-.46,1.12-.67,1.64-1.02.46-.31.48-1.52.52-2.31l1.75-.82c2.58-3.52,1.32-2.49,5.14-4.91.5.78,1.04,1.81,1.46,2.8-1.26.94-2.86,1.37-3.47,2.67l-1.13,2.4-1.41.23-.77,1.92c-1.11.71-1.79,1.56-2.45,2.69-.31.52-1.65.91-2.36.61Z"/>
        <path d="M251.16,316.22c.51.95.59,1.95.74,2.89l-1.84.51-1.52,1.15-.64-1.02-1.57.04-1.51-2.65c-.23-.41.7-1.45,1.21-1.48.85-.05,1.76.14,2.45.35-.31.28-.52.46-.47.6l.31.85,1.27-.69c.36-.2,1.29-1.06,1.56-.56Z"/>
        <path d="M267.28,315.74c-.71.24-1.28-1.21-1.14-1.75l.59-2.26.3.8,1.18-.24-.6-2.15,2.95-.86.3,2.36c.05.4.57,1.39.19,1.52-.84.3-1.06.55-1.12,1.53-.72.32-1.77.76-2.65,1.06Z"/>
        <path d="M249,307.11l-3.05.62c-.05-.74.01-1.3-.08-1.92l-.27-1.88,1.08-.23c.23-.05.26-.72.37-1.06l2.77-.74c1.67,1.09.33,2.64-.07,3.87-.18-.31-.28-.61-.41-.6l-.78.09c-.02.53.15,1.21.43,1.86Z"/>
      </g>
      <g>
        <path d="M73.68,0c1.1.6,2.2,1.22,2.86,2.39l3.72,6.58c6.23,11.03,10.77,19.08,20.13,28.14,2.29,2.22,6.21,7.48,4.76,10.86,3.77,1.99,7.07,4.76,8.75,8.71,1.12,2.64.38,5.43-.78,7.99,2.94-.79,5.29-2.3,7.6-3.87,1.02-.69,2.35-.71,3.54-.22,2.13.88,3,4.33,1.12,7.24l-3.77,5.84c-1.81,2.8-3.92,5.28-6.03,7.85l3.93,2.53c1.06.68,2.4,2.59,3.21,3.71,1.32,1.83,1.68,4.37,1.92,6.61.21,1.9-.55,3.53-1.51,5.07-.52.84-1.24,1.43-1.91,2.1-.49.49-.61,1.3-1.57,1.35-.61.03-1.25.65-1.75.85-1.54.63-2.92,1.21-4.23,2.3-2.4,1.98-4.89,3.56-7.57,4.74,1.62.76.14,1.46-.59,3.68l-.8,2.43-1.24,1.47c-2.21.27-2.6,1.9-4.17,3.21l.59,2.97c6.07.42,11.23,5.98,9.47,12.02,9.2,1.48,17.6,5.69,23.71,12.59,6.75,7.63,9.61,17.96,8.4,27.94-4.22-.52-6.45-.09-9.61,2.6l-6.71,5.72c-2.77,2.36-5.95,3.8-9.46,4.37.12.81.42,1.25.87,1.84.37.49,2.93,5.19,3.26,6.04,2.1,2.78.45,1.52,3.38,4.58,1.16,1.21,2.17,2.7,3.06,4l.4,1.53c.29,1.1.64,2.11,1.44,2.94,1.94,2,2.9,4.42,4.36,6.76l.87,1.41c.58.94.94,1.74,1.56,2.62,2.51,3.57,2.39,3.89,3.51,8.2l-.6.79,1.24.46c-.07.64-.04,1.27.21,1.76l.79,1.59-2.96-.64c-.17.11-.48.44-.58.33s-.38-.73-.58-.78l-8.08-1.94-6.54-1.22-2.16-.57h-2.52c-2.98.02-5.84-.71-8.88-.57l-6.97.31-3.56.1c-.93.03-1.92.63-2.93.1-.89-.47-1.97-.03-2.86-.11-2.59-.25-4.9-.19-7.5.31l-17.95,3.45-5.02,1.25c-1.56.39-3.1.96-4.61,1.5l-7.08,2.55-8.57,2.68c2.32,4.16,5.75,7.19,9.65,9.78,5.45,3.62,11.25,5.98,17.63,7.36,4.5.98,8.81,1.75,13.41,1.36,2.34-.2,4.57-.28,6.97-1.13.33,1.47-.24,3.43-1.83,3.72l-2.73.48c1.56,2.37,3.61,4.13,5.9,5.76l6.73,4.79c1.93,1.38,3.44,3.08,4.9,5.09,13.34-3.6,24.63-8.88,35.7-17.09,3.05-2.26,6-4.38,8.79-6.86l-7.75-11.98-4.43-6.49c1.04-.32,2.18-.19,3.08-.02l-.08-1.69c1.28.47,2.57,1.07,3.49.42l1.35-4.93,1.12-4.24c.12-.46.13-.96.19-1.36,1-6.07.17-4.68.17-10.63,0-.5-.25-1.43-.17-1.87l.45-2.42c.26-1.41.42-2.69.03-4.12-.87-3.25-.79-6.54-1.58-9.78l-.45-1.83c-.32-1.33-.46-2.46-.9-3.73-1.65-4.76-1.93-5.8-2.59-11.02.47-.74,2.13-1,2.63-.43,1.29,1.48.66,3.43,1.13,5.05l1.23,4.25c.38,1.32,1.04,2.53,1.33,3.88l.63,2.99c.61,2.88-1.05,2.37,1.64,10.14.51,1.47.63,2.93.36,4.44-.94,5.41.08,10.83-1.29,18.2-.67,3.59-2.03,6.93-3.13,10.43-1.09.36-1.99.39-3.26.36l2.51,4.17c.58.97,1,1.83,1.69,2.72,2.47,3.18,4.51,6.51,6.69,10.05l-4.2,3.71c-2.17,1.92-4.46,3.67-6.78,5.29l1.85,1.83c1.25,1.24,2.49,2.26,3.61,3.67s2.4,2.69,3.19,4.35c.19.39.63.69.87,1.07l2.9,4.6c2.45,3.88,1.52,1.46,3.7,6.75.63,1.54.4-.96.81,3.82.13,1.54.15,3.12.66,4.61,1.32,3.9,1.35,7.71.72,11.72l-.74,4.76c-.45,2.87-.97,5.59-2.11,8.25l.9,7.98,1.72-.76c.14-.06.34-.23.37-.14l.23.55c.07.18.51.45.73.47,3.88.32,10.14,1.49,13.35,3.48,2.13,1.32,3.82,3.24,5.19,5.28,3.32,4.95,2.41,11.05-1.93,15.06-2.85,2.63-6.31,4.16-10.08,5.28-.8.24-1.91.58-2.55.12-.37-1.26.6-2.48,1.75-2.94,3.3-1.33,6.49-2.86,9.19-5.17,4.55-3.89,2.31-10.8-1.82-14.1-2.86-2.29-5.17-2.81-8.99-3.25-2.26-.26-4.6-.99-6.87-.45-2.14.51-4.53,1.63-6.59,1.79-2.04,1.01-1.85.1-4.38,1.27-1.45.67-5.35,1.81-6.25,1.65l-1.55-.28c-.99-.18-2.09-.38-3.09-.07-4.18,1.31-7.08.22-11.1.22h-3.13c-1.36,0-2.43-.17-3.9-.5-.45,1.68-.79,3.51-.96,5.3l-.9,9.36c-.2,2.12-.24,4.15-.1,6.26.07,1.01.71,1.78,1.7,2.02,2.36.59,4.79.77,7.28.68l7.21-.29c10.48-.42,20.46-.61,30.85-4.41.17-.06.52-.11.66-.11.27,0,.51,3.71-4.17,4.55l-4.52.81c-2.98.54-5.75,1.43-8.78,1.66l-10.46.78c-3.24.24-8.3-.25-10.59.03-2.88.35-5.93-.22-8.65-1.09-1.86-.59-3.04-2.04-3.33-3.92-.45-2.93-.5-5.87-.22-8.86l.62-6.54c.14-1.51.07-3.09.54-4.52.37-1.12.63-2.17.58-3.35-.12-2.71,1.95-2.24,1.9-4.52l-.11-5.23-.02-.47c-.01-.38,1.1.24,1.98.04.36-.08.69-.81.83-1.23.35-1.09.87-1.96,1.28-3.06l1.41-3.76.14-1.39c.11-1.1.55-2.07.45-3.17l-.49-5.63c-.17-1.94-.24.41.24-2.54.19-1.17.36-2.26-.13-3.44-1.35-3.27-2.47-8.85-3.34-10.35l-3.01-5.17-2.02-4.58-11.82,3.56-2.19-3.6c-.45-.74-1.32-1.06-2.08-1.53-1.22-.76-2.29-1.81-3.33-2.83-.97-.95-2.11-1.42-3.25-2.1-2.11-1.28-3.67-3.1-5.63-4.88-.09.6,0,1.32.23,1.89,1.84,4.42,2.08,9.88-2.97,11.97-1.51.63-3.18,1.04-4.8,1.49.63,1.18.97,2.34,1.23,3.7l.72,3.64c.04.19-.14.68-.08.8,1,2-.04,1.76.88,4.52.67,2.01.85,3.95.97,5.98.08,1.4.36-.4-.56,2.58-1.74,5.66.81,4-2.31,11.99l-1.19,3.04-1.28,3.36c-.49,1.29-1.2,2.41-2.13,3.42l-.51.55c-.1.11.22.32.41.49l.76,6.23c.12.98.76,1.92.73,3.11.6.36,1.75.22,2.54.3,2.44.25,4.74.48,7.2.48,3.72,0,7.24,1.17,9.8,3.79,2.75,2.81,2.94,6.96.34,9.93-3.28,3.74-10.93,5.84-15.81,7.51-2.64.9-5.15,1.55-7.88,2.15l-7.84,1.72c-3.23.71-6.45.82-9.77,1.07-4.84.37-9.63-.13-14.38-1.07-2.6-.52-4.87-1.59-7.02-3.06-.35-.24-.57-1.22-.24-1.45,2.04-1.4,3.99.56,7.22,1.18l6.28,1.2c1.85.36,3.65.31,5.51.2l4.75-.28c2.92-.17,6.95-.46,9.71-1.21l5.05-1.38c2.02-.55,4.05-.78,6.04-1.51,3.21-1.18,6.36-2.06,9.62-3.04,2.33-.7,4.45-1.84,6.15-3.42,2.03-1.88,2.13-4.69.04-6.51-1.81-1.57-4.13-2.42-6.6-2.49l-7.93-.22c-2.17-.06-4.25-.75-6.19-1.46l-.32-1.83-2.44.97c-3.01,1.2-4.28,1.26-6.84,2.01-1.13.33-2.39.43-3.47.94-1.7.79-3.38,1.23-5.2,1.56-1.32.24.73.5-2.75-.11-4.55-.8-3.91,1.32-10.97.3-.46-.07-3.96-.17-4.65-.18l-4.5-.09c-.68,2.99-.61,6.1.39,9.04,1.16,3.41,3.43,3.84,2.63,4.42-1.31.97-3.02.83-4.08-.42-1.36-1.59-1.82-3.76-2.1-5.85-.38-2.8-.79-5.56.14-8.33-.54-.23-1.04-.43-1.26-.63s-.12-1.01,0-1.3l.41-1.02c.33-.81,1.39.69,2.28-.93,1.62-2.96,3.21-5.15,6.32-6.55l.44-3.55c.02-.16-.02-.64.11-.61l.8.17c.34.07.74.15.96.18s.56-.5.66-.73c.42-1.03,1.03-2.06,1.62-3.1l2.14-3.72.56-1.28c.4-.93.95-1.73,1.15-2.7.38-1.84.86-3.53,1.38-5.31.47-1.62-.37.21,1.35-2.39.56-.85,1.1-1.74,1.16-2.83.22-4.3,1.84-8.56,1.81-10.6l-.08-5.46.54-4.83c-2.22-.34-4.17-.41-6.23-.86-1.61-.35-10.55-2.84-11.13-3.35-.07-.06,0-.38.05-.48,4.28-9.78,7.09-16.48,8.94-27.12.04-.26.36-.69.57-.78,1-.45,2.23,1.74,2,3.34-.92,6.25-1.52,8.54-4,14.25-.64,1.47-1.03,2.95-1.61,4.43l-1.74,4.4c1.76,1.12,3.67,1.43,5.63,1.94,1.67.44,3.28.87,5.05,1.01l6.23.49c2.6.2,5.07.51,7.7.37l10.53-.58c3.14-.17,6.14-1.12,9.06-2.15,1.87-.66,2.89-2.47,2.65-4.43-.47-3.75-2.96-6.51-2.02-11.26-4.57-.04-9.79-.69-14.06-1.89-.83-.23-1.61-.63-2.41-.91-.68-.24-1.72-.22-2.42-.55l-10.46-4.87c-2.01-.94-3.68-2.37-5.51-3.63-1.09-.75-1.89-1.78-2.83-2.63s-2-1.09-2.41-2.51c-.27-.95-1.1-1.72-1.75-2.53-2.37-3-.8-1.92-2.24-4.22-4.69-7.52-7.13-12.98-7.19-22.15-.01-1.59-.33-3.25-.16-4.82l.85-8.16c.25-2.37,1.05-4.74,1.71-7.05.99-3.46,3.05-6.39,5.03-9.29-1.2-.45-4.58-7.29-4.81-7.98-1.43-4.26-2.13-3.21-3.26-8.09-.18-.76-.19-1.27-.04-2.1l.33-1.9c.75-4.33-1.58-2.18,1.28-10.74l.59-1.77c.36-1.06.85-1.87,1.27-2.92,1.46-3.68,2.89-5.17,6.36-7.19.8.23,1.68,1.4,1.59,2.14-.55,1.23-1.88,1.7-2.98,2.47-.4.29-.78,1.33-1.1,1.74-1,1.29-1.55,2.57-1.78,4.17-1.33,2.58-.32,1.19-1.99,4.25-.91,1.66-.53,3.71-.06,5.46,1.21,4.51-2.79,3.71,4.05,15.87l2.06,3.67c.74,1.32,1.38-1.53,2.5-.54s.85,2.36.08,3.43l-1.5,2.08-2.44,3.31c-.78,1.06-1.3,2.11-1.7,3.37l-1.06,3.35c-.68,2.15-1.45,4.56-1.5,6.89l-.07,3.33c-.03,1.24-.32,2.57-.28,3.88l.19,7.71c.08,3.07,1.22,6.18,2.58,8.9s3.23,5.22,4.87,7.83c1.72-.78,3.34-1.22,5.16-1.49,2.29-.35,3.57-1.37,6.38-2.24l3.3-1.02,3.03-1.05c.95-.33,1.95-.9,2.89-1.17,1.5-.43,3.08-.55,4.54-1.08,2.03-.73,4.02-.64,6.14-.88,5.75-.65,12.81-3.15,16.1-3.45s6.68.08,10.07.04l9.85-.12c5.87-.07,11.61.41,17.39,1.36,3.63.59,6.98,1.63,10.53,2.41l.5.11c.09.02.09-.27.07-.38l-.46-2.47c-.1-.54-.91-1.36-1.12-1.88-.59-1.48-1.47-2.46-2.41-3.7-.39-.51-.74-1.36-1.15-2-1.14-1.76.17-2.94-4.29-6.73-.86-.73-1.52-1.66-1.82-2.73-1.14-4.08-5.39-8.29-7.41-12l-4.51-8.26c-5.56-1.9-7.22-5.86-8.35-11.52l-1.21-6.04c-.36-1.82-1.39-3.26-2.71-4.75.98-.81,2.36-.75,3.28-.12,1.55,1.05,2.17,2.67,2.57,4.43,1.25,5.53.21,5.83,2.8,11.04,1.7,3.41,5.28,4.8,8.92,3.65,2.28-.72,4.29-2.05,6.16-3.63l7.02-5.94c.88-.74,2.18-.89,3.12-1.44,1.65-.95,3.12-1.87,5.22-1.42.42-5.45-.56-10.57-3.12-15.32-2.38-4.4-5.47-8.41-9.55-11.37-2.05-1.49-4.12-3.24-6.48-3.99l-4.82-1.53c-1.36-.43-2.85-1.34-4.29-1.42-2.4-.13-4.59-.04-6.9-.56l2.53-3.64c.58-.83.42-2.39.09-3.35-.92-2.67-3.15-4.43-5.9-4.81l-.21,3.72-3.83-.03c-.07,0-.32.03-.49.04l-.37.04.1-2.03c.03-.59.41-1.25.86-1.19.54.07.66.1.75-.05,1.02-1.67-5.85-.06-6.84.08l-26.91,4.02c-1.21.18-9.2,1.68-9.38,2.02-.08.15-.07.47-.03.75l1.61,12.12.03.39.04.37c.01.12-.27-.34-.34-.49l-5.13-11.37c-2.88,1.6-5.76,8.75-6.6,11.73-3.02,10.82-4.51,21.53-3.14,32.79.06.47-.28,1.47-.74,1.35-1.35-.34-2.18-1.75-2.4-3.08-.36-2.19-.5-4.34-.62-6.59-.18-3.62.45-7.15.99-10.74l.88-5.88c.35-2.3.74-4.7,1.52-6.86l2.56-7.1c.43-1.19,1.32-2.36,1.91-3.51,1.04-2.02,2.44-3.51,4.29-4.88l-1.44-5.84,1.6-.43c.25-.07.91-1.92,0-3.25s-1.12-2.64-1.43-4.17c-.61-2.99-1.55-3.06-2.26-5.88l-2.7,1.39c-.92.47-2.16.56-3.12.83l-1.25.35c-.6.17-6.92.17-9.59-2.04-.42-.35-1.29-.87-1.56-1.25-.36-.49-.86-1.69-1.01-2.3l-.92-3.64c-1.5-5.92,1.38-9.52,6.6-11.97,2.33-1.09,4.14-1.85,6.94-1.89h.58c.13-.01-.05-.24-.16-.44l-1.59-3.46-2.15-5.24-4.65-9-4.69-9.3-8.12-13.91c-.77-1.32-1.4-2.37-1.92-3.87-.1-.29-2.78-2.75-3.93-6.04-2.82-8.08-6.87-8.6-11.98-14.49v-.72c1.64-.76,3.68-.62,5.54,0l9.79,3.29c.46-1.92.8-3.41,1.45-5.01,1.57-3.87-.21-3.04,2.72-8.99.86-1.75,1.49-3.35,2.08-5.25,1.23-2.32,4.67-3.18,6.83-1.4l9.6,7.88,4.29-12.82c1.18-3.54,5.45-4.74,8.57-2.84,4.51,2.41,8.32,5.66,11.51,9.74,1.83-3.18,3.71-6.12,5.77-9.09.82-1.18,1.87-1.87,3.12-2.39h2.4ZM113.86,101.91c3.06-1.73,7.85-3.11,7.78-8.29-.03-2.41-1.33-4.3-2.97-5.88s-3.39-2.95-5.59-3.69c-1.59,1.29-3.03,2.54-4.67,3.68-2.82,1.96-6.74,1.69-8.82-1.42,2.92-.84,3.13-.9,5.77-.32l4.26-3.16-1.65-.56c.36-.69.72-1.32,1.16-1.93.51-.71,1.48-.79,2.2-.37,1.46.83,2.89-1.64,2.93-1.69,1.72-1.77,3.16-3.39,4.26-5.62,1.22-2.46,2.28-3.66,3.49-6.2.31-.65,1.31-.72.89-2.77-.04-.19-.8-.18-1-.04-3.03,2.05-6.91,3.41-10.39,4.62-1.28.44-2.26,1.01-3.54,1.36-.94.25-1.82.91-2.71,1.29l-4.41,1.9c-2.56,1.1-5.5,1.43-8.18,1.94-.68-.62-.97-2.19-.26-2.7,1.62-1.18,3.65-1.07,5.57-1.43.99-.19,2.03-.96,3.01-1.25,2.19-.65,4.23-1.68,6.06-2.8.48-.3,1.86-.32,1.97-.81-.07-2.8,1.06-1.91,1.36-2.66,1.01-2.56,1.23-3.64.03-6.56-.13-.32-.65-.88-.84-1.24-.42-.76-1.03-1.59-1.78-2l-4.39-2.39c-.49-.27-.83-.5-1.27-.83l-1.57-1.19c-.47-.36-1.68-.45-2.39-.41l-6.47.34c-2.34.96-1.9.16-3.75,1.43l-2.69,1.86-4.17,2.53c-.71.03-1.95-1.13-1.8-1.79.34-1.56,1.98-1.96,3.25-2.5l1.84-1.41,4.09-2.47,2.03-.6c.95-.28,1.85-.08,2.87-.02,4.48.25,5.95-1.45,9.42.32-1.16-3.11-3.17-5.31-5.41-7.46-2.76-2.64-4.96-5.55-7.25-8.56l-3.33-4.37c-1.6-2.1-3.09-4.31-4.36-6.6l-3.94-7.14-2.07-3.94-2.4-4.13c-.24-.42-.8-.92-1.19-.96-.43-.05-1.25.25-1.52.61-1.68,2.24-3.11,4.39-4.6,6.75l-4.23,6.71c-4.29-6.04-6.87-10.03-13.65-13.17-1.47-.68-3.34.19-3.87,1.69-.98,2.76-1.78,5.4-2.66,8.18l-2.94,9.29c-2.54-2.29-4.85-4.28-7.38-6.34l-5.27-4.3c-.9-.52-1.89-.22-2.29.76-2.8,6.81-4.8,13.65-6.65,20.85-3.63-.41-6.23-1.91-9.75-2.53,4.56,3.6,4.76,5.32,6.96,9.66,1.35,2.66,3.04,5.03,4.66,7.55,3.04,4.74,5.76,9.39,8.4,14.39,3.86,7.3,7.51,14.46,10.92,21.97,1.38,3.05,2.57,5.97,4.14,8.85.29.52.55,1,.79,1.56l1.84,4.21-6.93-3.41c-3.63.96-3.27-.06-6.41,2.1-.58.4-1.29.79-1.88,1.24l-1.91,1.45c-1.59,1.21-1.39,3.6-.57,5.21,1.51,2.96.65,5.25,4.72,6.63,2.44.82,4.66.69,7.06-.11,2.56-.85,4.99-2.16,6.36-4.59,1.95,1.19,2.35,2.99,2.03,5.08l1.14,2.67c.33.77.78,1.37,1.02,2.15.65,2.1-.87,2.33,1.65,5.26,1.61,1.87-.12,2.55.92,6.01l.51,1.7c5.49-1.11,10.64-2.19,16.13-2.63,3.14-.25,6.09-.43,9.17-.98l10.63-1.88,7.58-1.28c-.47-1.01-.88-2.07-1.02-3.07l-.21-1.44c.19-.52.4-1.07.38-1.83,1.72.61,3.03-.16,4.21-1.31.71-.69,1.84-1.1,2.08-2.19.21-.96.56-1.75,1.04-2.73-1.12.54-2.12,1.09-3.23,1.4-1.22.34-2.23.97-3.37,1.45-5.34,2.23-6.97,2.57-12.93,2.72-.56-.71-.61-2.32.16-2.71,1.76-.9,3.72-.51,5.64-.73.91-.1,2-.78,2.9-.98,2.2-.5,3.88-1.64,5.97-2.49l2.77-1.13c1.22-.5,2.38-.79,3.66-1.19,4.16-1.31,6.73-4.99,8.83-6.18ZM118.53,325.48c4.54-1.52,8.51-2.81,12.86-3.77,6.24-1.29,12.43-1.79,18.8-1.85.5-.41,1.26-1.14,1.43-1.65l1.01-3.13c.62-1.92.68-3.71,1-5.67l.44-2.67c.82-5.04,1.63-6-.53-11.42-1.84-4.61.18-5.47-3.43-12.21-1.72-3.22-3.7-6.03-5.94-8.89-2.39-3.05-4.64-6.03-7.86-8.31l-2.39.89c-.86,1.01-1.67,1.74-2.85,2.32l-16.83,8.34c1.09,1.05,1.04,2.55,1.68,3.7l1.79,3.18c.58,1.03,1.16,1.95,1.87,2.93.15.39.36,1.19.55,1.58,1.65,3.45-.84,1.7,2.83,9.19.61,1.25.75,2.46.56,3.8-.76,5.28.49,8.74-1.25,15.34-.78,2.97-2.45,5.48-3.7,8.32ZM42.3,329.34l4.75.16c3.57.12,6.99-.68,10.52-1.19l9.48-1.37c.07-1,.77-2.02,1.69-2.58,1.19-.72,1.61-1.69,2.24-2.87.77-1.42,1.43-2.72,1.59-4.41,1.44-2.87.18-1.22,2.02-4.39.98-1.69.81-3.81.49-5.68-.62-3.61,1.53-3.71.66-9.7-.38-2.61-.89-5.07-1.45-7.65-.47-2.19-.8-4.34-1.53-6.47-3.98.72-7.65.93-11.58,1.14-3.38.18-6.71.24-10.05-.31.01,1.39-.25,2.53-.6,3.85.39,3.11-.25,3.46.19,6.87l-.27,1.9c-.49,3.42-1.75,1.56-1.59,8.64.03,1.19-.3,2.31-.93,3.27-2.31,3.51-3.67,9.97-5.65,13.39l-4.23,7.3,2.53.5c.39-.07,1.3-.42,1.73-.4ZM136.54,331.66c4.87.88,10.96-2.25,15.7-3.28l-.35-5.01-1.4,1.48c-1.18-.16-1.87-1.04-2.08-2.2-3.2.24-6.34.29-9.57.78-5.86.9-11.44,2.52-16.98,4.56-2.11.78-3.78,2.2-4.91,4.03,3.13,0,3.37.71,6.42.07,3.15.52,1.2-.27,4.6.68s5.32-1.7,8.56-1.11ZM45.32,338.81c3.24-1.26,3.93.82,9.27-.77l6.96-2.08c2.68-.8,5.22-1.34,7.69-2.74l-.45-3.14-17.44,2.01c-3,.35-5.84.49-8.87.43-2.12-.04-4.24.03-6.28.55l-2.9,6.06c7.15-.88,5.87,2.07,12.03-.33ZM32.44,339.13l.43-4.37c-1.56,1.2-2.39,2.55-3.06,4.06l2.63.31Z"/>
        <path d="M45.23,104.94c-4.32.57-1.9-.25-4.8,1.82l-1.11-.77c-.28,1.31-1.68.73-2.31,1.18-1.04.75-1.33,2.48-2.98,2.72.83-2.94-1.8-1.7-.5-4.04l-1.13-1.51c-.18-.24.56-.93.72-1.21,1-1.82-.16-3.05,4.1-4.27l.47,3.09-1.64.98c-.08.05-.18.61-.11.66l.36.24c.49.01.94.15,1.55.44.32-.19.81-.82,1.25-1.46l1.28.36c.75-.27,1.82-1.13,2.6-1.19l2.21-.15.04,3.11Z"/>
        <g>
          <path d="M53.9,77.34c.06-.81,1.45-.72,1.91-.56.69.25,1.05.78,1.46,1.54,1.01,1.9,2.13,3.92,3.76,5.38,1.31,1.17,3.3,1.45,4.88,2.05,2.75,1.03,5.48.54,8.28.03,1.1-.2,2.3-.2,3.38-.5l5.69-1.57c2.55-.71,4.59-3.35,5.01-5.91.35-2.13-.34-4.08-.94-6s-1.12-3.6-2.1-5.34c-2.23-3.97-6.18-6.96-10.8-7.36-3.77-.33-6.99,1.43-9.93,3.47-3.24,2.25-5.89,4.97-7.02,8.79-.44,1.5-.56,2.93-.03,4.59-1.1.44-2.88.21-3.38-1.13s.14-2.82.47-4.09c.47-1.8.89-3.5,2.08-4.99,2.39-2.99,4.51-5.42,8.04-7.02.65-.3,1.13-.6,1.73-.92,2.89-1.52,6.43-1.73,9.67-1.59,2.55.11,4.67,1.26,6.7,2.6,3.48,2.3,1.28,1.5,3.76,3.27.72.51,1.54.8,2.23.5-.26-.36-.52-.95-.33-1.13l.96-.89,1.59-1.54c.42-.41,1.06-.75,1.55-.79.81-.06,1.15.36,1.8.84,1.25.92,3.84,1.24,3.04,3.24-.45,1.11-.89,2.27-1.54,3.27-1.15,1.76-4.44,2.68-6.47.82.67,3.8,2.1,6.02,2.03,9.9s-2.17,7.28-5.54,9.3c-1.95,1.17-4.09,1.72-6.28,2.36-1.7.5-3.31.79-5.1.93l-4.86.38c-2.2.17-4.46-.41-6.59-1.15-4.67-1.61-8.33-5.82-9.11-10.8Z"/>
          <path d="M66.89,77.64c-2.21-.53-3.34-2.48-3.86-4.52l1.77-.25-.91-.44c.09-.7.64-1.17,1.14-1.64l1.5-1.42c.53-.5,1.05-.86,1.6-.86.74,0,1.28.47,1.87.89,1.22.86,3.73,1.24,3.01,3.1-.47,1.21-.91,2.37-1.63,3.47-.84,1.26-2.88,2.05-4.49,1.66Z"/>
        </g>
      </g>
    </g>
  </g>
</svg>