<?xml version="1.0" encoding="UTF-8"?>
<svg id="Layer_2" data-name="Layer 2" xmlns="http://www.w3.org/2000/svg" viewBox="0 0 89.08 92.14">
  <defs>
    <style>
      .cls-1 {
        fill: red;
      }
    </style>
  </defs>
  <g id="Layer_1-2" data-name="Layer 1">
    <g>
      <path class="cls-1" d="M72.45,44.58c-.11-.31-.24-.61-.31-.93-.07-.29-.11-.57-.31-.8-.05-.06-.06-.14-.09-.21-.06-.13-.11-.26-.16-.39-.03-.06-.1-.11-.1-.17-.02-.31-.08-.59-.25-.85.06-.25-.08-.45-.15-.68-.08-.22-.08-.46-.19-.69-.03-.06-.04-.13-.03-.2.04-.2.04-.37.06-.63v-.36s.03-.39.03-.39v-.21s.04,0,.05-.01h.05s.1.02.1.02c.14.02.27.04.41.07.14.03.27.06.4.1.07.02.12.04.16.05l.14.06c.2.09.42.11.63.14.25.04.51.04.77.07.37.04.74.06,1.12.03.5-.04,1.01-.05,1.51-.04.25,0,.51.08.76.13.5.11,1,.24,1.5.33.38.07.76.12,1.14.15.36.04.72.04,1.08.07l3.18.29.4.03.76.08c.24.04.47.09.7.15l.08.02s0,.05,0,.08l-.03.17-.07.33-.07.33c-.03.11-.06.22-.09.33-.03.11-.06.22-.1.33l-.1.24c-.06.12-.11.24-.17.36-.33.68-.74,1.28-1.19,1.84-.26.32-.53.6-.74.95-.06.1-.13.08-.21-.05-.13-.22-.29-.44-.27-.67,0-.16.03-.3.15-.39.19-.13.24-.39.49-.47.04-.01.06-.05.07-.09.26-.62.68-1.11.96-1.69.04-.09.08-.21.1-.28.02-.07.03-.15.05-.21l.06-.28v-.05s-.01-.01-.02-.02l-.1-.02c-.07-.01-.14-.03-.21-.03-.12,0-.19.03-.33-.14-.02-.03-.11-.04-.14,0-.13.12-.25.09-.38.06-.34-.06-.68-.13-1.02-.18-.25-.03-.51-.05-.76-.05-.4,0-.8.02-1.19,0-.33,0-.66-.05-.99-.07-.08,0-.16.01-.23,0-.14-.01-.29,0-.41-.07-.14-.07-.25-.1-.4,0-.08.06-.2.03-.3,0-.12-.03-.24-.1-.36-.16-.14-.07-.27-.15-.44-.08-.09.04-.2,0-.3-.06-.4-.2-.83-.25-1.27-.27-.59-.03-1.18-.04-1.77-.06-.23,0-.46-.04-.69-.06-.36-.04-.71-.09-1.07-.15l-.27-.05-.13-.02s-.03,0-.03,0h0s-.05-.03-.09-.05c-.04-.03-.05,0-.02.05.06.11.03.05,0,.44-.03.35.07.7.19,1.04.03.08.08.15.09.23.07.57.38,1.08.58,1.61.17.44.32.89.5,1.34.14.34.28.69.44,1.04.01.02.03.04.04.06.09.2-.02.36-.3.42-.25.06-.45.01-.55-.16-.11-.19-.22-.39-.32-.59l-.03.02Z"/>
      <path class="cls-1" d="M77.9,51.7c-.1.27-.18.55-.3.81-.11.23-.22.48-.17.72.01.05-.01.1-.02.16-.01.09-.03.19-.03.28,0,0,0,.01,0,.01.05,0,.12-.01.13,0,.1.11.32.21.61.22.15.18.37.18.58.23.05.01.1.03.15.05l.18.07c.13.05.26.1.42.14.09.02.18.06.22.1.13.12.26.22.41.32.18.13.33.25.45.37.06.06.11.11.15.17,0,.02,0,.05-.01.07-.01.02-.03.02-.04.03-.03.02-.06.04-.1.06-.15.07-.33.15-.6.18-.27.03-.49.08-.71.13-.13.03-.26.06-.39.09-.13.03-.28.06-.38.08-.33.06-.66.12-1,.21-.45.13-.92.2-1.4.21-.24,0-.48-.06-.72-.13-.47-.12-.92-.3-1.36-.48l-1-.38-.33-.14-.36-.16c-.24-.11-.48-.23-.7-.36l-.18-.11c-.28-.19-.38-.38-.45-.54,0-.02-.02-.04-.02-.06,0-.02-.02-.03-.01-.08,0-.04.01-.06.02-.07,0-.02.02-.03.03-.05.03-.07.09-.15.15-.22.11-.17.48-.29.84-.4.36-.11.78-.21,1.2-.29l.11-.02.09-.02.18-.04c.12-.03.24-.05.36-.07.12-.02.24-.03.37-.03h.05s.03,0,.03,0h0s.02,0,.02,0h.02s.02,0,.02,0l.26-1.74c.05-.34.12-.68.09-1.03,0-.1.06-.12.2-.06.24.1.49.18.61.37.08.12.15.24.09.37-.08.19,0,.42-.17.59-.02.02-.02.07-.02.1.04.31.02.6-.03.9-.02.15-.05.29-.08.44l-.05.23-.05.28c-.03.16-.04.34-.06.51h-.25s-.5.02-.5.02h-.29c-.09,0-.18,0-.27.02-.13.02-.26.08-.4-.05-.03-.03-.1,0-.12.03-.08.15-.13.14-.21.15-.2.02-.43.05-.64.1-.15.04-.26.09-.3.16,0,.02.04.05.07.06l.1.04c.06.03.13.05.19.07.12.04.23.07.32.1l.11.03c.16.04.22.06.34.09.06.02.13.02.19.04.11.04.24.06.33.14.1.09.19.14.33.06.08-.04.18,0,.25.03.1.04.18.12.27.19.1.09.21.17.36.12.08-.03.17.02.25.07.32.22.7.26,1.07.24.5-.02,1-.1,1.49-.2l.58-.1s.05-.02.1-.02c.04,0,.13,0,.22-.01,0-.01.01-.02-.06-.04-.09-.01-.12-.02-.13-.03,0,0,0-.02,0-.04,0-.03-.03-.05-.06-.05h-.03s-.12-.04-.12-.04c-.08-.02-.16-.04-.24-.06-.07-.02-.16-.02-.22-.05-.07-.04-.15-.08-.23-.11-.08-.03-.13-.05-.32-.11-.32-.09-.66-.18-1.02-.27.04-.37.09-.76.15-1.14.02-.13.03-.16.04-.22l.04-.16.08-.33.18-.65c.09-.33.21-.66.31-1,0-.02,0-.05,0-.07.07-.19.25-.22.5-.09.22.11.34.26.31.44-.03.19-.08.38-.12.57h.04Z"/>
      <g>
        <path class="cls-1" d="M85.04,40.07s.04.1-.02.12c-.64.22-3.69,1.18-7.11.69s-6.08-2.26-6.63-2.66c-.05-.03-.04-.1.02-.12.64-.22,3.69-1.18,7.11-.69,3.42.49,6.08,2.26,6.63,2.66Z"/>
        <path class="cls-1" d="M84.06,40.92c-.37.03-.73.07-1.09.05-.33-.02-.64-.05-.95.08-.08.03-.17.02-.26.03l-.47.06c-.07,0-.14.07-.21.05-.33-.06-.66-.06-.98.03-.26-.11-.51-.03-.77,0-.26.03-.52-.02-.78.05-.07.02-.15.02-.22,0-.41-.14-.82-.17-1.24-.23-.45-.07-.88-.2-1.28-.44-.21-.12-.45-.19-.68-.27-.27-.09-.55-.17-.83-.27-.39-.15-.79-.29-1.2-.4-.13-.03-.26-.07-.39-.12l-.19-.06c-.07-.02-.11-.04-.22-.09-.19-.08-.39-.18-.59-.28-.2-.1-.4-.21-.6-.33-.04-.03-.09-.06-.13-.09-.06-.06-.12-.13-.17-.2-.06-.07-.06-.12-.09-.18-.02-.06-.03-.1-.04-.16,0-.03,0-.09.02-.13.02-.03.04-.05.05-.07.08-.08.17-.18.33-.26l.11-.06s.11-.03.16-.05l.33-.09.68-.15.33-.07.22-.04,1.3-.23c.41-.07.81-.16,1.22-.2,1.22-.13,2.47-.11,3.7.06.29.05.6.07.89.14.15.03.29.07.44.11.53.17,1.05.37,1.56.58.73.3,1.44.64,2.13,1.03.39.23.76.47,1.18.66.12.06.11.13,0,.22-.21.16-.41.33-.66.34-.17,0-.32,0-.44-.12-.18-.18-.47-.21-.61-.46-.02-.04-.07-.05-.11-.07-.72-.2-1.34-.58-2.02-.87-.22-.1-.46-.14-.69-.22l-.44-.14c-.21-.07-.43-.15-.65-.2-.17-.04-.34-.02-.46-.2-.03-.04-.11-.05-.15-.02-.14.1-.28.07-.42.04-.37-.08-.74-.14-1.12-.17-.28-.02-.56-.02-.84.01-.43.04-.86.13-1.28.2-.35.06-.71.11-1.06.18-.08.02-.16.06-.24.07-.15.03-.3.08-.45.06-.16-.03-.29-.01-.41.13-.07.08-.19.1-.3.11-.05,0-.03,0-.04,0,0,0-.01-.01-.02-.02-.02-.02-.05-.03-.08-.05-.07-.04-.22-.06-.14.02.04.04-.02.03-.11.02-.08,0-.17,0-.24,0-.04,0-.08,0-.09.03,0,.02,0,.02.02.04.04.05.13.1.23.15l.1.04c.13.02.89.35,1.46.53l.7.26c.73.26,1.44.52,2.18.74.14.04.29.08.44.09.35,0,.68.07,1.01.15.4.1.82.07,1.23.03.1,0,.19-.04.29-.03.66.07,1.31-.1,1.96-.16.53-.05,1.07-.07,1.6-.13.41-.05.83-.09,1.24-.17.03,0,.05-.02.08-.03.03,0,.06,0,.08,0h.02s0,0,0,0h0l.1.3h0s0,0,0,0h0s0,0,0,0c0,0,0,0,0,0,0,0,0,0,0,0-.02.02.05-.08.13-.03.07.03.12.16.02.28-.01.01-.03.03-.04.04,0,0,0,.01,0,.02l-.02.04s-.02.05-.04.07c-.06.09-.14.15-.25.18-.24.07-.49.12-.73.16v.04Z"/>
      </g>
      <path class="cls-1" d="M30.15,8.93c.12.06.23.12.33.2l.45.34-.32.18c-.06.03-.12.06-.18.09-.15.06-.31.12-.35.29,0,.04-.05.06-.08.09-.05.06-.1.11-.14.17-.02.03,0,.09-.04.1-.08.03-.15.07-.21.13-.05.05-.07.1-.07.17-.17.02-.16.14-.17.2,0,.06-.1.14-.01.17.01,0,.02,0,.02.01.01,0,.01,0,0,0-.06.03-.04.05-.01.06.01,0,.03,0,.04.01l.19.07c.14.05.28.11.39.19.11.08.17.17.2.25,0,.03.02.05.04.08.04.06.08.16.07.25-.02.15-.08.27-.18.39-.14.17-.3.31-.49.52-.15.15-.21.24-.3.34-.08.1-.15.19-.19.27-.05.08-.13.12-.2.19-.13.13-.27.31-.33.54-.05.17-.06.36-.05.54,0,.18.06.36.09.54l.25,1.69c.02.14.06.27.08.41.01.07.02.14.02.2,0,.25-.01.51,0,.76l.04,1.09c0,.21,0,.41.09.61.03.06-.04.08-.18.06-.25-.02-.51-.04-.66-.13-.1-.06-.18-.12-.15-.2.05-.12-.07-.24.07-.37.02-.02.01-.04,0-.06-.19-.34-.11-.7-.11-1.06,0-.12-.03-.23-.05-.35,0-.07-.01-.15-.01-.23,0-.11.02-.22,0-.33-.01-.08-.06-.16.08-.24.03-.02.02-.06-.02-.07-.14-.05-.13-.12-.13-.19,0-.18.02-.37,0-.55,0-.14-.04-.27-.08-.4-.06-.21-.15-.41-.21-.63-.05-.18-.06-.37-.07-.56,0-.04-.03-.09-.03-.14,0-.08-.03-.18.03-.25.06-.08.08-.15-.02-.25-.06-.06-.04-.14,0-.2.03-.08.1-.15.17-.21.08-.08.17-.14.13-.27-.02-.07.04-.14.11-.18.27-.18.45-.4.66-.6.13-.13.27-.25.39-.36l.05-.04s0-.01,0-.02c0-.01,0-.02,0-.03,0-.02,0-.04,0-.05,0-.02,0-.03,0-.05,0-.02,0-.03,0-.05,0-.02,0-.03-.01-.06,0-.01-.01-.03-.04-.01h-.02s0,.02,0,.02c0,0,0,0-.02,0l-.08-.03c-.11-.04-.22-.09-.33-.14-.21-.1-.41-.21-.59-.32-.05-.03-.11-.06-.16-.09.25-.25.39-.48.57-.76.04-.07.08-.15.15-.22.12-.12.23-.23.33-.35l.07-.09.04-.05.07-.1c.09-.14.18-.28.3-.39.16-.15.34-.28.52-.41l.26.99s-.06-.04-.09-.06c-.13-.09-.28-.17-.44-.22-.01,0-.02,0-.03,0-.09-.04-.15-.21-.11-.48.03-.24.12-.39.25-.38.14,0,.28.05.41.09v-.04Z"/>
      <path class="cls-1" d="M22.39,21.99c.03-.34.04-.68.1-1.01.05-.3.11-.59,0-.89-.03-.08-.01-.16-.02-.24-.01-.15-.02-.29-.04-.44,0-.07-.06-.13-.05-.2.06-.31.07-.62-.04-.92.1-.25,0-.48-.04-.71-.05-.24-.04-.48-.13-.72-.03-.06-.04-.13-.02-.2.08-.39.03-.78,0-1.17-.04-.42-.02-.84.08-1.25.05-.22.05-.45.04-.68,0-.27-.04-.54-.05-.81-.02-.39-.05-.78-.13-1.17-.11-.52-.19-1.05-.24-1.58-.03-.27.02-.54.04-.81l.09-.81.05-.52.05-.58.02-.43v-.05s.04,0,.05,0h.12s.23.04.23.04l.46.05.43.04c.37.03.75,0,1.12.02,1.1.02,2.21,0,3.3-.08.26-.02.53-.06.79-.09.13-.02.26-.02.39-.03l.58-.03.3-.02.34-.03,1.36-.12-.04.13c-.03.1-.09.28-.13.41l-.13.39c-.08.26-.18.52-.35.81-.08.14-.17.28-.26.42-.05.07-.09.14-.15.21-.05.06-.12.15-.15.2-.12.15-.26.3-.39.44-.32.32-.66.61-1.05.94-.11.09-.18.06-.21-.1-.05-.26-.12-.51-.05-.74.05-.16.09-.28.23-.36.21-.11.3-.36.56-.42.04,0,.06-.05.08-.08.04-.07.08-.15.12-.22l.09-.16c.05-.1.11-.18.16-.28.06-.09.12-.19.18-.3.03-.05.06-.11.08-.17l.02-.04s.01-.02,0-.02h-.02s-.08,0-.08,0h-.08c-.16.01-.35.06-.5.08-.11.01-.22.02-.33.03h-.3c-.11,0-.22,0-.33.02-.16.02-.32.07-.47-.07-.03-.03-.12-.02-.15.02-.11.14-.25.13-.38.13l-1.1-.03c-.27,0-.54.01-.81.03-.42.03-.84.09-1.27.1-.35.01-.71-.01-1.06-.02-.02,0-.04,0-.06,0-.02,0-.04,0-.04,0-.01,0-.02.01-.03.02-.04,0-.04.03-.11-.02-.04-.03-.07-.05-.08-.05,0,.03.03.09.09.17.06.09.06.1.04.13-.02.03-.06.05-.11.09-.03,0-.06.1-.07.18-.01.08,0,.15.04.24.05.09.01.21-.02.32-.16.44-.15.9-.12,1.36.05.62.12,1.23.18,1.85.02.24.03.48.04.72.03.75.01,1.5,0,2.26,0,.15-.01.3.02.44.07.33.07.67.04,1-.03.41.04.81.11,1.2.02.09.05.19.05.28-.03.65.13,1.28.15,1.92.02.52-.01,1.04-.03,1.57-.02.4-.03.81-.05,1.21,0,.03.01.05.01.08-.02.23-.19.32-.46.24-.25-.07-.4-.21-.42-.42-.02-.23-.02-.46-.03-.69h-.04Z"/>
      <path class="cls-1" d="M47.21,11.64c.09-.25.17-.5.28-.73.12-.21.25-.39.22-.64,0-.06.04-.12.06-.17.04-.11.08-.21.12-.32.01-.05,0-.12.04-.15.1-.08.18-.17.25-.27.08-.09.15-.19.2-.31.1-.04.19-.07.26-.14.07-.06.13-.15.22-.2.08-.06.17-.1.26-.15.09-.03.19-.07.28-.14.05-.04.11-.05.16-.04.08.02.16.03.24.03.08.01.16.02.23.03.16,0,.31.03.47.05.33.05.63.2.87.43.13.12.3.21.43.34.16.14.31.29.43.47.17.25.31.52.49.76.24.32.45.65.65.99.1.17.14.37.19.56l.15.58.08.29c.03.11.04.16.1.33.07.22.15.43.24.65l.03.08.02.04s-.02.02-.03.03l-.14.09-.29.18c-.09.06-.17.11-.28.19-.06.05-.1.09-.15.14-.1.09-.19.17-.29.26-.57.52-1.09,1.13-1.62,1.76-.13.15-.25.32-.38.47-.07.08-.14.15-.21.22-.28.26-.58.5-.89.75-.45.35-.93.68-1.49.93-.16.06-.33.12-.48.18-.16.05-.33.11-.49.19-.09.05-.13-.01-.12-.16.01-.26,0-.52.11-.7.07-.12.13-.21.24-.21.17-.01.29-.17.5-.11.03,0,.06-.01.08-.03.37-.36.8-.57,1.21-.88.13-.1.24-.23.35-.35.07-.08.15-.15.23-.22.11-.11.24-.2.35-.32.08-.09.12-.21.3-.18.04,0,.08-.04.07-.09-.04-.15.04-.22.11-.28.19-.18.4-.36.59-.55.14-.14.27-.29.39-.46.2-.25.38-.51.61-.75.09-.1.2-.19.31-.27l.16-.13s.02-.02.03-.03c.01-.01,0-.04,0-.05.02-.02,0-.04.04-.05.05,0,.05-.06-.08-.06-.04,0-.05,0-.06,0,0,0,0,.01-.01-.04-.02-.1-.01-.2,0-.31.01-.13.03-.25-.1-.33-.07-.04-.07-.14-.07-.22.02-.36-.11-.67-.27-.97-.21-.4-.44-.83-.66-1.16-.09-.13-.16-.26-.24-.36-.13-.16-.24-.28-.35-.35-.18-.11-.42-.23-.63-.31-.08-.03-.17-.08-.26-.06-.1.01-.2,0-.29,0-.05,0-.09-.01-.14-.02-.04,0-.09,0-.13-.02-.11-.03-.2.02-.3.04-.04.03-.08.06-.12.08-.04.03-.07.06-.1.1-.03.04-.04.08-.08.1-.13.08-.23.2-.29.37l-.05.12s-.03.09-.04.13c-.03.09-.06.18-.1.26-.05.15-.11.31-.18.47-.06.16-.11.33-.16.5-.09.26-.14.55-.22.83,0,.02,0,.04,0,.06-.04.16-.22.21-.49.13-.24-.07-.37-.19-.36-.35.01-.17.04-.35.06-.52h-.04Z"/>
      <path class="cls-1" d="M31.13,7.54c.22.06.44.09.66.17.2.07.39.15.58.06.05-.02.11,0,.16,0,.1,0,.19,0,.29,0,.04,0,.09-.05.13-.04.2.08.4.11.61.02.16.12.31.04.47,0,.16-.03.32,0,.48-.09.04-.02.09-.03.13-.01.25.11.51.08.77.08.28,0,.56.05.82.19.14.07.29.09.44.12.18.03.36.04.55.09.26.07.52.14.79.18.36.05.7.12,1.01.18.16.03.31.12.46.18.31.13.62.26.95.35.25.07.51.09.76.11.24.01.49-.01.73-.01.72,0,1.45-.04,2.19-.09.18-.01.35-.04.53-.05.09,0,.18,0,.26,0,.33.02.65.05.98.06l.7.02c.24,0,.52.02.73.03.23.02.39.02.59-.11.05-.04.09.02.1.17.02.25.05.51-.05.68-.07.11-.15.21-.27.18-.17-.04-.36.07-.5-.09-.02-.02-.05-.02-.08,0-.45.14-.91.06-1.38.03-.15,0-.3.02-.45.02-.1,0-.2,0-.29,0-.14,0-.28-.03-.43-.02-.11,0-.21.05-.31-.1-.02-.03-.08-.02-.1.01-.08.13-.17.12-.26.11-.24-.01-.48-.04-.72-.04-.18,0-.36.01-.53.04-.28.04-.56.1-.84.13-.24.02-.47,0-.71,0-.06,0-.11.02-.17.02-.1,0-.21.01-.3-.05-.1-.07-.18-.09-.29,0-.07.06-.15.03-.22,0-.09-.03-.17-.1-.25-.16-.09-.08-.18-.16-.31-.1-.07.03-.15-.02-.21-.07-.26-.23-.56-.31-.87-.4-.42-.12-.82-.25-1.18-.33-.14-.03-.27-.08-.39-.1-.39-.08-.87-.17-1.34-.25-.09-.02-.19-.04-.28-.02-.22.05-.43.02-.65-.03-.26-.06-.52-.02-.79.03-.06.01-.12.04-.18.03-.42-.08-.84.05-1.26.03-.34-.02-.68-.08-1.03-.14-.27-.04-.53-.1-.81-.15-.02,0-.04,0-.06,0-.08-.02-.14-.07-.19-.17-.01-.09.03-.19.07-.32.07-.23.15-.37.29-.37.15,0,.3.02.45.03v-.04Z"/>
      <path class="cls-1" d="M31.35,27.88c-.37.52-.73,1.07-1.22,1.52-.45.39-.89.7-1.25,1.15-.09.12-.23.21-.34.31-.21.18-.43.37-.64.54-.1.08-.17.21-.28.27-.26.14-.51.29-.75.46-.25.16-.47.34-.7.53-.23.07-.42.18-.61.31-.19.12-.38.26-.57.38-.39.25-.82.44-1.2.7-.1.07-.22.14-.34.17-.72.2-1.41.48-2.13.71-.77.24-1.57.37-2.37.38-.43,0-.86.04-1.3.07-.51.03-1.03.07-1.54.08-.75,0-1.49,0-2.24.01-1,.02-2-.01-3-.08-.23-.02-.46-.05-.7-.08l-2.74-.43,2.67-.66c.26-.07.53-.13.79-.2.96-.26,1.9-.57,2.76-1.05.64-.35,1.22-.82,1.74-1.34.49-.49.9-1.05,1.32-1.61,1.23-1.67,2.25-3.56,3.67-5.25l.52-.6.54-.58c.19-.19.38-.37.58-.54.75-.64,1.55-1.21,2.37-1.74,1.18-.76,2.44-1.4,3.75-1.89.75-.27,1.51-.5,2.26-.76.21-.08.3-.03.25.13-.08.28-.13.56-.45.79-.22.16-.41.3-.71.35-.44.09-.84.34-1.3.37-.07,0-.15.04-.21.08-1.15.65-2.33,1.19-3.44,1.91-.35.24-.69.51-1.02.78-.22.17-.43.35-.64.53-.16.13-.31.26-.46.39-.15.13-.31.26-.44.41-.21.22-.39.46-.68.56-.06.02-.17.15-.18.21-.05.25-.22.43-.38.62-.44.51-.87,1.05-1.26,1.61-.29.42-.56.85-.82,1.28-.41.68-.8,1.37-1.26,2.03-.39.55-.83,1.08-1.31,1.58-.11.11-.21.24-.32.36-.22.19-.43.43-.69.55-.28.15-.48.27-.66.53-.1.14-.33.27-.52.36-.24.12-.5.19-.75.26-.3.08-.59.13-.86.34-.15.11-.39.17-.59.2-.45.07-.89.17-1.33.28l-.05-.81c.41.06.83.11,1.25.14,1.17.09,2.33.14,3.48.14.45,0,.9.01,1.35,0,1.39-.03,2.76-.13,4.11-.42.26-.06.54-.11.78-.22.29-.12.58-.22.86-.33.29-.1.58-.2.87-.3.7-.25,1.35-.61,1.96-1.03.15-.09.28-.21.43-.29,1.05-.56,1.93-1.37,2.82-2.14.36-.31.72-.63,1.07-.95.31-.29.59-.65.86-1.04.42-.61.83-1.28,1.35-1.9.03-.04.06-.09.09-.13.32-.35.55-.32.61.01.06.29,0,.58-.2.89-.23.34-.46.7-.69,1.07l.03.02Z"/>
      <path class="cls-1" d="M27.63,23.18c-.37.13-.73.31-1.1.47-.33.15-.66.3-.88.6-.06.08-.15.13-.22.19-.13.12-.27.24-.4.36-.06.06-.09.15-.15.19-.33.19-.62.44-.82.76-.29.12-.44.38-.63.61-.19.23-.42.42-.56.69-.04.07-.1.14-.16.18-.41.26-.72.62-1.04.98-.34.38-.72.72-1.16,1.01-.23.15-.43.36-.62.56-.23.24-.44.5-.66.74-.32.36-.63.72-.9,1.13-.05.07-.06.1-.08.13l-.05.1c-.03.06-.05.11-.06.15-.03.09-.03.14-.02.17,0,0,0,.02.04,0,.15-.03.15.01.23.03.04,0,.08.01.14.02.06,0,.1.01.29,0,.32-.03.64-.07.96-.13.48-.09.96-.22,1.44-.36.44-.13.88-.29,1.31-.43,1.29-.42,2.56-.9,3.75-1.5.14-.07.28-.15.42-.23.13-.08.24-.15.36-.23.11-.09.23-.16.35-.25.43-.31.84-.7,1.21-1.14.53-.63.98-1.36,1.46-2.1.27-.42.55-.83.77-1.3.06-.13.14-.13.23,0,.15.22.33.42.32.7,0,.19-.02.36-.16.51-.2.22-.27.54-.55.7-.04.02-.07.08-.08.12-.32.82-.88,1.5-1.46,2.16-.19.21-.37.44-.57.65-.14.13-.27.26-.43.37-.22.17-.46.31-.69.46-.18.11-.34.25-.57.19-.05-.01-.14.04-.16.09-.07.18-.23.24-.39.3-.42.17-.85.31-1.27.47-.31.11-.62.24-.93.38-.47.21-.94.43-1.43.61-.41.15-.82.27-1.23.4-.1.03-.18.08-.28.11-.18.05-.35.13-.53.12-.2,0-.35.02-.49.18-.08.09-.24.12-.37.13-.17.02-.34,0-.51,0-.1-.01-.2-.02-.3-.01-.1,0-.17.03-.36.09-.18.07-.46.07-.65.05-.39-.04-.7-.1-1.02-.13-.16-.02-.33-.03-.51-.04-.17-.02-.43,0-.47-.07l.15-.18c.65-.78,1.69-2.02,2.02-2.44.19-.23.39-.45.6-.68.63-.69,1.3-1.33,1.99-1.97.13-.12.27-.25.38-.39.25-.34.56-.62.88-.88.39-.32.71-.7,1.03-1.08.07-.09.14-.19.23-.26.62-.5,1.12-1.15,1.77-1.67.53-.42,1.11-.78,1.73-1.08.48-.23.98-.41,1.5-.54.03,0,.06-.03.1-.04.3-.05.43.09.38.39-.05.26-.17.44-.39.53-.25.09-.5.18-.74.3v.03Z"/>
      <path class="cls-1" d="M19.78,14.45c-.17-.03-.35-.02-.55-.03-.18,0-.36,0-.47.16-.03.04-.08.05-.12.07-.07.04-.14.09-.21.14-.03.03-.03.09-.07.09-.19.04-.35.13-.42.31-.18,0-.23.15-.31.27-.08.12-.2.2-.24.36-.01.04-.04.08-.07.09-.23.09-.37.27-.53.45-.16.19-.37.34-.62.42-.14.04-.24.14-.34.22-.12.1-.22.23-.34.34-.17.16-.33.33-.46.53-.18.28-.38.53-.6.77-.11.12-.27.18-.41.26-.29.16-.59.29-.87.44-.21.12-.41.25-.61.39-.18.13-.36.29-.54.41-.55.39-1.13.73-1.72,1.08-.14.08-.28.18-.42.26-.07.04-.14.08-.22.11l-.85.31c-.4.15-.81.31-1.22.44-.23.07-.47.13-.68.28-.06.04-.1-.01-.12-.16-.03-.25-.07-.51-.01-.69.04-.12.09-.21.19-.21.15,0,.25-.14.43-.05.03.01.05,0,.07-.02.33-.29.74-.35,1.13-.49.13-.04.24-.12.36-.18.08-.04.16-.07.24-.1.12-.04.24-.07.35-.14.08-.05.15-.13.29-.03.03.02.07,0,.07-.05,0-.15.08-.17.15-.2.19-.08.39-.16.58-.25.14-.07.27-.17.39-.27.19-.16.36-.34.55-.5.16-.13.33-.24.48-.37.04-.03.06-.08.1-.1.07-.05.13-.12.22-.12.1,0,.17-.03.17-.18,0-.08.07-.12.12-.14.07-.03.16-.03.25-.03.11,0,.21,0,.24-.13.02-.07.09-.09.16-.09.3-.03.51-.19.7-.38.26-.25.49-.54.74-.8.09-.11.2-.2.3-.29.32-.3.67-.56,1.01-.82.07-.05.14-.1.18-.18.1-.17.25-.3.43-.41.21-.13.36-.33.51-.54.04-.05.06-.11.11-.14.35-.21.61-.56,1.01-.77.32-.16.7-.26,1.07-.29.29-.03.59,0,.87.07.02,0,.04,0,.06,0,.16.05.18.23.08.49-.08.24-.16.36-.26.36-.11,0-.22-.02-.34,0v.04Z"/>
      <path class="cls-1" d="M20.5,12.19c-.48,0-.97.07-1.45.12-.43.05-.87.11-1.24.36-.1.06-.21.1-.32.15-.19.1-.38.2-.56.32-.08.05-.13.16-.21.19-.4.19-.74.51-.97.91-.32.19-.48.51-.69.81-.21.3-.47.56-.67.88-.05.09-.12.17-.2.23-.49.35-.91.76-1.36,1.15-.48.42-1.01.77-1.58,1.05-.3.15-.59.35-.87.54-.33.23-.66.48-.99.71-.49.33-.97.66-1.44,1.03-.62.49-1.28.95-1.95,1.37l-.06.04h-.02s-.02.03-.03.03c-.02.01-.04.02-.07.03l-.19.06-.25.09-.1.04s.02.02.04.03c.03.02.06.04.11.06.08.04.19.08.31.11.06.02.13.03.2.04l.16.02.22.03c.3.03.59.05.89.06.56.02,1.12-.01,1.67-.03,1.66-.05,3.32-.2,4.97-.41.4-.05.79-.12,1.18-.19.2-.03.4-.06.59-.08.74-.08,1.47-.16,2.2-.28,1.04-.17,2.08-.38,3.07-.64.28-.08.56-.16.8-.26.12-.05.24-.11.33-.17.04-.03.08-.06.09-.08,0,0,.01-.01,0-.01h0s.05.05.07.07c.06.05.09.09.13.12.03.03.09.06.12.08.03.02.06.03.09.04.01,0,.01,0,.02,0,.02,0,0,0,0,0,0,0-.01,0-.01,0-.01,0-.01,0,0,0,0,0,.02,0,.02,0,0,0-.02,0-.02,0,0,0,0,0-.01,0-.01,0-.03,0-.04-.01-.02,0,0,0,.01,0,.01,0,.03.02.04.03.08.09.07.25-.02.39-.13.2-.28.35-.53.41-.36.08-.69.3-1.08.25-.05,0-.12.02-.18.04-.98.43-2.05.54-3.09.68-.34.05-.68.13-1.02.18-.22.04-.44.07-.67.09-.32.04-.65.05-.97.1-.24.04-.47.11-.71-.02-.05-.03-.18,0-.22.03-.16.15-.36.16-.56.17l-1.64.09c-.4.02-.81.07-1.21.11-.62.07-1.25.16-1.88.2-.53.03-1.06.03-1.6.02-.12,0-.25.02-.37.01-.23-.01-.47,0-.68-.07-.06-.02-.11-.04-.17-.05-.03,0-.05-.01-.08-.02l-.12-.02c-.17-.02-.34-.02-.57,0-.25.02-.61-.06-.84-.15-.31-.1-.52-.24-.7-.36-.22-.15-.37-.26-.91-.39-.09-.03-.17-.06-.22-.1.15-.07.34-.14.52-.2.71-.26,1.25-.47,1.75-.71.25-.11.48-.24.72-.36.15-.08.3-.17.44-.26.79-.48,1.54-1,2.29-1.53.29-.21.6-.4.89-.61.92-.63,1.86-1.25,2.77-1.89.18-.13.36-.25.51-.41.34-.36.71-.67,1.09-.97.46-.37.79-.83,1.15-1.34.08-.12.15-.25.26-.35.36-.36.7-.75,1.11-1.11.44-.39.92-.66,1.41-.86.79-.32,1.61-.49,2.43-.58.64-.07,1.28-.09,1.94,0,.04,0,.09,0,.13,0,.39.08.45.28.24.52-.18.21-.38.33-.67.32-.32,0-.64,0-.97.03v.04Z"/>
      <path class="cls-1" d="M50.12,18.61c.34.06.67.1,1.01.18.15.04.3.07.44.09.14.02.31.01.51-.03.11-.02.2,0,.31,0,.19,0,.37,0,.56-.01.08,0,.21-.04.25-.02.1.06.21.09.36.1.07,0,.15.01.24.01h.13s0,.07,0,.11c-.2.3-.25.46-.37.64-.12.18-.36.33-.52.54-.04.06-.12.12-.22.15-.64.25-.82.41-1.05.71-.23.3-.47.64-.79.94-.17.16-.3.36-.45.54-.17.22-.32.45-.51.66-.27.3-.54.6-.81.92-.36.42-.78.81-1.24,1.13-.24.16-.52.26-.79.36-.54.2-1.11.32-1.66.43-.42.09-.84.17-1.26.23-.39.06-.79.14-1.19.16-1.19.07-2.38-.05-3.55-.32-.28-.07-.57-.13-.85-.22-.14-.04-.28-.1-.42-.16-.5-.23-.99-.53-1.44-.88-.65-.5-1.22-1.15-1.57-1.93-.2-.44-.32-.92-.43-1.41-.03-.14.03-.19.18-.14.26.07.51.12.69.29.12.11.22.2.22.36.01.24.2.41.17.67,0,.04.02.08.05.11.47.5.85,1.04,1.41,1.45.18.13.39.23.59.33l.39.19c.19.09.38.2.58.26.15.05.32.05.41.23.02.04.1.06.14.03.15-.1.27-.05.4-.01.34.1.69.2,1.05.26.26.04.53.06.8.05.41,0,.82-.07,1.23-.13.34-.04.67-.07,1-.14.08-.02.15-.05.22-.07.14-.03.28-.08.42-.06.15.02.27.02.38-.14.06-.08.18-.1.27-.12.12-.02.26,0,.39,0,.16,0,.31.02.43-.12.06-.07.19-.09.29-.1.46-.03.86-.23,1.22-.49.49-.35.92-.76,1.31-1.2.15-.17.31-.33.46-.51.22-.27.45-.54.65-.83.21-.28.42-.61.69-.95.11-.13.23-.26.33-.41.12-.17.29-.33.46-.45.04-.03.09-.05.13-.08.02-.01.02,0,.03,0h.05c.12,0,.15-.08.03-.09-.02,0-.09,0-.07,0,.11-.05.02-.03-.02-.01-.05.02-.06.04-.05.03,0,0,0,0,0-.01h0s-.09-.01-.09-.01l-.4-.03-.8-.09c-.41-.04-.82-.1-1.23-.16-.03,0-.06,0-.08,0-.23-.04-.3-.21-.19-.48.1-.24.26-.38.47-.38.23,0,.46.02.69.04v-.04Z"/>
      <path class="cls-1" d="M23.6,36.06c-.16.59-.29,1.19-.47,1.77-.16.52-.32,1.03-.33,1.58,0,.14-.05.29-.07.44-.04.27-.09.53-.13.8-.02.12.01.26-.02.37-.18.54-.29,1.08-.3,1.65-.19.41-.18.85-.23,1.29-.05.44-.15.87-.14,1.32,0,.12-.01.25-.05.36-.23.68-.33,1.38-.45,2.09-.06.38-.14.75-.24,1.12-.05.18-.1.37-.16.55-.06.18-.13.38-.18.5-.06.14-.07.36.09.46.15.09.31.12.52.19.47.15.95.25,1.43.36.69.16,1.39.28,2.1.32.94.05,1.88.06,2.82.03.47-.02.95.02,1.43,0,.48,0,.95-.03,1.43-.07l.37-.03h.04s.01-.04.01-.04c0-.02.01-.05.01-.07,0-.05,0-.1-.01-.16-.01-.04-.02-.08-.04-.11,0-.01-.03-.07-.05-.1l-.06-.11-.27-.49c-.1-.17-.19-.37-.26-.59-.07-.22-.1-.48-.06-.73.08-.47.29-.8.4-1.08.12-.29.13-.47.08-.71-.07-.34-.35-.73-.64-1.15-.29-.42-.64-.9-.79-1.57-.13-.67,0-1.23-.01-1.66,0-.41-.11-.83-.25-1.32-.14-.46-.3-1.01-.37-1.53-.04-.26-.06-.53-.07-.79-.02-.97.04-1.87.05-2.78l.05-3.92c.01-.74.04-1.48-.03-2.22-.02-.21.05-.27.19-.19.25.14.5.25.65.6.1.24.17.47.13.77-.06.43.05.89-.1,1.32-.02.06-.02.15,0,.22.16,1.28.05,2.56.02,3.84-.01.42.01.84.01,1.26v.81c.01.39.01.78.08,1.16.05.29.15.54.07.84-.02.06.03.21.08.25.18.17.24.41.29.66.07.34.11.69.09,1.05-.02.35-.07.68-.08.99-.03.47.13.86.39,1.25.2.3.45.58.69.9.24.32.48.7.56,1.19.01.1.02.21.02.32,0,.11-.01.21-.03.32-.04.21-.12.4-.19.56-.15.32-.29.57-.31.76,0,.09.02.15.04.23.03.15.15.34.23.57.04.13.09.24.16.35.03.05.07.11.12.16.02.03.05.05.07.08l.04.05s.04.05.06.08c.09.11.15.28.21.46.01.09.03.18.04.27,0,.09,0,.17-.01.25-.02.1-.04.2-.07.29l-.04.15s0,.11-.08.11c-.21.04-.42.08-.61.11-.11.02-.23.04-.34.05-.05,0-.11.02-.16.02h-.12c-.15.01-.29.04-.44.11-.16.07-.4.06-.6.04-.86-.08-1.7-.06-2.56-.07-1.16-.01-2.32-.1-3.46-.29-.45-.07-.89-.18-1.34-.28-.34-.08-.68-.18-1.02-.28l-.6-.19c-.31-.1-.57-.29-.7-.58-.13-.28-.13-.61-.05-.93l.13-.54.24-1c.06-.26.13-.53.16-.79.06-.61.19-1.21.35-1.81.19-.72.27-1.45.35-2.19.02-.17.02-.35.06-.51.27-1.15.35-2.34.57-3.5.18-.94.4-1.87.61-2.8l.51-2.16s0-.1.02-.15c.1-.41.3-.51.54-.27.21.21.3.51.24.88-.07.41-.16.82-.24,1.23h.04Z"/>
      <path class="cls-1" d="M22.95,52.85c-.05.55-.07,1.11-.15,1.66-.07.49-.14.97-.04,1.46.02.13,0,.27,0,.4,0,.24,0,.49.02.73,0,.11.06.23.04.33-.08.51-.1,1.01,0,1.52-.11.4-.03.79,0,1.18.04.4.01.8.1,1.2.02.1.03.22.02.33-.1.64-.07,1.29-.05,1.93.02.69-.02,1.39-.15,2.07-.06.37-.07.75-.09,1.13-.01.45,0,.9-.01,1.35-.02.65-.03,1.3,0,1.95.04.87.05,1.75,0,2.63-.02.45-.12.89-.2,1.34-.18.89-.39,1.77-.61,2.64-.08.33-.16.66-.24.99-.08.33-.16.66-.25.99-.08.31-.15.62-.24.92-.08.31-.16.62-.26.92-.3.91-.68,1.81-1.22,2.65-.54.84-1.29,1.62-2.26,2.11-.46.24-.96.4-1.43.5-.24.05-.48.08-.71.1-.85.08-1.7.11-2.54.12-1.21.02-2.41,0-3.6-.06-.68-.03-1.35-.09-2.02-.04-.19.01-.25-.06-.17-.2.13-.24.24-.49.57-.63.22-.09.43-.15.7-.1.39.07.81-.02,1.19.14.05.02.13.02.2.01,1.16-.13,2.31-.02,3.47-.04.38,0,.75-.05,1.13-.09l.73-.06c.35-.03.71-.05,1.04-.13.26-.06.48-.17.75-.11.06.01.18-.04.21-.1.06-.1.13-.17.22-.22.08-.06.18-.11.27-.16.49-.28.93-.67,1.29-1.12.27-.34.49-.71.67-1.11.28-.61.47-1.26.65-1.9l.23-.82c.08-.27.15-.55.22-.82.03-.13.04-.26.07-.39.06-.23.09-.49.19-.7.11-.23.17-.42.1-.67-.04-.14.01-.34.06-.5.06-.21.15-.41.23-.61.1-.24.21-.46.16-.75-.02-.15.04-.35.1-.51.26-.71.35-1.46.4-2.2.06-1.02.07-2.04.07-3.06,0-.4.02-.8.03-1.2.03-1.24.09-2.49.15-3.74.01-.24.03-.49,0-.74-.06-.56-.04-1.11,0-1.67.05-.67,0-1.34-.05-2.01-.01-.16-.04-.31-.03-.47.07-1.07-.07-2.14-.06-3.22,0-.87.06-1.73.1-2.6l.11-2s-.01-.09,0-.13c.03-.38.2-.51.47-.34.24.15.39.4.4.74,0,.38,0,.76,0,1.14h.04Z"/>
      <path class="cls-1" d="M9.69,88.5c.48.13.97.23,1.45.38.43.13.85.25,1.3.21.12,0,.24.02.36.03.22.02.44.04.66.05.1,0,.21-.04.3-.01.45.12.9.17,1.36.11.35.13.71.07,1.07.05.36-.02.72.01,1.08-.06.09-.02.2-.03.3-.01.57.1,1.16.08,1.72.04.6-.06,1.18-.11,1.73-.3.3-.1.54-.34.73-.6.22-.32.35-.7.5-1.07.21-.55.41-1.09.55-1.66.18-.76.38-1.52.58-2.28.11-.38.27-.75.41-1.13.3-.75.58-1.49.84-2.25.18-.58.35-1.16.48-1.74.12-.55.23-1.1.34-1.65.34-1.63.62-3.27.84-4.92.06-.4.09-.79.13-1.19.02-.2.05-.4.08-.59.12-.73.23-1.46.32-2.2.12-1.05.2-2.11.28-3.17.02-.3.04-.6.05-.9.02-.31,0-.58-.07-.71-.04-.06.01-.1.16-.13.25-.03.54-.02.71.28.11.2.17.4.12.64-.07.35.02.73-.15,1.08-.02.05-.02.12-.01.18.05.53.02,1.05-.02,1.58-.05.52-.14,1.05-.2,1.57-.05.34-.06.69-.1,1.03-.02.22-.05.44-.08.67-.05.32-.12.64-.16.96-.03.24-.01.49-.2.68-.04.04-.05.17-.02.22.11.19.06.39.02.59-.1.54-.23,1.07-.33,1.6-.07.4-.14.8-.19,1.2-.08.62-.15,1.25-.25,1.87-.08.52-.22,1.03-.32,1.55-.03.12-.03.24-.06.36-.06.22-.09.45-.19.64-.12.21-.18.38-.12.62.03.14-.03.32-.09.46-.07.19-.18.36-.28.54-.12.21-.24.4-.23.67,0,.14-.08.31-.16.45-.18.3-.32.61-.44.94-.12.32-.23.65-.33.98-.13.45-.27.9-.4,1.34-.13.45-.27.9-.43,1.34-.12.35-.25.69-.39,1.04-.11.27-.24.56-.43.85-.18.28-.42.57-.72.8-.6.46-1.3.61-1.92.66-.25.02-.49.02-.72.05-.54.07-1.03.05-1.55,0-.61-.06-1.22-.03-1.84,0-.14,0-.29.03-.43.01-.98-.12-1.96-.07-2.94-.19-.79-.1-1.57-.26-2.34-.42-.6-.13-1.19-.28-1.78-.43-.04-.01-.08,0-.12-.02-.34-.09-.41-.29-.21-.53.18-.21.43-.31.73-.26.34.06.67.13,1.01.19v-.04Z"/>
      <path class="cls-1" d="M39.27,61.93c.14.48.31.97.48,1.46.17.49.34.96.55,1.42.37.82.87,1.58,1.31,2.44.11.22.19.48.27.72.14.45.27.88.39,1.34.05.21.14.42.16.61.05.47.11.94.27,1.37.04.11.09.21.14.31.06.1.11.19.2.31.08.11.16.24.16.39,0,.15-.04.29-.11.43-.16.2-.3.31-.45.44l-.43.37c-.28.24-.56.49-.82.74-.26.25-.54.54-.59.8-.07.37-.13.73-.2,1.1-.03.2-.09.42-.17.61-.47,1.13-.91,2.26-1.23,3.41-.35,1.23-.59,2.48-.75,3.75-.09.68-.07,1.4,0,2.09.03.22,0,.39.13.53.12.13.29.16.49.23.39.11.8.18,1.2.19.08,0,.13,0,.24,0,.09,0,.19,0,.28.03.18.06.3.22.41.38.18.3.29.58.39.88.19.6.33,1.2.43,1.82.03.21.06.41.08.62v.16s.02.08.02.08v.11c0,.15,0,.31,0,.45-.02.15-.05.28-.13.39-.09.12-.22.17-.35.2-.13.03-.29.03-.46.03h-.38c-.82,0-1.63,0-2.45,0-.83,0-1.68-.08-2.51-.13l-2.51-.17h-.17c-.08-.02-.17-.02-.25-.03-.17-.02-.32-.06-.46-.14-.14-.08-.24-.21-.3-.35-.06-.14-.08-.31-.08-.47l-.02-1.32c-.02-1.26-.07-2.52-.12-3.79l-.09-1.77c-.03-.59-.04-1.26.17-1.91.15-.48.37-.9.59-1.29.23-.39.45-.75.66-1.12.41-.74.77-1.5,1.01-2.28.24-.78.35-1.58.29-2.36-.07-.78-.3-1.52-.74-2.12-.42-.6-1.03-1.1-1.67-1.65-.32-.27-.65-.57-.95-.88-1.14-1.13-2.16-2.42-2.95-3.86-.56-1.04-.99-2.15-1.21-3.34-.21-1.18-.19-2.41.07-3.59.3-1.34.94-2.61,1.87-3.68.27-.29.41-.33.4-.12,0,.36.02.66-.24,1.21-.16.39-.31.72-.55,1.15-.37.62-.49,1.37-.74,2.05-.03.1-.05.24-.05.36-.02.54,0,1.07.05,1.59.06.53.15,1.05.28,1.56.27,1.03.69,2.02,1.25,2.94.36.6.81,1.15,1.26,1.69.3.35.6.69.92,1.01.46.48.93.95,1.45,1.38.38.33.79.64.99,1.1.04.09.22.3.31.35.33.21.57.61.73,1.02.45,1.11.48,2.34.26,3.48-.16.85-.45,1.66-.8,2.44-.27.6-.57,1.19-.89,1.76-.31.56-.6,1.11-.72,1.66-.1.45-.1.95-.07,1.49l.08,1.63c.01.25.05.5.06.75.02.46.07.94.03,1.38-.04.48-.04.86.1,1.3.07.25.08.64.08.97,0,.21-.01.42-.02.62-.02.03-.05.09-.04.14,0,.03.03.05.06.07.02,0,.03.01.05.02.01,0,.01,0,.04,0h.09c.24.03.48.03.75,0,.28-.04.67,0,.99.06,1.4.21,2.82.26,4.24.28l1.45.02h.18s.08,0,.08,0h.03s.11,0,.11,0c.04,0,.07-.02.08-.06,0-.04,0-.08,0-.11,0-.04,0-.04-.01-.18,0-.11-.02-.22-.03-.34-.02-.23-.05-.45-.09-.68-.08-.45-.18-.9-.32-1.31-.05-.16-.11-.32-.18-.46-.03-.07-.07-.13-.1-.19-.02-.03-.02-.02-.03-.04,0,0-.02-.01-.03-.01,0,0-.01,0-.02,0-.01,0,.01,0-.06,0-.21,0-.43-.02-.64-.05-.33-.04-.66-.12-.98-.22-.11-.04-.45-.14-.65-.32-.22-.17-.35-.43-.4-.7-.01-.07-.02-.14-.03-.21v-.12s-.03-.23-.03-.23l-.03-.46c-.01-.31-.02-.61-.02-.92.01-1.23.18-2.45.47-3.64.12-.47.26-.93.38-1.39.28-1.05.69-2.02,1.05-2.98.21-.56.37-1.11.47-1.68.06-.31.2-.52.33-.7.13-.17.26-.31.39-.45.26-.26.52-.48.77-.69.2-.18.41-.37.61-.55.08-.07.16-.14.2-.19,0,0,.01,0,.02-.01,0,0,0-.02,0-.02-.01-.02-.02-.03-.12-.2-.31-.54-.46-1.12-.57-1.63l-.16-.74c-.05-.24-.11-.44-.18-.68-.14-.48-.28-.94-.45-1.37-.13-.35-.28-.66-.47-1l-.61-1.05c-.44-.76-.73-1.58-1.01-2.34-.21-.6-.42-1.22-.56-1.87-.14-.65-.2-1.35-.09-2.05.02-.09.02-.19.04-.28.03-.1.06-.18.08-.26,0-.02.02-.04.02-.06.01-.03.03-.06.04-.08.03-.05.06-.09.09-.13.07-.08.15-.14.24-.18.1-.04.23-.05.31-.01.08.03.11.08.12.11,0,.03,0,.05-.04.07-.05.02-.17.06-.18.16-.04.16.06.28.06.52.02.22.03.47.03.76,0,.64.16,1.31.37,1.97h.04Z"/>
      <path class="cls-1" d="M43.87,66.82c1.02.59,2.11,1.09,3.17,1.61.95.46,1.89.91,2.92,1.25.27.09.54.23.81.34.48.22.97.44,1.45.67.22.1.47.17.66.3.47.3.94.59,1.4.89.23.14.48.29.69.53.22.24.31.57.34.86-.12.88-.08,1.71-.08,2.58,0,.87-.08,1.74-.05,2.6,0,.23,0,.49-.03.72-.19,1.39-.29,2.78-.41,4.18-.06.73-.1,1.47.13,2.09.11.31.3.57.55.83.25.26.55.5.79.82.27.34.44.76.5,1.18.06.42.05.84.04,1.25v.36c0,.12,0,.24,0,.34,0,.1.02.2.08.28.06.08.15.12.25.15.17.04.44.07.67.11l.72.1c1.39.17,2.79.21,4.17.09.46-.04.92-.09,1.38-.15.23-.03.46-.07.69-.1l.34-.06.17-.03s.05-.01.08-.02c.04-.01.09-.03.12-.07.03-.04.04-.08.04-.13v-.2c0-.1,0-.19-.02-.29-.05-.38-.23-.77-.4-1.24-.14-.37-.24-.8-.25-1.23.04.03.07-.02.07-.06,0-.04-.04-.06-.07-.08-.04-.02-.05-.01-.16-.07-.2-.1-.36-.25-.5-.41-.42-.53-.53-1.11-.58-1.64-.03-.27-.02-.53-.02-.77,0-.25,0-.49.02-.74.04-.98.13-1.96.22-2.93.15-1.46.3-2.9.37-4.34.06-1.34.01-2.68-.09-4.02-.04-.49-.09-.99-.15-1.48-.06-.48-.17-.72-.47-.98-.29-.25-.71-.44-1.17-.62l-1.41-.57c-1.87-.77-3.74-1.57-5.56-2.51-.44-.23-.87-.45-1.31-.69-.44-.23-.86-.48-1.29-.73-.43-.24-.83-.53-1.25-.8-1.51-1.05-2.93-2.24-4.21-3.58-.23-.24-.46-.48-.67-.73-.22-.26-.43-.49-.65-.76-.22-.28-.46-.61-.6-1.04-.14-.44-.14-.87-.11-1.22.01-.18.04-.36.05-.5.01-.14.03-.29.04-.44.02-.3.02-.62.03-.93,0-.63,0-1.27-.01-1.91,0-.73-.01-1.47-.02-2.2,0-.74,0-1.48.06-2.27.05-.46.15-.59.26-.39.19.34.4.58.5,1.28.07.48.14.91.1,1.5-.06.85.08,1.74-.06,2.59-.02.12-.01.29,0,.43.05.63.08,1.26.06,1.9,0,.65-.17,1.28-.04,1.8.13.51.58.98.97,1.46.2.24.4.48.62.7.22.22.42.46.65.68.58.57,1.22,1.09,1.86,1.59l.63.48c.21.16.43.31.64.47.31.23.63.45.95.66.32.22.64.43.98.62.5.3,1.02.53,1.4.92.08.08.36.22.47.24.43.08.84.31,1.27.53,1.16.59,2.33,1.16,3.52,1.68.89.39,1.78.73,2.69,1.08.36.14.72.31,1.06.56.34.24.65.63.78,1.06.13.43.15.8.21,1.17.05.38.09.75.12,1.13.11,1.26.12,2.54.07,3.81-.01.29,0,.59-.02.88-.03.54-.05,1.1-.15,1.6-.11.55-.16.98-.09,1.5.04.29,0,.74-.05,1.11-.05.47-.13.93-.19,1.39-.08.55-.15,1.07-.05,1.65.05.32.05.71.09,1.02.05.38.19.71.42.85,0,.02.12.05.19.08.07.03.17.06.24.09.15.07.28.15.38.26.1.11.17.28.15.43,0,.07-.03.14-.06.19-.01.02-.03.04-.04.04,0,0-.01,0-.02-.02,0,0,0-.01,0-.02h0s0-.02,0-.02h0s0,0,0,0h0s-.14,0-.14,0c.01.32.08.63.19.95.11.32.26.67.35,1.07.08.3.11.63.09.96,0,.21-.04.45-.14.64-.1.2-.28.35-.49.42-.1.04-.22.06-.33.08l-.24.04-.42.06c-.28.04-.56.07-.85.1-1.13.12-2.27.17-3.41.14-.89-.02-1.79-.11-2.68-.24-.17-.02-.35-.05-.52-.08l-.29-.05c-.16-.03-.32-.07-.45-.14-.28-.14-.5-.39-.58-.7-.04-.15-.06-.31-.06-.48v-.3c.02-.71.07-1.34-.09-1.78-.08-.22-.19-.38-.4-.59-.2-.2-.47-.42-.75-.7-.28-.28-.55-.68-.69-1.08-.14-.4-.2-.81-.21-1.19-.02-.6.06-1.17.09-1.69.06-1.21.18-2.4.31-3.61.16-1.45.19-2.89.19-4.34,0-.34-.02-.68,0-1.01.02-.29.04-.59.01-.74-.01-.08-.03-.12-.05-.16-.02-.04-.07-.09-.14-.15-.14-.12-.42-.27-.66-.41-.24-.14-.48-.29-.74-.41-1-.53-2.04-.99-3.09-1.44-1.7-.74-3.46-1.45-5.17-2.3-1.32-.65-2.61-1.41-3.79-2.32-.08-.06-.17-.11-.24-.17-.65-.55-.74-.85-.26-.82.42.03.92.25,1.52.65.33.23.68.43,1.02.65.35.2.7.41,1.06.59l.02-.03Z"/>
      <path class="cls-1" d="M41.24,36.27c.31.39.68.74,1,1.13.29.34.6.66,1.01.87.11.05.2.14.3.21.18.13.37.26.55.38.09.06.2.08.27.14.34.32.72.6,1.16.77.25.29.6.41.93.56.33.16.64.37,1,.47.09.03.19.08.27.14.46.38.99.64,1.52.91.57.3,1.11.64,1.6,1.05.26.22.57.39.86.58.35.22.72.4,1.07.62.25.16.51.31.77.46.26.16.52.3.79.44.71.38,1.41.81,2.07,1.3.33.25.63.56.92.85.59.59,1.13,1.22,1.69,1.83.42.46.85.91,1.28,1.35l.15.15s.11.11.12.12l.13.1s.04.04.06.03l.06-.06s.07-.08.11-.11l.11-.1.13-.1c.09-.07.17-.14.26-.21.18-.13.36-.26.54-.39.37-.25.75-.48,1.13-.7.77-.43,1.55-.81,2.34-1.17l1.12-.53c.19-.09.38-.17.57-.24l2.13-.84,3.02-1.25c.57-.23,1.15-.45,1.69-.77.15-.09.23-.05.22.11,0,.27.01.55-.21.8-.15.17-.29.31-.53.38-.35.09-.66.34-1.05.34-.05,0-.12.03-.17.07-.92.57-1.94.9-2.93,1.29-.32.13-.64.29-.96.43-.21.09-.42.18-.63.26-.31.12-.62.23-.92.37-.23.1-.43.24-.69.19-.06-.01-.17.05-.2.1-.11.19-.3.26-.49.34-.51.21-1.02.41-1.51.66-.36.18-.71.39-1.04.62-.25.18-.5.37-.74.57-.12.1-.24.2-.35.3l-.17.15-.09.08-.14.13-.49.45-.13.11-.06.06s-.02.03-.03.02l-.03-.03-.23-.24-.46-.48-.18-.18-.14-.14c-.09-.09-.19-.16-.28-.24-.16-.16-.34-.31-.45-.5-.12-.21-.24-.35-.48-.42-.13-.04-.26-.18-.36-.3-.13-.15-.23-.33-.34-.5-.13-.2-.24-.4-.49-.51-.13-.06-.25-.21-.33-.34-.39-.57-.91-1.03-1.47-1.43-.75-.55-1.55-1.03-2.34-1.51-.32-.18-.63-.38-.94-.57-.98-.58-1.94-1.2-2.92-1.8-.19-.12-.38-.25-.59-.33-.48-.2-.92-.47-1.34-.77-.51-.35-1.07-.63-1.63-.9-.13-.07-.27-.12-.39-.2-.82-.58-1.72-1.04-2.53-1.65-.32-.26-.63-.52-.94-.8l-.88-.86c-.43-.47-.85-.94-1.23-1.45-.03-.03-.06-.06-.09-.09-.22-.29-.16-.49.16-.54.28-.05.54.02.74.25.22.26.46.51.7.75l.03-.02Z"/>
      <path class="cls-1" d="M39.6,43.17c.42.37.86.73,1.27,1.12.36.34.72.69,1.18.9.12.06.23.15.34.23.21.14.41.28.62.41.1.06.22.08.3.16.38.36.8.66,1.28.86.28.31.66.46,1.02.64.36.18.7.42,1.09.55.1.03.21.09.29.16.51.42,1.09.71,1.67,1.01.63.32,1.23.67,1.8,1.09.31.22.66.39,1,.56.41.2.83.37,1.25.56.6.27,1.21.53,1.83.75.84.29,1.67.62,2.48,1.01.41.2.8.46,1.18.73.77.52,1.5,1.1,2.2,1.71.26.23.53.48.77.66.12.09.24.16.35.2.12.04.18.05.25.03.07-.02.1-.04.2-.14l.33-.34c.23-.24.47-.46.72-.68,1.49-1.27,3.21-2.23,4.94-3.05.42-.2.83-.4,1.25-.6.21-.1.42-.18.64-.26l2.38-.88,1.69-.65.84-.33.42-.16c.14-.05.26-.11.48-.17.31-.09.66-.09.95.05.07.03.14.08.21.12.07.04.14.11.17.14l.21.18c.26.23.52.44.8.64.16.11.16.2,0,.26-.26.1-.5.23-.85.12-.23-.07-.44-.16-.62-.37-.15-.17-.25-.25-.39-.28-.14-.02-.26.01-.48.02-.06,0-.13.04-.19.07-1.04.58-2.17.93-3.28,1.34-.36.13-.71.3-1.07.45-.23.1-.46.19-.7.28-.34.13-.69.24-1.02.39-.25.11-.48.26-.76.22-.06,0-.19.06-.22.11-.12.2-.33.28-.54.37-.56.25-1.11.49-1.65.78-.4.21-.77.46-1.14.72-.56.41-1.07.87-1.57,1.33-.21.2-.42.39-.61.59l-.31.31c-.11.12-.34.3-.58.36-.11.03-.23.06-.35.06-.12,0-.25,0-.34-.03-.38-.1-.67-.27-.85-.47-.2-.23-.33-.37-.59-.42-.14-.03-.29-.17-.42-.28-.16-.14-.3-.32-.44-.48-.18-.19-.34-.39-.62-.47-.15-.04-.31-.18-.43-.3-.55-.53-1.21-.91-1.9-1.23-.93-.45-1.9-.84-2.86-1.24-.38-.16-.75-.33-1.12-.5-1.16-.53-2.31-1.13-3.42-1.79-.22-.13-.44-.26-.67-.36-.53-.23-1.02-.53-1.49-.86-.57-.4-1.18-.72-1.79-1.04-.14-.08-.29-.14-.42-.23-.89-.66-1.87-1.16-2.76-1.81-.72-.52-1.41-1.09-2.1-1.64-.53-.43-1.05-.88-1.57-1.32-.03-.03-.08-.05-.11-.08-.29-.26-.29-.47.01-.58.27-.1.56-.06.84.14.31.23.61.47.92.7l.02-.03Z"/>
      <path class="cls-1" d="M76.81,43.92c.23.07.47.12.71.2.21.08.42.15.63.06.06-.02.12,0,.17,0,.11,0,.21,0,.32-.02.05,0,.1-.06.14-.04.22.07.45.08.66-.03.18.1.34,0,.51-.06.17-.05.34-.05.5-.16.04-.03.09-.05.14-.04.29.06.56-.03.83-.1.14-.04.3-.08.5-.07.19,0,.41.09.53.24.13.15.25.27.37.38.14.14.3.25.45.39.21.2.43.38.68.54.34.21.65.45.95.72.07.07.14.15.19.23l.08.13.04.06.07.1c.09.14.16.28.23.41.05.13.06.3,0,.43-.05.13-.15.26-.25.38l-.24.28c-.19.22-.36.46-.53.71-.15.23-.28.47-.43.71l-1.35,2.04c-.11.16-.2.34-.31.5-.05.08-.11.16-.18.24-.24.29-.53.61-.92.89l-.07.05-.09.06c-.06.04-.13.07-.2.1-.14.06-.28.09-.43.1-.34.03-.75-.17-.85-.23l-.49-.24c-.26-.13-.52-.27-.82-.33-.08-.01-.08-.09,0-.2.15-.2.3-.42.49-.49.13-.05.24-.08.33,0,.13.12.35.09.44.3.01.03.05.04.08.04.16.02.31.06.45.11.07.03.12.04.17.06.05.01.1.03.15.03.14,0,.26-.06.42-.19.12-.09.21-.23.31-.35l.2-.24c.1-.12.21-.23.3-.36.06-.1.1-.22.28-.21.04,0,.07-.05.05-.09-.06-.15.01-.22.08-.29.17-.2.35-.4.5-.61.12-.16.22-.32.31-.5.14-.27.26-.56.41-.83.12-.22.27-.43.4-.65.03-.05.04-.11.08-.16.06-.09.1-.2.2-.25.11-.06.17-.12.14-.28-.02-.09.04-.16.1-.21l.03-.02h.01s.03,0,.03,0c.02,0,.05,0,.08,0,.07,0,.17-.04.06-.07-.06-.01-.04-.03-.02-.06.02-.03.03-.07.02-.1-.03-.06-.07-.14-.12-.21-.09-.13-.2-.25-.32-.37-.32-.31-.67-.58-1.01-.86-.13-.11-.25-.23-.38-.35-.1-.09-.19-.18-.29-.27l-.25-.24c-.06-.06-.05-.05-.07-.07,0-.01-.08-.02-.18-.02-.08,0-.2.02-.3.06-.24.11-.49.14-.75.13-.31,0-.6.08-.9.17-.07.02-.14.06-.21.05-.49-.02-.97.13-1.46.12-.39-.01-.79-.08-1.18-.16-.3-.06-.6-.13-.89-.21-.02,0-.04,0-.06,0-.17-.05-.2-.23-.1-.49.09-.23.21-.36.35-.35.16.01.32.05.49.07v-.04Z"/>
      <path class="cls-1" d="M78.92,50.39c.09-.03.16-.07.27-.09.1-.02.19-.03.15-.13-.01-.03.02-.03.02-.05.01-.03.03-.05.04-.08,0-.01-.03-.05-.01-.05.1-.01.16-.05.11-.16.12.02.08-.07.08-.13,0-.06.04-.09,0-.18-.01-.02-.01-.04,0-.04.12-.02.14-.1.16-.19.03-.09.1-.14.24-.16.07,0,.1-.05.12-.09.03-.05.04-.11.06-.16.04-.08.06-.16.04-.27-.02-.15-.03-.29-.01-.42,0-.06.07-.09.12-.13.1-.07.21-.13.3-.2.07-.06.11-.13.15-.21.04-.07.05-.17.09-.24.1-.22.22-.44.33-.66.03-.05.04-.12.07-.17.01-.03.03-.05.05-.07.08-.07.17-.14.25-.21.06-.06.11-.12.17-.18l.65,1.14h-.05s-.06.02-.02.09c.01.02-.03-.03-.13-.14-.16-.19-.33-.39-.38-.53-.04-.1-.05-.18,0-.17.08.01.09-.12.2,0,.02.02.02,0,.03,0,.03-.08.09-.12.15-.15l.65-.24-.42.66c-.05.08-.14.12-.22.18-.04.03-.05.08-.07.12-.02.03-.04.05-.06.07-.03.03-.08.05-.1.09-.02.03,0,.09-.13.01-.03-.02-.03,0-.01.03.09.11.06.12.04.14-.06.05-.12.09-.17.15-.03.04-.05.1-.06.16-.02.1,0,.21-.02.31-.01.08-.05.14-.08.21,0,.02,0,.05,0,.06-.01.03,0,.07-.06.07-.06,0-.08,0,0,.1.04.05.02.07,0,.08-.03.01-.08,0-.13,0-.06,0-.13-.02-.07.06.03.04-.01.05-.05.04-.17-.01-.22.07-.24.17-.03.13-.04.28-.06.42,0,.05-.03.1-.05.14-.06.14-.18.25-.29.35-.02.02-.05.04-.04.08.01.09-.03.14-.11.17-.09.04-.09.14-.08.24,0,.02.02.05,0,.06-.13.07-.09.25-.18.35-.07.08-.19.14-.29.2-.08.05-.18.09-.26.13,0,0,0,.01,0,.02-.06.02-.22-.05-.44-.2-.2-.13-.31-.23-.28-.26.03-.04.07-.07.11-.11l-.03-.02Z"/>
      <path class="cls-1" d="M47.15,37.88c.34-.14.68-.3,1.03-.41.32-.1.63-.2.87-.43.06-.06.15-.09.23-.14.14-.08.28-.16.42-.25.06-.04.11-.12.17-.14.33-.09.64-.23.9-.46.29-.02.48-.21.7-.36.22-.15.48-.24.68-.43.05-.05.12-.09.2-.1.43-.09.81-.28,1.21-.46.42-.19.87-.32,1.33-.36.25-.02.49-.11.73-.18.28-.09.56-.21.84-.3.41-.13.81-.28,1.2-.47.26-.13.53-.25.79-.36l.4-.17.1-.04s.07-.03.07-.03l.05-.04s.06-.03.1-.03c0-.03,0-.06,0-.1v-.07s0-.05,0-.09c0-.04,0-.08-.01-.12-.01-.15-.03-.31-.03-.46-.02-.31-.02-.61-.03-.92l-.03-1.36c0-.42-.04-.84-.03-1.26.03-1.25.11-2.47.16-3.7.01-.3.01-.59.02-.89,0-.15.02-.29.04-.44.06-.54.14-1.09.19-1.63l.23-2.34c.05-.44.11-.88.07-1.33-.01-.13.06-.16.2-.1.24.1.49.19.62.42.09.15.15.29.1.47-.08.25.01.54-.16.78-.02.03-.02.09-.02.13.1.78-.06,1.53-.15,2.3-.03.25-.03.5-.04.75-.01.16-.02.32-.04.49-.03.24-.07.47-.08.7,0,.18.02.35-.14.5-.03.03-.03.12,0,.16.12.14.1.28.08.43-.05.39-.11.79-.14,1.18-.03.29-.03.59-.02.88,0,.46.05.91.07,1.36.01.38,0,.75.02,1.13,0,.09.03.17.03.26,0,.16.04.32,0,.47-.05.16-.06.29.07.44.07.08.07.21.07.32,0,.14-.04.28-.07.42-.03.17-.08.33.04.49.06.09.05.22.04.33,0,.17.02.4.04.58l.04.28.02.14v.07s.02.03.02.03h-.04c-.19.05-.38.1-.56.16l-.28.08c-.09.03-.2.06-.25.08-.64.22-1.27.47-1.9.71-.25.09-.5.17-.75.26-.78.26-1.56.48-2.33.72-.15.05-.31.09-.44.17-.31.19-.65.31-1,.42-.42.13-.79.36-1.15.6-.08.06-.16.13-.26.16-.65.25-1.2.7-1.82,1.03-.5.27-1.02.5-1.54.74l-1.21.56s-.05.04-.07.05c-.23.1-.39,0-.44-.3-.04-.26.03-.46.22-.58.22-.13.44-.25.66-.37l-.02-.03Z"/>
      <path class="cls-1" d="M52.82,42.17c.37-.18.75-.37,1.13-.53.34-.15.68-.29.93-.58.07-.07.16-.12.24-.18.15-.11.29-.22.44-.33.06-.05.11-.14.18-.18.35-.16.67-.36.93-.66.31-.08.49-.32.71-.53.22-.2.48-.36.67-.6.05-.06.12-.12.19-.16.45-.2.83-.5,1.22-.79.42-.31.88-.56,1.38-.73.27-.09.51-.24.76-.37.29-.16.58-.35.88-.5.44-.23.87-.45,1.3-.7.29-.18.57-.32.76-.49.09-.08.16-.18.17-.23.01-.05,0-.11-.01-.15-.01-.04-.06-.2-.1-.38-.03-.17-.07-.34-.1-.51-.12-.68-.18-1.37-.23-2.06-.03-.51-.08-1.03-.11-1.54-.03-.48-.07-.96-.08-1.43-.02-1.42.08-2.82.19-4.22l.06-1c.01-.17.03-.33.05-.5l.26-1.84.16-1.32.04-.33c.01-.11.02-.21.05-.36.01-.06.03-.18.07-.28.03-.1.08-.2.13-.29.11-.18.27-.33.45-.44.1-.06.23-.11.3-.14l.19-.07.35-.13c.23-.09.47-.19.69-.31.12-.07.19-.02.19.13,0,.26.02.53-.16.75-.12.15-.24.27-.44.31-.15.02-.28.09-.42.15-.15.06-.21.07-.36.1-.04,0-.07.05-.08.09-.03.09-.03.16-.03.26v.31c-.02.22-.04.43-.07.65-.05.43-.13.86-.19,1.29-.04.28-.05.57-.07.85-.02.18-.04.37-.06.55-.04.27-.09.53-.11.8-.01.2,0,.4-.16.57-.04.03-.04.14,0,.18.12.16.09.32.06.49-.06.45-.13.89-.17,1.34-.03.33-.04.66-.03,1,.01.51.06,1.03.1,1.53.03.42.03.85.07,1.27,0,.1.04.19.04.29.02.18.06.36.02.53-.04.19-.04.34.1.49.08.09.08.24.09.36,0,.16-.02.32-.05.48-.02.19-.05.38.07.56.07.1.07.25.06.37-.02.28.02.55.08.82.02.13.08.27.11.46.04.21.02.45-.07.65-.12.3-.33.49-.52.64-.2.15-.39.25-.58.35-.2.09-.35.17-.52.26-.17.08-.33.17-.5.26l-.78.4c-.8.43-1.61.86-2.41,1.32-.16.09-.32.18-.45.3-.31.28-.66.5-1.02.7-.44.24-.81.58-1.18.91-.09.08-.16.17-.26.23-.69.42-1.26,1-1.93,1.45-.54.37-1.12.69-1.7,1-.45.24-.9.47-1.35.7-.03.02-.05.04-.08.06-.26.13-.43.03-.46-.28-.03-.27.05-.49.27-.62.24-.15.48-.29.73-.43l-.02-.03Z"/>
      <path class="cls-1" d="M60.77,15.39c.17-.17.33-.36.51-.53.17-.15.33-.3.35-.53,0-.06.05-.11.07-.16.05-.1.09-.19.13-.29.02-.05,0-.11.03-.15.17-.16.28-.36.28-.6.17-.11.16-.3.19-.48.03-.17.11-.33.09-.52,0-.05,0-.1.03-.14.18-.23.24-.51.3-.78.03-.14.07-.31.17-.47.1-.17.27-.32.46-.36.19-.05.35-.1.51-.15.19-.06.37-.15.55-.21.27-.09.54-.2.8-.35.35-.2.71-.36,1.08-.5.09-.03.19-.05.29-.06h.15s.08-.02.08-.02h.12c.17-.03.32-.03.48-.03.14.02.29.09.38.2.09.11.16.25.22.4l.13.35c.11.27.24.54.38.8.13.24.29.47.42.71l1.17,2.15c.09.17.2.34.3.51.05.09.09.17.13.27.14.35.29.76.36,1.23v.08s.02.11.02.11c0,.07,0,.15,0,.22-.01.15-.05.29-.11.43-.13.31-.5.58-.6.65l-.44.32c-.24.17-.49.33-.67.57-.05.07-.11.03-.18-.1-.11-.23-.23-.46-.2-.67.02-.14.04-.25.16-.29.17-.06.25-.26.47-.24.03,0,.06-.02.07-.05.09-.13.19-.24.31-.34.06-.05.1-.09.13-.12.04-.03.07-.07.09-.12.07-.13.07-.25.03-.46-.03-.15-.1-.29-.16-.44l-.12-.29c-.06-.14-.1-.29-.18-.43-.06-.1-.15-.19-.06-.35.02-.03-.01-.09-.06-.09-.16-.02-.19-.11-.22-.2-.1-.24-.19-.49-.3-.73-.08-.18-.18-.34-.3-.51-.17-.25-.37-.49-.54-.75-.14-.21-.25-.44-.38-.66-.03-.05-.08-.09-.11-.14-.05-.09-.13-.18-.13-.3,0-.12-.03-.21-.18-.25-.09-.02-.12-.11-.14-.18v-.04s0,0,0,0l.02-.02s.03-.04.04-.07c.03-.06.05-.17-.04-.08-.04.05-.04.02-.06,0-.02-.03-.05-.06-.08-.07-.07,0-.16,0-.24,0-.16.02-.32.06-.47.11-.42.14-.83.32-1.24.49-.16.07-.32.12-.48.18-.13.04-.25.09-.38.13l-.33.1c-.08.03-.07.02-.1.03-.01,0-.06.06-.1.15-.03.07-.08.18-.09.3-.02.26-.11.5-.24.72-.15.27-.21.57-.27.87-.02.07-.02.15-.05.21-.25.42-.34.92-.58,1.34-.2.34-.44.66-.69.97-.19.24-.4.46-.6.69-.01.01-.01.04-.03.05-.12.12-.3.07-.48-.14-.16-.19-.22-.35-.14-.48.09-.14.19-.26.29-.4l-.03-.02Z"/>
      <path class="cls-1" d="M67.49,16.58c.02-.09.02-.16.05-.26.03-.09.07-.18-.03-.18-.03,0-.02-.03-.03-.04-.02-.02-.03-.05-.05-.07,0,0-.06,0-.05-.01.04-.09.03-.15-.08-.16.07-.1-.02-.09-.07-.12-.05-.02-.06-.07-.16-.07-.03,0-.04,0-.03-.02.04-.11-.02-.16-.08-.21-.06-.06-.08-.14-.02-.26.03-.06,0-.1-.02-.14-.03-.04-.08-.07-.11-.12-.05-.06-.11-.11-.22-.14-.14-.04-.26-.09-.36-.16-.05-.03-.04-.1-.05-.15-.01-.11,0-.23-.03-.33-.02-.08-.06-.15-.11-.21-.05-.06-.12-.11-.17-.17-.14-.18-.27-.36-.41-.54-.03-.04-.08-.08-.12-.12-.02-.02-.03-.05-.03-.07-.02-.1-.04-.2-.07-.29-.04-.14-.1-.26-.13-.4-.02-.08-.03-.16-.13-.21-.03-.01.03-.04.17-.08.24-.07.49-.14.64-.15.1,0,.18-.01.16.03-.04.06.09.07-.04.16-.02.01,0,.02,0,.02.2.07.16.22.19.35,0,.04.05.07.07.11.01.02.03.05.03.08.01.04,0,.09.03.12.02.03.07.03-.05.12-.03.02-.01.03.02.02.13-.03.13,0,.14.02.02.07.02.14.05.2.02.05.06.08.11.12.08.05.18.09.25.14.06.04.09.1.15.15.01.01.04.01.05.02.02.02.06.03.03.08-.04.05-.04.07.08.05.07-.02.07,0,.07.03,0,.03-.03.07-.07.11-.04.05-.08.1.02.09.05,0,.03.03.01.06-.09.14-.04.21.03.27.1.08.22.15.33.22.04.03.07.07.09.1.09.11.12.25.16.39,0,.03,0,.06.05.07.08.02.1.09.1.16,0,.09.07.13.16.17.02,0,.05,0,.05.03,0,.14.17.18.21.29.03.09.02.21.02.33,0,.09-.01.18-.02.28,0,0,.01,0,.01.01,0,.06-.15.17-.39.3-.21.12-.34.17-.36.13-.02-.04-.03-.09-.04-.13l-.03.02Z"/>
      <path class="cls-1" d="M34.66,10.91c.1-.15.21-.28.35-.38.14-.08.26-.14.28-.29,0-.04.05-.06.07-.08.04-.05.09-.09.14-.14.02-.02.01-.08.05-.09.16-.02.28-.07.36-.21.14.05.2-.05.3-.12.1-.06.21-.07.31-.17.03-.03.06-.04.09-.03.19.08.36.05.55.06.2.01.39.1.51.29.06.09.15.14.23.2.1.07.21.12.3.2.13.12.26.24.42.36.21.17.38.4.48.67.05.14.02.29,0,.43-.05.28-.17.54-.3.78-.1.18-.2.35-.31.52-.11.15-.22.32-.37.45-.44.39-1.07.6-1.69.55-.15,0-.31-.02-.46-.05-.08-.02-.15-.04-.22-.08-.26-.13-.48-.31-.68-.52-.28-.29-.5-.64-.62-1.03-.06-.22-.08-.44-.17-.67-.03-.07.04-.09.19-.06.25.04.51.06.66.12.1.04.19.07.16.13-.04.1.09.15-.02.27-.02.02,0,.03.01.04.24.17.3.4.48.59.06.06.14.09.21.12.05.02.09.05.14.08.06.04.13.09.2.1.06.01.12-.03.14.13,0,.03.04.03.06,0,.07-.13.11-.1.15-.1.12.02.26.04.38.02.09-.01.18-.06.26-.12.12-.09.2-.23.27-.34.06-.09.13-.17.18-.26.01-.02,0-.06.01-.08.02-.04.02-.09.08-.1.07,0,.1-.04,0-.13-.05-.05-.03-.07-.01-.09.02-.03.08-.04.14-.06.06-.03.13-.06.05-.12-.04-.03-.01-.06.03-.09.16-.12.14-.28.07-.41-.09-.18-.24-.31-.38-.4-.05-.04-.1-.08-.15-.12-.16-.11-.3-.24-.48-.33-.04-.02-.07-.04-.12-.02-.1.04-.17.03-.27,0-.11-.04-.22.03-.29.12-.02.02-.03.05-.05.05-.18,0-.25.21-.36.3-.1.08-.22.15-.33.27-.08.09-.17.19-.23.31,0,0,0,.02,0,.03-.04.07-.22.1-.49.05-.24-.04-.37-.13-.36-.23.02-.11.06-.22.11-.33h-.04Z"/>
      <path class="cls-1" d="M49.01,10.49c.08-.08.16-.15.28-.19.11-.03.2-.03.18-.14,0-.03.02-.03.04-.05.02-.03.05-.05.07-.08,0-.01,0-.06.01-.06.11.02.18,0,.2-.11.1.08.12-.02.17-.07.05-.05.11-.04.17-.14.01-.03.03-.04.05-.02.11.09.2.06.32.05.12,0,.23.06.27.21.02.07.07.1.11.13.05.04.12.05.17.09.08.06.15.12.28.17.16.07.3.21.38.37.04.08.01.18-.01.26-.04.17-.14.32-.23.46-.06.11-.12.21-.18.31-.06.1-.11.21-.2.3-.26.26-.64.41-1.04.4-.1,0-.2,0-.3-.01-.05,0-.1-.03-.14-.05-.16-.09-.3-.21-.43-.35-.18-.19-.32-.41-.39-.66-.04-.14-.04-.28-.13-.43-.02-.04.04-.05.19-.04.25.02.51.03.66.06.1.02.18.02.15.05-.05.05.07.05-.06.13-.02.01,0,.02,0,.02.2.04.17.15.24.24.02.03.07.03.1.04.02,0,.04.02.06.03.03.02.05.05.08.05.03,0,.06-.04.05.11,0,.03.02.03.03,0,.04-.13.05-.11.07-.11.05.01.11.04.16.03.04,0,.08-.04.1-.08.04-.07.04-.16.05-.22,0-.05.02-.08.02-.12,0,0-.02-.03-.02-.04,0-.01-.02-.04.03-.02.05.02.07,0-.04-.05-.06-.03-.05-.03-.04-.04.02,0,.06,0,.11.01.05,0,.12,0,.03-.03-.05-.02-.02-.02.02-.02.15-.02.13-.1.09-.13-.07-.05-.16-.07-.23-.06-.03,0-.04,0-.05,0-.05,0-.05-.05-.09-.1,0-.01-.01-.03-.03,0-.03.06-.04.04-.06,0-.03-.05-.06,0-.05.07,0,.01,0,.04,0,.03-.06-.05-.02.07-.04.06-.03,0-.1-.02-.17,0-.05,0-.12.03-.18.07,0,0,0,0,0,0-.04.02-.22.04-.49.02-.24-.02-.38-.08-.36-.14.01-.07.05-.13.08-.19h-.04Z"/>
      <path class="cls-1" d="M45.93,39.88c.05-.19.09-.37.14-.56.05-.17.1-.34,0-.49-.03-.04-.02-.09-.02-.13-.01-.08-.03-.16-.06-.24-.01-.03-.07-.06-.06-.1.04-.18.01-.35-.12-.49.08-.16-.06-.26-.14-.37-.08-.11-.11-.25-.23-.33-.03-.02-.05-.06-.06-.09,0-.23-.13-.41-.25-.59-.13-.19-.22-.4-.24-.66-.01-.14-.08-.25-.15-.35-.08-.13-.19-.24-.28-.36-.13-.18-.27-.35-.46-.49-.25-.19-.47-.41-.68-.64-.11-.11-.15-.28-.21-.42l-.17-.44c-.05-.15-.1-.3-.15-.45-.08-.22-.2-.43-.29-.65-.09-.2-.21-.39-.31-.6-.25-.61-.48-1.24-.64-1.88-.04-.15-.1-.3-.15-.46-.02-.08-.04-.16-.04-.23-.02-.29-.02-.59-.05-.88-.05-.42-.05-.83-.06-1.25,0-.24,0-.47-.08-.7-.02-.07.04-.09.19-.06.25.04.51.07.66.18.1.07.18.14.15.23-.05.13.07.27-.07.4-.02.02-.01.05,0,.07.09.19.12.39.12.58,0,.19.01.39.02.59,0,.13.05.25.07.38.01.08.02.16.03.25,0,.12,0,.24.03.36.03.09.09.17-.04.27-.03.02-.01.07.03.08.15.04.14.11.15.19.03.2.03.41.09.6.04.14.1.28.17.42.11.21.23.41.36.6.1.16.17.34.26.51.02.04.06.07.08.11.03.07.1.13.09.22-.01.1,0,.16.15.18.08.01.1.08.11.13.02.07,0,.16,0,.24-.02.1-.03.2.1.24.07.02.07.09.07.16-.01.28.12.5.29.7.22.27.47.52.71.78.09.1.17.21.25.33.13.18.24.36.35.55.1.2.2.4.29.6.04.08.07.16.13.23.14.15.22.34.27.54.05.25.18.46.32.67.03.05.08.09.09.15.02.2.08.39.15.58.07.19.15.38.16.58.01.16.02.32.01.48,0,.16-.01.32-.04.48-.03.24-.09.49-.13.72,0,.02,0,.03,0,.05-.03.14-.21.18-.48.11-.24-.05-.38-.13-.38-.25,0-.12.01-.25.02-.37h-.04Z"/>
      <path class="cls-1" d="M40.97,88.01c-.11-.05-.22-.09-.33-.17-.1-.07-.2-.14-.29-.05-.02.02-.05,0-.08,0-.05,0-.09,0-.14.02-.02,0-.04.06-.06.04-.1-.08-.2-.09-.3,0-.08-.11-.16-.02-.23.02-.08.04-.16.02-.23.11-.02.02-.04.03-.06.02-.13-.09-.25-.05-.38-.01-.13.03-.27.01-.41-.09-.07-.05-.15-.04-.22-.04-.09,0-.17.04-.26.06-.13.02-.25.06-.37.15-.16.12-.33.21-.49.28-.08.04-.17,0-.26,0-.18-.02-.35-.07-.53-.08-.13,0-.26,0-.39.03-.12.02-.24.08-.36.11-.36.08-.72.15-1.08.23-.09.02-.17.05-.26.08-.04.01-.09.01-.13.01-.16,0-.32-.02-.49-.01-.23,0-.46.03-.69.03-.13,0-.26,0-.39.08-.04.02-.05-.04-.05-.19,0-.25.01-.51.06-.66.04-.1.07-.18.13-.15.08.05.15-.07.24.07.01.02.03.01.04,0,.21-.18.45-.11.67-.1.07,0,.15-.03.22-.04.05,0,.1-.01.14-.01.07,0,.14.02.21,0,.05-.01.1-.06.16.08.01.03.04.02.05-.02.03-.14.07-.13.12-.12.12,0,.24.02.35.01.09,0,.17-.03.26-.07.13-.06.26-.15.39-.2.11-.05.22-.06.33-.09.03,0,.05-.04.08-.04.05,0,.1-.05.14,0,.05.05.09.06.13-.07.02-.07.06-.06.1-.06.04.01.09.06.13.1.05.05.1.11.15.01.03-.05.07-.02.1,0,.15.14.3.11.45.07.2-.07.39-.16.59-.23.08-.03.16-.04.23-.05.24-.04.49-.02.74,0,.05,0,.1.01.14-.01.11-.07.21-.06.33-.02.13.04.26-.02.39-.08.03-.01.06-.05.09-.04.21.06.42-.08.63-.07.17.01.34.07.52.12.13.04.27.09.4.14,0,0,.02,0,.03,0,.08.03.11.21.09.48-.02.24-.06.38-.12.38-.07,0-.15-.02-.22-.03,0,.01,0,.02,0,.04Z"/>
      <path class="cls-1" d="M65.14,88.07c-.11-.05-.22-.09-.33-.17-.1-.07-.2-.14-.29-.05-.02.02-.05,0-.08,0-.05,0-.09,0-.14.02-.02,0-.04.06-.06.04-.1-.08-.2-.09-.3,0-.08-.11-.16-.02-.23.02-.08.04-.16.02-.23.11-.02.02-.04.03-.06.02-.13-.09-.25-.05-.38-.01-.13.03-.27.01-.41-.09-.07-.05-.15-.04-.22-.04-.09,0-.17.04-.26.06-.13.02-.25.06-.37.15-.16.12-.33.21-.49.28-.08.04-.17,0-.26,0-.18-.02-.35-.07-.53-.08-.13,0-.26,0-.39.03-.12.02-.24.08-.36.11-.36.08-.72.15-1.08.23-.09.02-.17.05-.26.08-.04.01-.09.01-.13.01-.16,0-.32-.02-.49-.01-.23,0-.46.03-.69.03-.13,0-.26,0-.39.08-.04.02-.05-.04-.05-.19,0-.25.01-.51.06-.66.04-.1.07-.18.13-.15.08.05.15-.07.24.07.01.02.03.01.04,0,.21-.18.45-.11.67-.1.07,0,.15-.03.22-.04.05,0,.1-.01.14-.01.07,0,.14.02.21,0,.05-.01.1-.06.16.08.01.03.04.02.05-.02.03-.14.07-.13.12-.12.12,0,.24.02.35.01.09,0,.17-.03.26-.07.13-.06.26-.15.39-.2.11-.05.22-.06.33-.09.03,0,.05-.04.08-.04.05,0,.1-.05.14,0,.05.05.09.06.13-.07.02-.07.06-.06.1-.06.04.01.09.06.13.1.05.05.1.11.15.01.03-.05.07-.02.1,0,.15.14.3.11.45.07.2-.07.39-.16.59-.23.08-.03.16-.04.23-.05.24-.04.49-.02.74,0,.05,0,.1.01.14-.01.11-.07.21-.06.33-.02.13.04.26-.02.39-.08.03-.01.06-.05.09-.04.21.06.42-.08.63-.07.17.01.34.07.52.12.13.04.27.09.4.14,0,0,.02,0,.03,0,.08.03.11.21.09.48-.02.24-.06.38-.12.38-.07,0-.15-.02-.22-.03,0,.01,0,.02,0,.04Z"/>
      <path class="cls-1" d="M2.57,84.13c.03.09.08.17.1.28.02.1.04.2.15.16.03-.01.03.02.05.03.03.02.06.03.09.04.02,0,.05-.03.06-.01.02.11.08.16.18.11,0,.13.09.08.15.07.07,0,.11.04.19-.02.02-.02.04-.02.05,0,.04.13.14.13.23.14.1.01.17.08.23.21.03.07.08.09.13.1.06.02.13.01.19.02.09.02.19.01.3-.04.15-.06.29-.12.41-.14.07-.01.11.04.17.07.11.06.22.15.33.2.09.03.18.04.27.04.09,0,.18-.03.27-.04.26-.02.51-.04.77-.08.06,0,.12-.04.18-.05.03,0,.06,0,.09,0,.11.02.22.04.33.05.16,0,.32,0,.48,0,.09,0,.18.02.26-.07.02-.02.04.04.04.19,0,.25,0,.51-.03.66-.03.1-.05.18-.09.15-.06-.05-.12.07-.18-.08,0-.02-.02-.01-.03,0-.16.17-.34.09-.51.06-.06,0-.11.02-.17.02-.04,0-.07,0-.11,0-.05,0-.1-.03-.16-.03-.04,0-.08.05-.11-.1,0-.03-.03-.03-.04,0-.04.13-.07.12-.1.11-.09-.02-.17-.05-.26-.06-.07,0-.13,0-.2.03-.11.04-.22.1-.33.13-.09.02-.18.02-.27.03-.02,0-.05.03-.07.03-.04,0-.08.02-.11-.03-.03-.06-.05-.08-.11.04-.03.06-.06.05-.09.03-.03-.02-.05-.08-.07-.13-.03-.06-.05-.13-.11-.05-.03.04-.06,0-.07-.03-.08-.17-.18-.18-.31-.18-.16.01-.33.04-.5.05-.07,0-.13-.01-.19-.02-.19-.04-.36-.13-.52-.25-.03-.02-.06-.05-.11-.04-.1.02-.18-.02-.24-.1-.07-.09-.19-.09-.3-.08-.03,0-.06.02-.08,0-.11-.14-.32-.1-.45-.21-.11-.09-.19-.21-.27-.33-.06-.09-.12-.2-.17-.3,0,0-.02,0-.02,0-.03-.06.05-.22.22-.43.15-.19.25-.29.29-.26.04.03.07.08.11.12l.02-.03Z"/>
      <path class="cls-1" d="M.55,84.93c.07.09.15.15.22.26.06.1.12.19.23.14.03-.01.05.01.07.02.04.01.08.02.13.03.02,0,.05-.04.07-.02.06.1.14.15.25.08.04.13.12.07.2.05.08-.02.14.02.23-.04.02-.02.05-.02.06,0,.08.12.2.11.32.11.12,0,.23.06.33.19.05.07.12.08.18.09.08.02.16,0,.24,0,.11,0,.23,0,.36-.06.17-.08.33-.14.49-.17.08-.02.15.03.22.06.15.06.29.14.44.19.11.03.23.04.35.04.11,0,.22-.04.33-.04.33-.02.65-.03.97-.06.08,0,.16-.03.23-.04.04,0,.08,0,.11,0,.14.02.28.06.42.07.2.02.41.02.61.04.11,0,.23.03.35-.04.03-.02.04.05.03.19-.03.25-.05.51-.11.65-.04.1-.08.18-.13.14-.07-.06-.15.06-.21-.09,0-.02-.02-.02-.03,0-.21.16-.41.06-.62.03-.07-.01-.14.01-.2.01-.04,0-.09,0-.13,0-.06,0-.12-.04-.19-.03-.05,0-.1.05-.13-.1,0-.03-.03-.03-.04,0-.05.13-.08.11-.12.11-.11-.02-.21-.05-.32-.06-.08,0-.16,0-.24.03-.13.04-.26.1-.39.13-.11.03-.21.02-.32.03-.02,0-.05.03-.08.03-.04,0-.1.03-.13-.03-.04-.06-.07-.07-.13.04-.03.06-.07.05-.1.04-.04-.02-.07-.07-.1-.12-.04-.06-.07-.13-.13-.04-.03.04-.07,0-.09-.03-.11-.16-.24-.18-.38-.16-.19.03-.39.06-.58.09-.08,0-.15,0-.22,0-.23-.02-.44-.1-.65-.19-.04-.02-.08-.04-.13-.02-.11.04-.21,0-.29-.07-.11-.08-.23-.06-.36-.04-.03,0-.07.03-.09,0-.17-.12-.39-.05-.57-.13-.14-.07-.27-.18-.41-.28-.1-.08-.2-.18-.29-.26,0,0-.02,0-.02,0-.05-.06-.02-.23.09-.48.1-.22.18-.34.24-.32.06.02.12.06.18.1v-.04Z"/>
      <path class="cls-1" d="M1.43,87.03c.08.06.17.09.25.17.08.07.15.15.22.06.02-.02.04,0,.06,0,.04,0,.07,0,.11-.01.02,0,.03-.06.05-.04.08.08.15.1.22,0,.06.11.12.03.17-.01.06-.04.12-.02.17-.11.01-.02.03-.03.05-.02.1.09.19.05.29.03.1-.03.2,0,.31.1.06.05.11.05.17.05.07,0,.13-.04.2-.05.1-.02.19-.05.28-.13.12-.11.25-.2.38-.26.06-.03.13,0,.2.02.13.03.27.09.4.11.1.02.2,0,.3-.01.09-.02.18-.06.28-.08.27-.06.55-.11.83-.16.07-.01.13-.04.2-.06.03,0,.07,0,.1,0,.12.02.25.04.37.05.18.01.35,0,.53.02.1,0,.2.03.3-.05.03-.02.04.05.02.19-.03.25-.05.51-.1.65-.03.1-.07.18-.11.14-.06-.05-.12.06-.17-.09,0-.02-.02-.01-.03,0-.17.17-.34.07-.51.05-.06,0-.11.02-.17.03-.04,0-.07,0-.11,0-.05,0-.1-.03-.16-.02-.04,0-.08.06-.11-.09,0-.03-.03-.02-.04.01-.03.14-.06.12-.09.12-.09-.01-.18-.04-.26-.03-.07,0-.13.02-.2.05-.1.05-.2.13-.3.18-.08.04-.17.05-.25.07-.02,0-.04.04-.06.04-.04,0-.07.04-.11,0-.04-.05-.07-.06-.1.06-.02.07-.05.06-.07.05-.03-.01-.06-.06-.1-.11-.04-.05-.07-.11-.11-.02-.02.05-.05.02-.08-.01-.11-.14-.22-.13-.33-.09-.15.06-.3.14-.45.2-.06.02-.12.03-.18.04-.18.03-.37,0-.55-.03-.04,0-.07-.02-.11,0-.08.06-.16.05-.24.01-.1-.05-.2,0-.29.06-.02.01-.04.04-.07.03-.16-.06-.31.07-.47.05-.13-.01-.26-.08-.39-.13-.1-.04-.2-.1-.3-.15,0,0-.01,0-.02,0-.06-.04-.09-.21-.08-.48,0-.24.04-.38.09-.38.06,0,.11.02.17.03v-.04Z"/>
      <path class="cls-1" d="M2.42,89.17c.09.03.18.04.27.09.09.05.17.1.21,0,0-.03.03-.01.05-.02.03-.01.06-.02.09-.04.01,0,.01-.06.03-.05.09.06.16.05.2-.05.09.09.11,0,.15-.06.04-.05.1-.05.12-.15,0-.03.02-.04.04-.03.11.06.18,0,.26-.05.08-.05.18-.06.3.02.06.04.11.02.16,0,.06-.02.1-.07.16-.09.08-.04.15-.09.21-.2.08-.14.17-.25.27-.34.05-.05.12-.03.18-.03.13,0,.26.02.38.02.09,0,.18-.04.26-.08.08-.04.15-.1.23-.14.23-.12.47-.22.7-.34.06-.03.11-.07.17-.1.03-.02.06-.02.09-.02.11-.01.23-.01.34-.03.16-.02.32-.06.48-.08.09-.01.19,0,.26-.1.02-.03.04.04.06.18.03.25.06.5.04.66-.01.1-.02.18-.07.16-.06-.04-.09.08-.17-.06-.01-.02-.02-.01-.03,0-.12.2-.29.14-.44.15-.05,0-.09.04-.14.06-.03.01-.06.02-.1.02-.05,0-.1,0-.14.01-.03.02-.06.07-.12-.07-.01-.03-.03-.02-.03.02,0,.14-.03.13-.06.13-.08,0-.16,0-.24.02-.06.01-.11.05-.16.09-.08.07-.15.17-.22.24-.06.06-.14.08-.2.13-.02.01-.03.04-.04.05-.03.01-.05.05-.1.02-.05-.04-.07-.05-.07.08,0,.07-.03.07-.05.06-.03,0-.07-.04-.11-.08-.05-.04-.09-.09-.1,0,0,.05-.04.03-.07,0-.13-.11-.23-.07-.31,0-.12.09-.22.2-.33.3-.04.04-.09.06-.14.08-.15.08-.32.09-.48.1-.03,0-.07,0-.09.04-.05.08-.12.09-.21.07-.1-.02-.17.06-.23.14-.02.02-.03.05-.05.05-.16-.02-.25.14-.39.17-.11.02-.25,0-.37-.02-.1-.01-.2-.04-.31-.06,0,0,0,.01-.02,0-.06-.02-.14-.18-.22-.44-.07-.23-.09-.37-.04-.38.05-.01.11-.01.16-.02v-.03Z"/>
      <g>
        <circle class="cls-1" cx="37.04" cy="11.13" r=".72"/>
        <path class="cls-1" d="M35.94,10.82c.08-.07.15-.13.26-.15.1-.02.19-.02.16-.11,0-.03.02-.03.03-.04.02-.02.04-.04.06-.07,0-.01-.01-.06,0-.06.1.03.16.02.17-.09.09.08.1,0,.14-.06.04-.05.09-.04.14-.13.01-.03.03-.04.04-.02.1.09.17.06.27.05.1,0,.19.05.22.19.01.07.05.09.09.12.04.03.1.04.15.07.07.05.14.09.25.13.15.05.28.17.36.31.04.07,0,.16-.01.23-.04.15-.13.28-.21.4-.06.09-.1.18-.16.27-.05.08-.09.19-.17.27-.22.23-.56.37-.92.37-.09,0-.18,0-.27,0-.04,0-.09-.02-.13-.05-.15-.08-.27-.19-.38-.31-.16-.17-.29-.36-.35-.59-.03-.13-.04-.25-.12-.38-.02-.04.04-.05.19-.04.25.02.51.03.66.04.1.01.18.01.15.03-.05.04.07.03-.06.1-.02.01,0,.01,0,.02.19.01.14.1.19.18.02.02.05.02.08.02.02,0,.03.01.04.02.02.02.03.05.06.04.02,0,.05-.05.03.1,0,.03.01.03.02,0,.04-.13.05-.11.06-.11.04.01.08.04.12.03.03,0,.05-.03.07-.07.02-.06.01-.15,0-.2,0-.04,0-.06-.01-.09,0,0-.02-.03-.02-.03,0,0-.03-.03.02,0,.05.02.06.02-.04-.04-.06-.03-.05-.03-.04-.02.01,0,.06.02.1.03.05.01.11.01.02-.01-.05-.01-.02,0,.02-.01.15,0,.13-.06.09-.08-.06-.03-.15-.02-.2,0-.01,0-.02,0-.04.01-.03.02,0-.01-.01-.06,0,0,0-.02-.01,0-.02.06-.01.05-.02,0-.01-.05-.02,0,0,.06,0,.01,0,.02.01.03-.01-.03-.01-.02,0,0,.01.02,0,0,0,0,0,0,0,0-.04-.02-.03-.01-.06-.02-.09-.03-.05,0-.11,0-.17.02,0,0,0,0,0,0-.04.01-.22.03-.49,0-.24-.02-.38-.07-.37-.12.01-.06.04-.11.07-.17h-.04Z"/>
      </g>
      <path class="cls-1" d="M70.38,12.88c.32.01.65,0,.97.05.29.03.57.07.85-.05.07-.03.15-.02.23-.04.14-.02.28-.04.42-.07.06-.01.12-.07.18-.06.3.04.59.02.87-.11.24.08.45-.03.68-.1s.46-.08.67-.2c.06-.03.12-.05.19-.04.38.04.74-.04,1.11-.12.39-.08.79-.11,1.2-.06.22.03.44,0,.65-.04.26-.04.51-.11.76-.15.37-.07.73-.15,1.09-.28.24-.09.46-.17.71-.24.38-.1.8-.19,1.25-.29v.06c.06.2.09.43.11.66l.03.34.03.28c.01.19.02.32.05.68l.08.86-.72.08-.45.06-.29.04c-.19.03-.38.06-.57.1-.36.07-.71.17-1.06.24l-3.17.62c-.25.05-.5.12-.76.17-.13.03-.25.05-.38.06-.48.05-.95.1-1.43.16l-2.04.28c-.39.05-.77.09-1.15.22-.1.04-.15-.02-.13-.17.03-.26.05-.52.22-.69.11-.12.22-.21.38-.2.23.02.45-.13.7-.01.03.02.08,0,.11-.01.64-.26,1.32-.27,1.99-.34.22-.02.43-.08.65-.12.14-.03.28-.05.42-.06.21-.02.41-.03.62-.07.15-.03.3-.1.46.03.03.03.11,0,.14-.03.09-.15.22-.15.35-.17.35-.04.69-.07,1.04-.12.25-.04.51-.1.76-.16.39-.11.77-.24,1.16-.34.32-.09.65-.14.98-.21.08-.02.15-.06.22-.07.14-.03.28-.08.42-.05.08.02.14.02.21,0,.04,0,.04-.02.04-.03,0-.02,0-.04,0-.07-.01-.07,0-.06.01-.05.02,0,.05.03.11.06.01,0,.02,0,.04,0,.06.01.11-.04,0-.1-.03-.01-.03-.02-.03-.04,0,0,0-.08.02-.12.02-.09.03-.18.03-.27,0-.02,0-.05,0-.06v-.03s.01-.04.01-.06c0-.08,0-.17-.03-.23-.04.01-.08.02-.12.04-.07.02-.13.05-.18.07,0,0-.01,0-.02,0h-.05s-.11.04-.11.04l-.22.06-.87.22c-.23.06-.46.09-.69.13-.71.13-1.44.2-2.16.26-.14.01-.29.02-.42.07-.31.11-.63.14-.96.14-.39,0-.77.11-1.15.22-.09.03-.17.07-.26.07-.63.02-1.22.23-1.84.29-.5.05-1.01.05-1.51.06-.39,0-.78,0-1.17,0-.03,0-.05.02-.08.01-.22,0-.32-.17-.25-.45.06-.25.18-.41.38-.43.22-.03.44-.04.66-.05v-.04Z"/>
      <path class="cls-1" d="M60.11,17.14c-.24-.03-.48-.03-.72-.08-.22-.05-.43-.09-.63.02-.05.03-.11.02-.17.03-.1.02-.21.03-.31.05-.05.01-.09.07-.13.06-.23-.05-.44-.04-.64.08-.18-.09-.34.02-.5.08-.16.06-.34.06-.49.17-.04.03-.09.05-.14.04-.28-.06-.55.02-.82.08-.29.07-.58.08-.89.02-.16-.03-.32,0-.48.02-.19.03-.37.09-.56.12l-.23.05-.26.06c-.18.05-.37.1-.6.17h-.02c-.08-.19-.16-.43-.25-.7l-.06-.21s-.02-.08-.03-.1l-.02-.07-.09-.27-.02-.07-.02-.12c-.01-.08-.02-.17-.03-.25-.01-.16-.03-.32-.04-.48l-.03-.39c.47-.04.93-.07,1.4-.11.29-.02.57-.07.85-.13.26-.05.52-.14.78-.2l2.33-.5c.19-.04.37-.1.56-.14.09-.02.19-.04.28-.05.35-.04.7-.06,1.05-.11l1.5-.2c.28-.03.57-.06.84-.18.08-.03.11.03.1.18-.02.25-.02.52-.14.68-.08.11-.15.2-.27.18-.17-.03-.33.11-.52-.02-.03-.02-.06,0-.08,0-.46.24-.97.22-1.46.27-.16.02-.32.07-.48.1-.1.02-.21.04-.31.05-.15.02-.31.01-.46.05-.11.03-.22.09-.34-.04-.03-.03-.08-.01-.1.03-.06.15-.16.14-.25.15-.26.03-.51.04-.77.08-.19.03-.37.08-.56.14-.28.09-.56.21-.85.3-.24.07-.48.12-.72.18-.06.01-.11.05-.16.06-.1.02-.21.07-.31.04-.12-.04-.2-.04-.28.1-.05.07-.14.08-.21.08-.01,0-.02,0-.03,0h0s-.02-.03-.02-.03c-.01-.02-.03-.04-.05-.06-.05-.05-.14-.09-.1,0,.02.03,0,.03-.03.02h-.02c-.07-.01-.1.05-.1.12,0,.02,0,.04,0,.05v.07c.03.08.05.16.07.24.05.19.07.19.1.23.03.04.05.06.08.07.05-.03.09-.06.12-.08.02-.01.03-.02.04-.03,0,0,0,0,0,0h.06s.13-.04.13-.04c.53-.1,1.06-.14,1.59-.18.11,0,.21,0,.31-.05.23-.09.47-.11.71-.11.29,0,.57-.08.84-.17.06-.02.13-.06.19-.06.46,0,.9-.18,1.36-.22.37-.03.75-.01,1.12,0,.29,0,.58.03.87.04.02,0,.04-.01.06-.01.17.02.24.18.2.46-.03.25-.12.4-.27.41-.16.02-.32.02-.49.03v.04Z"/>
      <path class="cls-1" d="M84.61,10.76c-.08.08-.16.15-.27.18-.1.03-.2.03-.18.14,0,.03-.02.03-.04.04-.02.03-.05.05-.07.08,0,.01,0,.06-.01.06-.11-.02-.17,0-.19.1-.1-.08-.11.01-.16.07-.05.05-.11.04-.16.13-.01.03-.03.04-.05.02-.11-.09-.2-.06-.3-.05-.11,0-.22-.06-.26-.2-.02-.07-.06-.1-.1-.13-.05-.03-.12-.05-.17-.09-.07-.06-.15-.11-.27-.16-.16-.07-.29-.2-.38-.35-.04-.08-.01-.17.01-.25.04-.17.14-.31.22-.44.06-.1.12-.2.18-.3.06-.09.11-.21.19-.29.25-.25.62-.4,1.01-.39.09,0,.19,0,.29.01.05,0,.1.02.14.05.16.09.29.21.41.34.17.18.31.4.38.64.04.14.04.27.12.41.02.04-.04.05-.19.04-.25-.02-.51-.03-.66-.05-.1-.02-.18-.02-.15-.05.05-.05-.07-.04.06-.12.02-.01,0-.02,0-.02-.19-.03-.16-.13-.23-.22-.02-.03-.06-.03-.09-.04-.02,0-.04-.02-.05-.03-.02-.02-.04-.05-.08-.05-.03,0-.05.04-.04-.11,0-.03-.01-.03-.03,0-.04.13-.05.11-.07.11-.05-.01-.1-.04-.15-.03-.04,0-.07.04-.09.08-.03.06-.03.16-.03.22,0,.05-.01.07-.01.11,0,0,.02.03.02.04,0,.01.02.04-.02.02-.05-.02-.07-.01.04.05.06.03.05.03.04.03-.02,0-.07-.01-.11-.02-.05,0-.12,0-.03.02.05.01.02.02-.02.02-.15.02-.13.09-.09.12.07.05.16.05.22.04.02,0,.04,0,.05,0,.04,0,.04.04.07.09,0,0,.01.03.02,0,.02-.06.03-.04.05,0,.03.05.05,0,.04-.06,0-.01,0-.04,0-.03.05.05,0-.06.03-.05.02,0,.09.03.16.02.05,0,.12-.02.18-.06,0,0,0,0,0,0,.04-.02.22-.04.49-.01.24.02.38.08.36.14-.01.07-.05.13-.08.19h.04Z"/>
      <path class="cls-1" d="M88.69,8.72c-.1.13-.2.26-.34.35-.13.08-.25.12-.27.27,0,.04-.04.05-.07.08-.04.05-.09.08-.13.13-.02.02,0,.08-.04.08-.15.01-.26.06-.34.19-.14-.06-.19.05-.28.11-.09.06-.19.06-.29.16-.02.03-.06.04-.09.03-.18-.08-.34-.06-.51-.06-.18,0-.37-.1-.47-.27-.06-.09-.13-.14-.21-.19-.09-.06-.19-.11-.28-.18-.12-.11-.24-.22-.39-.33-.2-.15-.37-.37-.46-.62-.05-.13-.02-.27,0-.4.05-.26.17-.51.29-.73.09-.17.19-.33.29-.49.1-.14.2-.3.34-.43.41-.37,1-.56,1.59-.53.14,0,.29.01.43.05.07.02.14.04.21.08.24.13.45.3.64.49.26.27.47.6.58.97.05.21.08.42.16.63.03.06-.04.08-.19.06-.25-.03-.51-.05-.66-.11-.1-.04-.19-.06-.16-.12.04-.09-.09-.13.03-.25.02-.02,0-.03,0-.04-.24-.15-.28-.36-.44-.53-.05-.06-.13-.08-.19-.11-.04-.02-.08-.05-.12-.07-.06-.04-.11-.08-.18-.1-.05,0-.11.03-.13-.13,0-.03-.04-.03-.05,0-.06.13-.1.11-.14.1-.11-.02-.23-.04-.35-.02-.08.01-.16.06-.23.12-.11.09-.17.22-.23.32-.05.08-.11.15-.15.24-.01.02,0,.05,0,.07-.02.03-.01.08-.07.08-.07,0-.09.03,0,.11.05.05.03.07.02.08-.02.02-.08.03-.13.05-.06.02-.13.05-.05.11.04.03.01.05-.03.08-.16.1-.14.25-.08.36.09.16.23.27.36.35.05.03.09.07.13.1.14.09.26.21.42.29.03.02.06.04.1.02.08-.05.15-.03.23,0,.1.04.19-.03.25-.11.01-.02.02-.05.04-.05.16,0,.21-.18.31-.26.08-.07.2-.12.3-.22.08-.07.16-.16.22-.27,0,0,0-.02,0-.02.04-.06.22-.09.49-.05.24.04.37.12.36.22-.02.11-.06.21-.1.31h.04Z"/>
      <path class="cls-1" d="M86.36,3.68c-.11.18-.23.36-.4.49-.15.11-.3.19-.34.38-.01.05-.06.07-.09.1-.05.07-.12.12-.18.18-.02.03-.02.09-.06.1-.19.04-.34.11-.45.27-.17-.04-.26.08-.38.16-.12.07-.26.08-.39.18-.03.03-.08.04-.12.03-.24-.08-.45-.05-.69-.07-.25-.02-.49-.13-.65-.34-.09-.11-.2-.17-.3-.24-.12-.09-.26-.16-.37-.27-.17-.15-.31-.31-.5-.47-.24-.22-.43-.52-.54-.85-.05-.17-.03-.35,0-.52.05-.35.19-.67.35-.96.12-.22.24-.44.39-.64.14-.19.28-.39.47-.54.55-.47,1.32-.7,2.07-.64.18.01.37.03.55.08.09.02.18.05.26.1.31.16.59.37.82.62.34.35.61.77.75,1.24.07.27.11.54.19.81.03.08-.04.1-.18.08-.25-.05-.51-.07-.66-.16-.1-.06-.19-.1-.16-.18.03-.12-.11-.2,0-.36.01-.02,0-.04-.02-.06-.27-.25-.38-.55-.62-.79-.08-.08-.18-.12-.28-.17-.06-.03-.12-.07-.18-.1-.09-.05-.17-.11-.28-.13-.08-.02-.16.02-.19-.15,0-.04-.05-.03-.07,0-.08.13-.13.1-.2.09-.17-.02-.34-.05-.51-.01-.06,0-.12.03-.18.05-.06.02-.12.05-.17.09-.17.11-.29.27-.4.41-.1.11-.19.22-.27.34-.02.03-.01.07-.03.1-.03.05-.04.12-.11.14-.08.02-.11.07-.03.17.05.06.02.09,0,.13-.03.04-.09.07-.15.11-.06.04-.14.09-.06.18.04.04,0,.09-.03.12-.16.17-.14.39-.07.57.11.25.29.45.47.6.07.06.14.12.21.19.22.17.44.35.72.46.05.02.11.05.17.03.14-.04.25-.02.39.01.16.04.32-.04.43-.15.03-.03.05-.06.08-.07.25-.04.38-.28.54-.44.14-.13.3-.26.42-.43.1-.13.2-.28.26-.45,0-.01,0-.02,0-.03.04-.09.22-.14.49-.08.23.05.37.16.35.29-.02.14-.07.28-.12.41h.04Z"/>
      <path class="cls-1" d="M81.58,36.48c-.1.05-.2.09-.31.09-.11,0-.2-.03-.21.07,0,.03-.03.02-.05.03-.03.02-.06.03-.09.05-.01.01-.01.06-.03.05-.1-.05-.16-.06-.22.04-.07-.1-.11-.02-.17.01-.06.03-.12,0-.19.08-.02.02-.04.03-.05,0-.08-.12-.17-.12-.27-.14-.11-.03-.19-.13-.18-.27,0-.08-.03-.11-.06-.15-.04-.05-.09-.08-.13-.14-.05-.08-.11-.15-.21-.23-.13-.11-.22-.28-.25-.45-.01-.09.04-.17.09-.24.09-.15.23-.25.35-.35.09-.08.17-.15.26-.23.08-.07.17-.16.27-.21.31-.16.71-.19,1.08-.06.09.03.19.05.27.1.04.02.08.05.12.09.12.13.21.29.29.45.11.23.17.47.16.73-.01.14-.05.27-.01.43.01.05-.06.04-.19-.02-.23-.1-.47-.19-.61-.25-.09-.05-.17-.07-.13-.09.06-.03-.05-.06.09-.1.02,0,.01-.01,0-.02-.17-.09-.11-.17-.14-.28-.01-.03-.05-.04-.08-.06-.02-.01-.03-.03-.04-.04-.02-.02-.02-.06-.06-.07-.02,0-.06.03,0-.11.01-.03,0-.03-.03,0-.08.11-.08.09-.1.08-.04-.03-.08-.07-.13-.07-.04,0-.08.01-.11.05-.05.05-.08.14-.1.19-.02.04-.04.07-.04.1,0,0,.01.04,0,.04,0,.01,0,.04-.03.01-.04-.03-.06-.03.02.06.05.05.04.05.03.04-.02-.01-.06-.03-.1-.05-.05-.02-.11-.04-.03.01.04.03.01.02-.02.01-.15-.03-.15.04-.12.08.05.06.13.1.2.11.02,0,.03.01.05.02.04.01.02.05.03.11,0,.01,0,.03.02,0,.04-.05.04-.03.05.01,0,.05.05,0,.06-.05,0-.01,0-.04,0-.03.04.07.02-.06.04-.04.02.01.08.06.15.07.05.01.12.02.19,0,0,0,0,0,0,0,.04,0,.22.03.47.14.22.09.33.19.3.24-.03.06-.08.11-.13.15l.03.02Z"/>
      <path class="cls-1" d="M86.09,35.81c-.14.1-.27.19-.43.22-.15.03-.28.03-.34.17-.02.03-.06.04-.09.05-.05.03-.11.05-.16.09-.02.02-.03.07-.06.06-.15-.03-.26-.03-.38.08-.11-.1-.19-.01-.3.02-.1.03-.2,0-.32.06-.03.02-.07.02-.09,0-.14-.13-.3-.16-.47-.22-.17-.07-.32-.21-.36-.41-.02-.1-.09-.17-.14-.24-.06-.09-.15-.16-.2-.26-.08-.14-.16-.28-.27-.43-.15-.21-.24-.47-.25-.73,0-.14.06-.26.13-.38.13-.24.31-.43.5-.6.14-.13.28-.25.43-.37.14-.1.29-.23.46-.3.51-.22,1.12-.23,1.67,0,.13.05.27.1.4.18.06.04.12.08.17.14.19.19.34.42.45.66.17.34.26.72.25,1.1-.01.22-.06.42-.04.65,0,.07-.06.06-.19,0-.23-.11-.47-.21-.59-.31-.08-.07-.16-.12-.11-.16.06-.07-.04-.15.1-.23.02-.01.01-.03,0-.04-.18-.22-.15-.43-.25-.64-.03-.07-.1-.11-.15-.17-.04-.03-.06-.07-.1-.1-.04-.05-.08-.12-.15-.15-.05-.03-.11,0-.08-.16,0-.03-.02-.04-.05-.01-.1.1-.12.07-.16.05-.1-.05-.21-.11-.32-.12-.08-.01-.17,0-.25.04-.13.05-.23.15-.32.23-.08.06-.15.11-.22.18-.02.01-.01.05-.03.07-.03.03-.04.07-.09.06-.06-.02-.1,0-.03.11.04.06.01.07-.01.08-.03.01-.09,0-.14,0-.06,0-.14,0-.08.09.03.04,0,.06-.05.06-.18.05-.21.19-.18.32.04.18.13.33.23.44.04.05.06.09.1.14.11.13.18.28.31.41.02.03.05.06.09.05.1-.02.15.02.22.08.08.07.19.04.27-.02.02-.01.04-.04.06-.03.15.05.25-.11.37-.15.1-.04.23-.06.36-.12.1-.04.2-.1.3-.19,0,0,0-.02,0-.02.06-.04.24-.02.48.11.21.11.32.23.27.32-.05.1-.12.18-.19.26l.03.02Z"/>
      <path class="cls-1" d="M85.45,30.3c-.16.14-.33.27-.53.34-.18.06-.35.09-.44.25-.03.04-.08.05-.12.07-.07.05-.15.07-.22.12-.03.02-.05.08-.09.08-.2-.02-.35,0-.51.11-.15-.09-.27,0-.41.03-.14.03-.28,0-.43.05-.04.02-.09.02-.12,0-.2-.15-.42-.19-.63-.28-.23-.1-.43-.27-.51-.52-.05-.13-.13-.22-.21-.32-.09-.12-.19-.23-.27-.37-.11-.19-.2-.39-.33-.6-.16-.28-.25-.63-.25-.97,0-.18.08-.34.16-.5.16-.31.39-.58.63-.81.18-.18.37-.34.57-.49.19-.13.39-.28.62-.37.67-.27,1.47-.26,2.17.04.17.07.34.14.5.24.08.05.15.11.22.18.25.25.44.54.59.84.22.44.34.93.33,1.41-.02.28-.07.54-.07.83,0,.08-.07.09-.2.01-.22-.12-.46-.23-.58-.36-.08-.09-.15-.16-.1-.23.07-.11-.04-.23.11-.34.02-.02.01-.04,0-.06-.18-.32-.19-.64-.34-.95-.05-.1-.14-.17-.21-.25-.05-.05-.09-.11-.14-.15-.07-.08-.13-.16-.22-.21-.07-.04-.15-.03-.14-.2,0-.04-.04-.05-.07-.02-.11.1-.16.05-.22.02-.15-.07-.31-.15-.48-.17-.06-.01-.13-.01-.19,0-.06,0-.13.02-.19.04-.19.05-.36.17-.51.26-.13.08-.25.15-.36.24-.03.02-.03.07-.06.09-.05.04-.07.1-.14.1-.08,0-.13.03-.08.15.03.07-.01.09-.04.12-.04.03-.11.04-.18.06-.08.02-.17.04-.12.15.03.06-.02.08-.07.11-.21.11-.26.33-.24.52.02.27.13.52.26.72.05.08.09.16.14.24.16.23.31.47.54.66.04.04.09.08.15.08.14,0,.25.06.36.13.14.09.31.06.46,0,.03-.02.07-.04.1-.04.25.04.45-.15.65-.25.17-.08.36-.15.54-.28.14-.09.27-.21.39-.34,0,0,0-.02,0-.03.07-.07.25-.06.49.08.21.12.31.27.25.38-.07.13-.15.24-.24.35l.03.02Z"/>
    </g>
  </g>
</svg>