<?xml version="1.0" encoding="UTF-8"?>
<svg id="Layer_2" data-name="Layer 2" xmlns="http://www.w3.org/2000/svg" viewBox="0 0 272.64 282.11">
  <g id="Layer_1-2" data-name="Layer 1">
    <g>
      <path d="M175.16,24.88l6.97,8.17c-.97.6-2.02.75-2.83,1.57-.62.62-.75,2.33-.12,2.93-.05-.05,2.07,1.5,2.45,1.6,1.1.3,2.02,1.09,2.74,2.04.06.08.51-.15.55-.06.09.26-.32,1.25.25,1.62.33.22.91.24,1.27.01.28-.18.34-.84.18-1.29l-.64-1.81c-.6-1.69-2.66-2.39-4.08-3.62.63-.45,1.31-.72,2.04-.95l2.81,3.14c.65-.34,1.12-.78,1.57-1.33-1.77-2.69-3.91-5.06-6.07-7.6.22-.36.52-.03.78.16,1.09.82,2.3,1.35,3.52,2.04.58-.5.75-1.17,1.06-1.9l4.08-.05c.18-.68.22-1.27.16-2.01l-8.03-.89c-1.2-.71-1.92-2.17-2.83-3.37,2.58.33,4.83.5,7.32.45,4.72-.1,9.26-.21,14.13-.78-.18,3.26.12,6.13.13,9.23l.04,10.57c.26,2.06.2,4.06-.18,6.08-.33,1.76-.24,3.4-.34,5.2l-.68,11.26c-.07,1.08.14,2.05-.09,3.17-.31-.39-.4-.84-.83-.9-.47-.07-.89,0-1.21.48-.28.42-.54,1.44,0,1.73.84.45,1.59-.29,2.02-.89-.07.7.19,1.13.79,1.43-.17.32-.47.79-.35,1.15,1.03.31,1.31,1.7,2.01,2.22.8.59,1.73.93,2.4,1.72.48.36,1.78-.77,1.73-1.44-.37-.56-1.14-.38-1.59-.84-.38-.39-.35-1.25-.91-1.51-2.64-1.26-2.04-2.91-1.6-5.6.62-.56,1.63-1.29,1.09-2.28-.19-.26-.71.28-.95.54-.06-2.77.39-5.44.56-8.34.39-6.59.5-13.02.5-19.76,5.96-.42,15.1,2.1,18.98,7.04,2.74,3.19,5.42,6.31,8.74,8.99,5.44,4.39,12.23,8.66,18.32,12.41.3.02.97.19,1.07.52-.17.76-.78,1.49-.33,2.33.79-.48.79-1.31,1.04-2.07l4.99,2.5c-1.95.3-3.86,1.06-5.75.79-.93-.14-1.32.11-2.27.16l-2.13.1c-.76.04-1.41-.2-2.28.23-.88.43-2.55-.13-3.27.84-.89,1.2,3.81,1.56,3.32,1.37,1.02.38,1.24.28,2.14.05,1.91-.48,4.08.08,6.12-.14,2.37-.25,7.98-1.66,10.26-3.12l-8.92-4.49c-1.23-.62-2.36-1.19-3.56-1.9l-8.58-5.12c-1.66-.99-3.26-1.87-4.62-3.28-1.11-1.15-2.38-1.94-3.65-2.88-2.61-1.93-4.69-4.34-6.97-6.65-1.29-1.31-2.57-2.52-3.67-3.96-1.27-1.67-2.84-2.57-4.74-3.33-5.44-2.16-7.95-2.85-14.1-2.57l-.2-8.53c-.04-1.79-.09-3.49-.29-5.33-4.42.64-8.8,1.08-13.32,1.03l-5.78-.07-8.32-.61.5,2.13c-.45.24-1.33.1-1.55.55-.29.59-.27,1.25-1.03,1.71Z"/>
      <path d="M239.22,104.25c-3.33-.92-6.4-2.29-9.32-4.04-1.06-.64-1.64-1.56-2.51-2.32-.61-.54-1.94-.37-1.79-1.8-.65-.19-1.09-.48-1.66-.76-.01-1.16-.94-1.4-1.62-1.98-.19-.16-3.87-4.42-3.8-2.67,0,.14-.17.54-.03.71.58.69.69,1.73,1.27,2.34.59.62,1.23.96,1.24,1.97,0,.68.99.62,1.35.96,4.84,4.7,5.61,5.68,12.24,8.67-1.57.54-3.07.36-4.62.48l-6.23.48c-3.4.26-6.69-.27-10.07-.52-1.97-.15-3.81-.42-5.63-1.25-1.74-.8-3.52-1.25-5.33-1.91-3.5-1.28-6.6-3.21-9.86-4.95-4.53-2.42-4.3-3.51-6.82-5.48-2.55-1.99-4.75-4.19-6.37-7.03-1.25-2.19-2.62-4.16-4.15-6.17-.46-.61-.96-1.08-1.72-.63-.46.27-.65,1.03-.24,1.6.96,1.33,1.83,2.65,2.61,4.11,1.3,2.43,2.87,4.57,4.49,6.78.37.51.13,1.05,1.07,1.16.57.07,1.08.91,1.46,1.33-.74-.2-1.94-.4-2.36.37.1.63,1.52.8,2.08.42.21-.32.12-.71.48-.78,4.88,4.36,10.08,7.83,16.05,10.54l2.48,15.42,4.63,25.55,1.72,8.4c-10.07,3.46-20.83,5.07-31.35,3.29.34-2.37,3.1-5.26,2.72-7.91-.12-.82-1.66-1.46-.99-2.65-.54-.35-.75-.55-1.08-1.01.47-.64-.01-1.29.03-1.87.07-1.1,1.7-3.72.85-4-1.06-.35-2.58,2.3-2.5,2.01l-.46,1.7c-.14.5-.66.82-.66,1.32,0,.45.36.73.57,1.18l1.34,2.93c1.05,2.29-.74,2.86-1.93,6.37-.36,1.07-.72,2.97.04,3.87,2.08.93,4.45.74,6.64,1.12,2,.35,3.78.2,5.78.11,5.14-.22,10.13-.77,15.1-2.35l.45,6.08c.03.43.29.64.63.64,1.48-.02,1.38-6.07,1.21-7.4l4.35-1.13c3.15-.81,1.11-5.44.91-6.38l-2.71-13.18c-.51-2.47-1.21-4.76-1.3-7.3-.08-2.29-.63-4.35-1.01-6.6l-2.29-13.34c-.21-1.24-.75-2.32-.73-3.71,15.23,5.73,29.01,3.68,44.71,1.24l-7.36-2.04Z"/>
      <path d="M150.61,107.56c-.29-.23-.95-.32-1.39.13-3.29,3.4-6.7,6.61-10.69,9.22-2.53,1.65-4.8,3.34-7.44,4.88-.27-.52-.4-1.03-.9-1.02-1.15,0-1.24,1.26-1.3,2.38l-10.76,6.26c-1.48.86-2.9,1.49-4.33,2.43-.46-1.03-1.34-1.43-2.28-1.88-.85-.4-2.8-1.67-3.34-1.25-1.35,1.04,2.74,3.65,3.98,4.12-4.15,2.76-8.1,5.34-11.8,8.53-2.24,1.93-4.43,3.68-6.44,5.82l-7.94,8.42-3.98-3.03c-.69-.53-.91-.54-1.64-.96l-1.65-.93c-1.22-.69-3.76-1.58-4.74-.94,0-1.1-.05-1.37-.41-1.54-.31-.15-.69-.07-1.01.24-.35.33-.82,1.27-.4,1.74.48.55,1.37,0,1.78-.4.05,1.31,1.38,1.64,2.11,2.3.57.51.65.66,1.43.85,1.26.29,2.24,1.58,3.4,2.22,1.93,1.06,3.62,2.31,5.18,3.94l5.08-5.34c1.24-1.31,2.42-2.49,3.66-3.83,2.97-3.22,6.33-5.9,9.6-8.81,1.62-1.45,3.21-2.73,5.19-3.69,2.09-1.01,3.81-2.35,5.8-3.53l10.57-6.26c2.04-1.21,3.84-2.59,6.03-3.54,3.42-1.48,12.97-8.5,15.56-11.35l3.19-3.51c.44-.49.39-1.25-.1-1.64Z"/>
      <path d="M23.09,29.5c-.27-.42-1.29-.43-1.98-.38l-1.5,9.92-1,7.49c.71.25,1.32.38,2.05.27l1.07-4.61c1.22.15,2.41.11,3.52.59.27.12.47.48.77.39.15-.04.4-.3.59-.29.09.29,2.56.47,2.78.43,1.09-.21,2.18.52,3.2.4.66-.07.86-1.65.48-2.18-1.44.08-2.92-.66-4.27-.86l-6.7-.98c.2-1.19.15-2.09.58-3.18,2.04.57,4.06.77,6.22,1.06l6.44.85,17.06,2.31c1.84.25,3.6.13,5.35.69-.43.6-.73,1.7-.11,2.31.71.69,2.29.04,2.28-.92,0-.33-.3-.58-.18-.79.07-.12.44-.36.43-.52-.88-1.2-.49-2.07-1.95-2.27l-9.84-1.4-10.99-1.65-14.46-2.13.17-4.55Z"/>
      <path d="M90.94,89.63c-.35-.64-.29-3.18-1.63-2.62-.52.22-1.21,4.2-.67,4.48l-.47,3.83c-.27,2.19-.3,4.33-1.09,6.51l6.57,1.86c1.3.37,2.52.62,3.82,1.03l9.94,3.14c1.75.55,3.42,1.05,4.94,2.12,1.5,1.05,3.14,1.6,4.72,2.5l8.8,5.01c1.24.7,2.62,1.15,3.64,2.16.28.28.23.97.74.97.37,0,.84-.18.97-.66.55-1.92,1.39-1.23.62-3.01.99-.21.42-1.17.66-1.55.41-.63.56-1.01.6-1.85.05-.91.84-1.99.37-2.89-1.54-.3-2.42,2.17-2.5,2.26-1.59,1.86.26.65-1.42,4.09l-8.85-5.35c-5.82-3.52-12.08-5.99-18.55-8.08-1.76-.57-3.33-1.14-5.1-1.6l-6.92-1.79.79-4.82c.15-.93.16-1.29.11-2.13-.03-.56.18-1.12,0-1.8-.13-.5.32-1.08-.08-1.79Z"/>
      <path d="M184.23,67.64c-.14.64.24,1.07.86,1.31,3.75,1.41,6.91,3.7,9.81,6.47,5.2,4.96,10.3,9.76,15.26,14.96l8.11,8.51c-1.82-.04-3.68.05-5.2-.69-.72-.35-1.08-.37-1.89-.38-.28,0-3.11-.94-4.04-.78-.89.15-2.13-.63-3.09.07-1.34.98,3.03,2.28,2.68,2.12.57.26.93,1.04,1.69.39l4.94,1.45c3.25.95,6.71.56,10.23.01l-6.69-7.35c-.9-.99-1.64-2-2.76-2.79-2.64-2.67-5.07-5.43-7.92-7.91-1.48-1.28-2.94-2.44-4.1-4.03-1.19-1.63-2.63-2.78-4.12-4.11-2.66-2.38-5.16-4.8-8.39-6.43-1.28-.65-2.64-1.02-3.96-1.58-.71-.3-1.31.21-1.44.76Z"/>
      <path d="M144.23,139.66c.97-.65,5.08-3.94,4.71-4.79-.37-.86-2.61.77-2.97.97l-3.07,1.71c-.88.49-2.01.63-2.6,1.54-1.82,2.82-2.98,1.08-5.05,3.63-1.46,1.8-1.77.28-4.91,3.21-1.11,1.03-5.99,3.6-7.72,5.5.66.6,1.4.37,1.98.07,2.44-1.25,3.24-1.27,5.18-2.52.46.53,1,.53,1.48.37.61-.2.69-.89.78-1.53,1.25-.17,1.99-1.35,2.93-2.06,2.96-2.26,6.16-4,9.26-6.09Z"/>
      <path d="M202.16,186.74c.16,2.97-.01,5.86.84,8.8.67-.14.97-.81.97-1.41.01-1.56.23-2.96.45-4.49.14-1-.6-2.37-.12-3.29.81-1.53.23-2.68.08-4.18-.46-4.75.66-11.41-.27-15.15-.18-.73,0-1.67-.8-2.17-.99.72-.73,1.89-.86,2.92l-.43,3.57c-.13,1.07-.63,2.1-.16,3.17,1.2,2.74-.83,2.85.17,6.09.28.91.1,1.9-.18,2.78-.37,1.18.24,2.2.31,3.35Z"/>
      <path d="M239.98,272.61c-.86-.55-3.94-.1-5.92-.28-.96-.09-1.88-.35-2.74.23-1.89,1.26-2.79-.53-4.89.39-.91.4-1.9.41-2.84.11-1.05-.34-1.92.28-2.9.38-2.72.27-5.39.1-8.07.83.14.74.83,1.04,1.5,1.04,1.33,0,2.54.34,3.97.43,1.05.06,2.05-.54,2.96-.15,1.19.52,2.39.58,3.53-.2l9.96-.57c1.03-.06,6.94-1.26,5.44-2.22Z"/>
      <path d="M104.12,124.48c-1.89-2.22-2.49-.54-3.47-2.35-1.05-1.95-2.1-.49-3.63-2.86-.47-.72-1.39-.67-2.08-1.08-1.88-1.13-3.63-2.63-5.9-3.06-.41.29-.05,1.16.35,1.43.94.63,1.61,1.38,2.42,2.2.47.47,1.75.59,1.98,1.22.51,1.42,1.49,1.39,2.54,1.97,3.88,2.15,6.26,5.7,10.73,6.75.28.07.57-.26.54-.41-.25-1.3-2.05-2.11-3.49-3.81Z"/>
      <path d="M172.53,249.23c1.18-1.75-2.06-2.56-2.97-5.4-.48-1.5-.92-2.94-1.81-4.25-2.08-3.06-.67-5.53-1.9-6.35-.47-.31-1.02-.09-1.42.15-.59.34-.58.89-.41,1.51l1.24,4.5c.55,2.02,1.03,3.74,2.48,5.28,1.23,1.3,1.8,3.13,2.86,4.52.44.58,1.64.49,1.94.05Z"/>
      <path d="M104.94,160.69c-.47-1.21-4.02.61-4.5.95-.74.51-1.33.72-2.21.98-1.79.53-3.26,1.76-4.73,2.83-.95.36-1.56,1.28-1.24,2.21.44.85,4.56-1.4,5.94-1.98.86-.36,1.48-.88,2.26-1.36.83-.51,4.79-2.83,4.48-3.63Z"/>
      <path d="M204.13,227.36c.12.7.38,2.08,1.47,1.81.87-.22.77-1.52.69-2.14-.21-1.7.09-3.31-.21-4.97l-.72-4.03-.77-2.59c-.1-.34-.57-.34-.74-.23-1.29.84-.23,4.81-.45,6.84-.2,1.82.43,3.51.73,5.31Z"/>
      <path d="M86.68,173.83c1.16-1.43,2.15-2.55,3.75-3.5.38-.22.07-1.35-.18-1.65s-1.01-.65-1.44-.19c-.8.87-1.25,2.07-2.36,2.63-1.01.51-1.98.96-2.83,1.75-1.54,1.43-1.61-2.08-3.21-1.49-.39.14-1.18.89-.84,1.58,1.28,2.56,5.33,3.07,7.12.87Z"/>
      <path d="M200.67,256.1c-.15-1.61-1.04-2.93-1.53-4.44-.23-.71-.82-1.8-1.71-1.39-1,.46-.38,1.75-.27,2.51.3,2.19.81,4.05,1.78,5.95.36.7,1.75,3.82,2.6,3.61,1.59-.39-.69-4.27-.87-6.25Z"/>
      <path d="M208.18,244.19c.35.17.76.09,1.23-.15,1.56-.82-.25-2.45-.27-4.5,0-1.41-.05-2.73-1.04-3.82-.36-1.18-.65-2.31-.73-3.63-.47-.61-1.52-.84-2.14-.29-.51.45-.26,1.2.07,1.66,1.76,2.5.23,3.64,1.43,5.84,1.48,2.73.31,4.31,1.46,4.89Z"/>
      <path d="M222.14,49.02c-.12-1.32-.8-2.25-1.76-2.94-.24-.17-.12-.77-.33-.95-.25-.21-.71-.1-1.01-.31-2.02-1.39-3.06-3.28-5.47-2.61-.5.14-.5.95-.13,1.22.69.5,1.13,1.11,1.69,1.72l1.21.14c-.22,1.01.89.83,1.17,1.2.47.65.76.93,1.5,1.27.92.42,1.57,1.42,2.77,1.46.12.56-.19,1.21.24,1.54.55.43,1.2.12,1.51-.19.25-.25.69-.86.41-1.31-.38-.61-1.17-.43-1.78-.25Z"/>
      <path d="M167.07,24.73c.35-.03.68.52,1.05.43.22-.05.47-.39.78-.45,2.44-.45,3.58.66,6.13-.41.46-.19.71-.45.66-.88-.03-.32-.27-.55-.69-.66l-2.67-.71c-.4-.06-.72.4-1.18.62-.61-1.03-1.47-.17-2.07-.27-.93-.15-1.36-.25-2.29.16-.91.4-2.57,0-3.19,1.06-.57.97,2.2,1.22,3.46,1.09Z"/>
      <path d="M197.77,247.52c.33-1.19-1.66-1.18-1.44-4.4.08-1.1-.69-2.01-1.04-3-.34-.94.13-2-.33-2.9-.41-.79-2.4-.26-2.21.58l.68,3.15c.29,1.34.1,2.53.96,3.65,1.31,1.72.15,4.02,2.54,3.62.55-.09.78-.44.85-.71Z"/>
      <path d="M182.19,206.04c-.13-.05-.5-.19-.71-.06-5.72,3.52-3.64,5.49-5.82,6.2-.75.25-1.66,2.01-.85,2.51,1.05.65,2.14-.74,2.79-1.46,1.22-1.35,2.47-2.26,3.36-3.7.24-.39,1.8-3.26,1.22-3.48Z"/>
      <path d="M75.74,108.72c.16-.27.31-.79-.06-1.08l-2.43-1.85c.24-1.06,1.87-5.59.11-5.66-.28-.01-.92.1-1.04.51-.41,1.43-1.51,2.73-1.63,4.29-.27,3.45,4.68,4.43,5.05,3.79Z"/>
      <path d="M75.06,91.46c-.01-.82.71-1.54.41-2.31-.3-.78-2.04-.63-2.28.11-.29.91.2,1.92-.2,2.71-.53,1.04-.56,1.94-.17,3.03.29.8-.21,1.7-.22,2.52,0,.63.71.79,1.06.92,2.36.9.27-2,1.46-4.16.44-.8-.05-1.91-.06-2.81Z"/>
      <path d="M130.29,176.95c-1.24.78-2.34,2.3-2.85,3.98-.24.4-1.27.57-1.3,1.04-.03.5-.32,1.31.22,1.56,1.07.5,1.85-.48,2.47-1.3,1.11-1.46,3.36-2.53,3.07-5.75-.25-.71-1.17.19-1.62.47Z"/>
      <path d="M64.29,161.07c-1.8-1.01-3.68-1.97-5.75-1.51-.39.43.26,1.18.53,1.49,1.23,1.46,2.7,1.75,4.51,1.78.42.08.8,1.09,1.4.87.36-.14,1.22-.14,1.26-.82.07-1.3-1.2-1.39-1.95-1.81Z"/>
      <path d="M219.67,258.59c-.4-.46-.73-1.1-1.15-1.09-.47,0-1.2-.08-1.41.38-.44.94.38,1.69,1.18,2.05,1.14.52,2.02,1.39,3.33,1.59.81.13,2.3.25,2.93-.33.95-.87-3-3.13-4.88-2.6Z"/>
      <path d="M156.33,128.96c-.91-.42-2.56,1.2-3.26,1.78l-2.87,2.41c-.38.32-.79.57-.57,1.14.6,1.59,7.53-3.41,7.36-4.29-.09-.46-.31-.88-.66-1.04Z"/>
      <path d="M67.67,45.18l.11-.74c.04-.3.9-.29,1.11-.68.19-.34-.17-.72-.4-1,.23.06.48.13.69,0-.18-.5.21-.77.72-1.12-.74-.34-1.75-1.17-2.72-.54-.36.31.38,1.24.83,1.38-.42,0-1.17-.22-1.55.21-.41.46.17,1.13.56,1.38-.32.12-.64,0-.94.18-.19.11-.11.44-.22.72-.04.11-.48,0-.51.13-.05.21.13.37.29.57-.35.34-1.06.34-1.38.77.02,1.61-.85.6-.47,2.33-.12.08-.94-.06-.82.4.16.63,1.17,1.25,1.77,1.2.2-.16.13-.74.22-.91.11-.21.67-.12.86-.35,1.8-2.29-.28-2.74,1.54-2.81.02-.38-.28-.48-.51-.77.26-.06.81-.14.84-.36Z"/>
      <path d="M271.94,260.23c-.56.22-.85.64-1.12,1.03-.72-.37-1.31-.67-1.99-.34-1.11.54-2.49.67-3.23,1.86-.25-.34-.47-.75-.83-.71-.49.7-.25,1.98.44,2.41.26-.08.38-.7.54-.82-.06.04,1.95.4,2.25.33,1.37-1.42,2.43.24,3.07-2.18.28.3.33.63.58.72.29.1.84.1.94-.29.19-.72-.19-1.51-.65-2.01Z"/>
      <path d="M208.14,75.8c-1.2.99,1.4,4.83,3.94,6.19.38.2.74-.18.92-.44.47-.65-1.12-2.66-1.13-2.69-.54-1.46-2.54-4.05-3.73-3.07Z"/>
      <path d="M115.72,155.52c-.37-.67-1.48-.05-2.05.12-2.46.71-4.69,1.59-6.73,3.11-.31.23-.9,1.17-.34,1.26,1.41.23,4.8-1.65,6.8-2.45.88-.35,2.12-1.03,2.31-2.04Z"/>
      <path d="M203.92,213.53c1.01-.01.53-4.58.55-5.67.03-1.57.29-3.23-.88-4.54-.83.45-.64,1.36-.74,2.14-.33,2.55-.43,5.12.41,7.52.12.33.47.55.67.55Z"/>
      <path d="M191.17,222.52c.52-.77.04-1.51,0-2.22-.08-1.79-.31-3.61-1.77-4.94-1.3,1.18-1.56,3.25-.62,4.61.35.5.76.75.49,1.46-.2.53.11,1.03.52,1.27.39.23,1.02.37,1.39-.17Z"/>
      <path d="M247.79,270.62c-.24-.48.52-1.18.05-1.82-.23.58-.29,1.16-.44,1.95l-5.63,1.3c-1.92.44-1.01,2.9,6.38.75.51-.15.34-.75.38-1.2.04-.41-.52-.56-.74-.99Z"/>
      <path d="M130.19,77.65c-.05.89,2.32,1.41,2.43,1.48,1.28.8,4.29,1.37,4.48-.05.11-.82-.29-1.06-.94-1.37-1.73-.82-3.58-1.3-5.54-.88-.4.09-.41.58-.43.83Z"/>
      <path d="M180.02,129.9c.14.27.99.17,1.16-.09.44-.66.65-1.47.63-2.27.71-.67,1.83-3.92.16-4.3-.73-.17-1.02.37-1.41.98-1.08,1.7-1.53,3.8-.55,5.68Z"/>
      <path d="M264.69,273.97c-.25-1.49-2.71-1.94-3.87-1.36-.23-.31-.16-.62-.33-.96-.75.36-.59,1.04-.96,1.51-.09-.62.23-1.49-.52-1.63-.53-.1-.72.51-.77.8-.07.37-.06.94.47,1.07.23.06.48-.02.65.04.18.07.2.45.33.52.31-.04.41-.41.68-.68.33,1.26,1.04,1.51,1.95,1.58.65.05,1.24.78,1.89-.04.12.49.21.65.33.82.09.13.43.25.59.05.41-.51.78-1.28.65-1.93-.38-.18-.88.09-1.11.19Z"/>
      <path d="M188.3,197.15c-.07-.51-.05-1.03-.57-1.18-2.22-.64-4.88,5.23-3.43,5.89,1.93.87,2.85-3.14,3.07-3.72.17-.43.99-.47.93-.99Z"/>
      <path d="M202.24,263.69c-1.19.13.83,4.34,1.08,5.09.43,1.27.88,2.56,2.19,3.16.27.12.59.02.68-.15.25-.48-.51-1.49-.75-2.4-.34-1.24-1.8-5.86-3.19-5.7Z"/>
      <path d="M138.53,80.29l1.65-.61c2.22,1.26,1.07-.23,4.37.43.43-.42.29-2-.3-2.26-4.23-.12-.7-.56-5.5.13-.65.1-.76,1.92-.22,2.3Z"/>
      <path d="M183.73,115.99c-.37-.29-2.09-.45-2.16.18-.1.94-.6,1.83-.54,2.67l.2,2.79c-.01.6,1.91.86,2.19.3-.03-.78-.62-1.28-.32-1.73.52-.79.14-1.54.3-2.4l.33-1.81Z"/>
      <path d="M267.84,267.32c-.55-.13-.85-.88-1.22-.81-.07.01-.26.26-.33.24-1.15-.32-2.3-.02-3.14.89-.16-.43.09-.81-.35-1.09-.62.68-.48,1.57-.29,2.44.44,0,.5-.4.65-.93.63,1.03,1.68,1.43,2.79.99.36-.14.85.32,1.14.09.27-.22.47-.51.67-.8.3.54.41.75.56.87.15.11.49.11.61-.08.38-.65.4-1.54.05-2.19-.45.17-.8.46-1.14.38Z"/>
      <path d="M71.43,30.16c.42-.17.27-1.09,0-1.27-1.48-.99-.66-.19-2.65-1.14-.84-.4-2.16-.49-3.04-.21-.55.18-.31,1.2.05,1.54,1.45,1.4,3.73,1.84,5.64,1.07Z"/>
      <path d="M260.97,260.76c-.16-.22-.31-.55-.77-.59-.06.52-.05.89.03,1.24.33.39.34.81.78,1.15.24-.33.39-.7.33-1.03,1.05.61,1.87.22,2.67-.4.6-.46,1.53-.46,1.37-1.62.29.21.96.57,1.2.1.31-.63-.89-2.21-1.16-1.8l-.55.82c.08-.12-2.36-.49-3.89,2.13Z"/>
      <path d="M72.84,70.69c-.95-.07-1.14,1.37-1.31,1.96-.24.85.41,1.58.83,2.3.22.37-.45,1.17.17,1.5.38.2.9.46,1.36.19.88-.51.35-1.35.39-3.01.02-.89-.47-2.8-1.44-2.95Z"/>
      <path d="M63.38,34.34c.45-.86,1.24-1.37,1.49-2.01.28-.72.14-1.46.53-2.25.3-.6-1.48-1.86-1.93-1.28.16,1.08-.23,1.67-.83,2.39-.54.66-.38,1.89-1.48,2.29.48.67,1.92,1.42,2.22.86Z"/>
      <path d="M228.35,69.24c-.05,1.95,5.75,2.28,5.77.5.01-1.26-1.81-1.12-2.12-1.25-.76-.33-1.42-.49-2.3-.44-.84.04-1.33.36-1.35,1.19Z"/>
      <path d="M152.25,28.25c2.32.05,4.5-1.81,3.63-2.99-.5-.68-2.09.21-2.49.2-.72-.02-1.24.23-1.85.49-.79.33-1.04.83-.74,1.72.19.54.72.57,1.45.58Z"/>
      <path d="M78.79,110.61c2.06.9,4,2.86,5.21,1.5-1.6-1.81-3.54-3.08-5.77-3.58-.45-.1-1.44.06-1.26.63.23.71,1.17,1.17,1.82,1.45Z"/>
      <path d="M193.16,92.34c-.53-.05-.92.4-1.04.75-.56,1.65,2.88,3.46,4.71,2.35.49-.3.16-1.15-.08-1.37-.23-.22-.75-.32-1.06-.55-.8-.59-1.47-1.09-2.53-1.18Z"/>
      <path d="M225.09,67.77c-.81-.24-1.73.11-2.47-.65-.41.68-.66,1.92-.23,2.32.69.08,1.61.78,2.26.76.71-.02,1.73-.07,2.36-.29.75-.26.62-1.81.22-2.19-.83.81-1.4.28-2.15.06Z"/>
      <path d="M145.23,29.38c2.98.06,1.17,1.03,4.44-.69.64-.34.11-1.91-.37-2.16-.44.26-.61.7-.91.75-.4.07-.86-.3-1.19-.19-.8.27-1.4.45-2.28.02-.25.52-.33,2.16.31,2.27Z"/>
      <path d="M227.48,53.25c-.52.1-.51.93-.39,1.28.11.34.49.51.79.86.68.78,1.33,1.84,2.68,1.73.56-.04.73-.61.83-.87.34-.91-1.66-3.43-3.91-3Z"/>
      <path d="M122.1,151.81c-1.93-.49-4.45.5-4.98,2.53-.16.62.96.82,1.36.83.67.02,4.08-2.05,3.62-3.36Z"/>
      <path d="M166.23,223.91c-.27-.06-.62-.05-.94.15-1.53.98-1.86,3.04-.98,4.6,1.24,2.17,3.38-4.41,1.92-4.75Z"/>
      <path d="M136.5,104.75c.18.51.95.44,1.27.31-.13.05,2.18-1.8,2.27-3.33.03-.48-.48-.77-.79-.91-1.26-.57-3.43,1.99-2.76,3.93Z"/>
      <path d="M203.17,201.64c1.84,1.05,1.75-4.73-.01-5.41-1.43,1.1-1.72,4.42.01,5.41Z"/>
      <path d="M190.37,91.59c-.19-.11-.34-.71-.58-.75-.85-.15-1.24-.59-1.67-1.18-.5,0-1.64,1.4-1.22,1.82,1.12,1.12,1.34,2.03,3.76,2.01.74,0,1.21-1.54.86-1.91-.31-.12-.87.17-1.15,0Z"/>
      <path d="M232.75,56.39c-.61-.17-1.55,1.38-1.19,1.82.44.13.96-.09,1.16.15.13.15.24.76.47.79.82.1,1.29.79,1.87,1.2.52-.04,1.37-1.49,1.01-1.86-1.63-1.65-.72-1.38-3.31-2.1Z"/>
      <path d="M64.61,144.6c-.83.22-1.02,1.4-.45,2.01.98,1.03,2.55,1.74,3.86.93.44-.27.2-1.05.05-1.3.18.3-2.12-1.99-3.47-1.63Z"/>
      <path d="M88.18,76.16c-.9,1.3-.77,3.25.44,4.25.47.38,1.16.03,1.35-.37-.02.04.72-2.97-.16-3.95-.3-.33-1.35-.35-1.64.07Z"/>
      <path d="M140.34,95.95c-.91,2.3-1.14.06-1.39,3.46-.05.72,1.52,1.26,1.97,1.06-.11-.8-.18-1-.03-1.24.09-.14.58-.28.64-.46.25-.81.21-1.48,1.13-2.03-.71-.57-1.6-.99-2.32-.79Z"/>
      <path d="M257.84,261.18c-.48-.05-1.19-.27-1.35.26-.29.91.49,1.71.61,2.55.11.79,0,1.5.89,1.71.41.1.92.14,1.43-.54.34-.46.02-1.39-.22-2.11-.26.18-.26.54-.68.48-.03-.53.18-.83.24-1.18-.4-.54-.38-1.11-.91-1.16Z"/>
      <path d="M207.44,272.69c-.52.21-.23,1.15-.05,1.48.57,1.04,4.29,1.36,4.51.25.18-.89-2.5-2.53-4.46-1.73Z"/>
      <path d="M62.59,145.84c.68-.17,1.08-1.49.87-2.05-.35.08-.74.18-1.07.16-.22-.02-.32-.64-.58-.67-.76-.1-1.32-.47-1.8-.89-.49.11-1.25,1.74-.75,2.06,2.77,2.16.13.76,3.32,1.4Z"/>
      <path d="M87.5,71.32c-.15.49-.48,1.41-.37,1.83.11.46.44,1.36.69,1.75.37.58,1.84.22,2.21-.11-.4-.54-.62-.66-.66-.96-.02-.21.4-.6.33-.83-.23-.74-.4-1.25.02-2.03-.67-.15-2.02-.32-2.22.35Z"/>
      <path d="M194.12,66.04c.83-.06,1.22-.57,1.36-1.11.21-.78-.47-.93-.99-1.35-.89-.71-1.9-1.1-3.03-.51-.31.9.16,2.33,1.25,2.41.55.04,1.1-.34,1.4.56Z"/>
      <path d="M132.2,168.84c-.29-.43-.75-.57-1.18-.48-1.17.24-1.11,2.41-.64,3.53.2.48.62.71,1.05.7,1.28-.04,1.66-2.41.77-3.75Z"/>
      <path d="M213.22,82.52c-.32.19-.38.78-.17,1.13l1.79,3.01c.24.41,1.51.72,1.5.1-.04-2.16-2.02-4.89-3.12-4.24Z"/>
      <path d="M156.19,75.44c-.24-.74-1.96-1.04-2.34-.42-.37.6-.46.77-1.16.92-.52.11-.35,1.19-.03,1.61.62.81,4.09-.37,3.53-2.11Z"/>
      <path d="M118.95,190.38c-.38-1.1-2.09-.54-2.62-.06-.52.46-1.45,1.83-.59,2.48,1.09.82,3.71-.99,3.21-2.42Z"/>
      <path d="M181.56,106.73c-.02.23-.31.62-.16.79.39.44,1.36.65,1.96.11.02-.02.92-3-.75-3.68-.7-.29-1.34.6-1.59,1.1-.32.65.19,1.15.54,1.68Z"/>
      <path d="M52.62,156.51c-.62.04-1.03.42-1.13.88-.09.42.04.88.45,1.2,1.04.81,2.84,1.12,3.21.3.15-.33.23-.75.02-1.13-.49-.88-1.55-1.32-2.55-1.26Z"/>
      <path d="M124.96,74.94c.74,2.05,4.24,3.34,4.58,1.96.23-.95-1.79-1.47-3.1-2.45-.36-.27-1.66-.03-1.48.48Z"/>
      <path d="M209.95,247.18c-.87.88.11,3.55,1.55,3.33,1.19-.19,1.06-1.82.71-2.47-.33-.6-1.51-1.62-2.26-.86Z"/>
      <path d="M228.06,261.26c.04,1.32,1.97,1.66,3.17,1.2.55-.21.74-.71.72-1.19-.01-.46-.35-.87-.9-1.03-1.13-.34-3.04-.26-3,1.02Z"/>
      <path d="M84.85,114.02c.17.66,3.03,1.8,3.48.84.43-.92-.52-1.76-1-2.07-.65-.42-1.6-.6-2.29-.16-.42.27-.29.99-.19,1.39Z"/>
      <path d="M188.78,190.22c.8-.98.47-3.64-1.09-3.39-1.2.19-1.13,2.9-.48,3.73.4.51,1.09.25,1.57-.35Z"/>
      <path d="M180.44,130.87c-.85.24-.37,2.19-.73,3.81-.1.44.53,1.42,1,1,1.73-1.57,1.17-5.23-.27-4.81Z"/>
      <path d="M37.3,42.27c-.49.22-.76.47-.8.85-.04.39-.03.93.44,1.09.48.16,2.47,1.37,2.92.32.1-.23.3-.69.2-1.11-.26-1.15-1.72-1.61-2.76-1.14Z"/>
      <path d="M75.05,169.95c.64.36,2.37.8,2.5-.43.14-1.39-2.11-2.84-3.09-2.03-.87.72-.03,2.11.59,2.46Z"/>
      <path d="M189.37,212.29c.81-.78.58-2.51-.29-3.04-.39-.24-1.13-.31-1.48.16-.64.85-.46,2.28.34,2.97.48.41,1.13.19,1.43-.1Z"/>
      <path d="M43.57,45.53s0,.02,0,.02c.02,0,.02-.01,0-.02Z"/>
      <path d="M43.79,43.39c-2.18-1.12-.41-.87-2.82-.41-.5.41-.53,1.64-.29,2.15.28-.13.43-.27.57-.33.35.14,2.19.62,2.32.74.26-.56.59-1.62.22-2.14Z"/>
      <path d="M253.56,261.81l-.28,2.01c-.47-.5.06-1.12-.54-1.55-.11,1.51.21,2.79.6,4.03-1.16.39-1.03,1.97-.33,2.63.65-.1.91-1.19.75-1.75-.54-1.89,1.97-.1-.19-5.37Z"/>
      <path d="M193.1,231.22c-.49-.5-1.08-.34-1.43,0-.65.61-.75,1.51-.32,2.18.32.5,1.15,1.29,1.9.79.88-.59.57-2.23-.15-2.97Z"/>
      <path d="M72.91,30.87c.97.3,3.5,1.75,3.67.24.07-.6-1.95-2.07-3.56-1.8-.46.08-.77.43-.72.83.03.24.24.62.61.73Z"/>
      <path d="M136.94,30.11c.38-.36.6-.37,1.11-.41.57-.05.47-1.03.41-1.42-.14-.89-2.3-1.01-3.05-.07-.33.42-.22,1.05.19,1.5.28.3.88.83,1.34.4Z"/>
      <path d="M187.11,45.94c.35-.53.6-1.12.29-1.79-.29-.63-.97-1.26-1.8-.77-.63.38-1.02,1.91-.62,2.6.39.67,1.72.59,2.14-.04Z"/>
      <path d="M212.67,67.6c.21.48.79,1.2,1.34.79.54-.41.78-.06,1.27-.14.63-.11.66-1.2.55-1.62-.08-.31-1.71-1.21-2.86-.45-.56.37-.54.91-.31,1.42Z"/>
      <path d="M250.55,262.18c.52-.49,1.04-.74,1.01-1.43-.03-.59-.42-1-1.09-1.04-.56-.03-1.09.22-1.22.86-.12.59.34.99.71,1.51.33.46-.2,1.29-.02,1.91l.72,2.51c.93-1.21-.75-3.7-.11-4.31Z"/>
      <path d="M235.25,69.13c-.35.14-.51.53-.51.83.03.92,4.36,1.77,4.1.06-.09-.57-2.22-1.44-3.6-.89Z"/>
      <path d="M130.9,160.23c-1.01.42-1.15,2.78.03,3.11,1.15.32,1.69-.95,1.61-1.67-.07-.67-.67-1.85-1.64-1.44Z"/>
      <path d="M184.63,49.62c.77.23,1.37.28,2.23.14.91-2.27.58-.58.18-2.63-.58-.36-1.58-.34-2.22-.13.13.31.46.47.38.66l-.28.62c-.19.43,0,.92-.29,1.34Z"/>
      <path d="M160.23,24.97c.13-.16.42-.78.16-.96-1.09-.75-2.78-.56-3.66.4-.29.31-.21.79-.06,1.04.38.63,3.39-.26,3.57-.48Z"/>
      <path d="M181.82,83.77c-.56-.02-.99.34-1.16,1.01-.1.38-.22,1.17.42,1.26l.62.09c.12.02.05.35.17.48.54.34,1.14-.11,1.52-.52.58-.6-.38-2.27-1.57-2.32Z"/>
      <path d="M71.24,65.54c-.7.6-.56,2.23.44,2.57.94.33,1.56-.34,1.69-.88.15-.61.01-1.24-.35-1.59-.44-.43-1.23-.56-1.77-.1Z"/>
      <path d="M256.62,266.03c.28-1.65-.28-3.07-.69-4.39-.59.58-.99-.02-1.57.12-.25.87.12,1.77.62,2.56.29.46-.03,1.17.44,1.61l.26-1.7c.63.62.11,1.41.94,1.79Z"/>
      <path d="M243.37,63.63c.45-.45.34-2.05-.46-2.05-.63,0-.88,0-1.31-.14-.4-.13-.67.48-.82.77-.2.38-.16,1.04.32,1.34.78.47,1.6.74,2.26.08Z"/>
      <path d="M170.72,218.51c-.5-.91-1.81-.52-2.23,0-.43.53-.73,1.79.15,2.17,1.06.46,2.68-1.08,2.08-2.17Z"/>
      <path d="M198.28,94.76c-.44.06-.72.34-.77.67-.14,1.07,2.34,1.71,2.76,1.74.59.05.85-.52.86-.79.03-.49-1.54-1.82-2.85-1.63Z"/>
      <path d="M186.87,179.88c.65-.56.26-1.8-.27-2.42-.35-.41-.89-.52-1.27-.29-.73.46-.82,1.45-.5,2.01.36.64,1.37,1.26,2.03.69Z"/>
      <path d="M182.95,171.97c-.48-.35-1.74-.67-2.08.21-.42,1.09,1.06,2.7,2.13,2.08.89-.52.57-1.84-.05-2.29Z"/>
      <path d="M141.71,88.96c.03-.34.39,1.56.33,1.51.52.41,1.54.66,1.89.25.12-.14.82-1.59,0-2.4-.66-.65-2.15.01-2.21.64Z"/>
      <path d="M236.59,260.95c-.48,1.01.49,1.82,1.38,1.8.68-.02,1.88-.8,1.35-1.77-.48-.88-2.35-.85-2.74-.03Z"/>
      <path d="M74.2,83.55c-.97,0-1.67.86-1.43,1.76.19.72,1.18,1.47,1.98.96.57-.36.61-1.18.44-1.87-.14-.57-.52-.85-.99-.85Z"/>
      <path d="M225.31,50.72c-.38-.36-.98-.23-1.21,0-.33.34-.17.79.04,1.21.45.88,1.4,2.01,2.52,1.34.52-.31.16-1.1-.1-1.35l-1.25-1.2Z"/>
      <path d="M218.31,90.12c.75-.28.65-1.28.45-1.77-.23-.57-.81-.83-1.41-.84-.51,0-1.2.46-1.18,1.22.03.8,1.33,1.69,2.14,1.39Z"/>
      <path d="M52.14,140.11c-.4.48-.38,1.86.41,1.99.5.08.97-.27,1.39.14.67-.73,1.09-1.58.42-2.08-.76-.57-1.66-.72-2.22-.04Z"/>
      <path d="M210.37,43.12c.61.26,1.6.01,2.3-.22.67-.23.45-1.11.08-1.4-.82-.67-1.87-.69-2.75-.19.03.56-.19,1.58.37,1.82Z"/>
      <path d="M262.07,263.18c-.47-.4-1.3-.59-1.87-.36-.62.25-.44,1.11-.32,1.62.12.49.64.9,1.29.94.51.03.9-.44,1.07-.73.21-.37.29-1.08-.17-1.47Z"/>
      <path d="M178.82,136.39c-.43.57-.7,1.49-.27,2.22.36.62,1.35.38,1.76.04.53-.44.55-1.22.23-1.78-.3-.53-.98-.58-1.71-.47Z"/>
      <path d="M134.21,107.31c-.19.44.13.91.44,1.06.51.25,2.16-.81,2.25-2.03.03-.44-.14-.83-.47-.95-.92-.36-2.04,1.52-2.22,1.93Z"/>
      <path d="M122.22,74.47c.34.45,1.24.54,1.79.2.37-.23.79-1.07.37-1.65-.41-.57-1.52-.74-2.1-.41-.69.38-.44,1.34-.05,1.86Z"/>
      <path d="M70.73,149.33c.58.17.94-.31,1.01-.64.06-.3-.12-.55-.39-.83-1.15-1.21-2.37-1.19-2.66-.52-.44,1.03,1.11,1.74,2.04,2Z"/>
      <path d="M188.93,203.44c-.13-.63-1-1.45-1.83-.93-.76.47-.76,2.17.22,2.47,1.16.35,1.78-.68,1.6-1.53Z"/>
      <path d="M89.19,81.05c-1.06,0-.75,2.5-.66,2.83.13.49.81.56,1.26.39.5-.79.69-1.68.42-2.57-.15-.5-.61-.64-1.02-.64Z"/>
      <path d="M122.22,188.44c.68,0,1.23-.55,1.23-1.23s-.55-1.23-1.23-1.23-1.23.55-1.23,1.23.55,1.23,1.23,1.23Z"/>
      <path d="M258.64,266.54c-.71.66-.38,2.41.68,2.46,1.03.05,1.25-1.07,1.1-1.75-.11-.53-1.22-1.23-1.78-.71Z"/>
      <path d="M78.24,33.31c.68,0,1.23-.55,1.23-1.23s-.55-1.23-1.23-1.23-1.23.55-1.23,1.23.55,1.23,1.23,1.23Z"/>
      <path d="M131.26,152.34c-.68,0-1.22.55-1.22,1.22s.55,1.22,1.22,1.22,1.22-.55,1.22-1.22-.55-1.22-1.22-1.22Z"/>
      <path d="M47.98,44.27c-.11.4-.19.77-.19,1.16-.01.75.92.96,1.44.76.96-.38.83-1.9.29-2.4-.25-.23-1.51.38-1.54.48Z"/>
      <path d="M251.33,262.15c-.7.69-.34,1.9.16,2.65.37.56.22,1.14.34,1.63.46-.04.67-.34.63-.74l-.33-2.99c-.03-.28-.49-.85-.8-.55Z"/>
      <path d="M189.21,63.3c.35-.15.65-.59.71-1.13.07-.62-.13-1.13-.64-1.24-.5-.11-.98.09-1.28.6-.29.49-.39,1.11-.06,1.53.28.36.81.44,1.28.24Z"/>
      <path d="M161.96,25.17c.97-.2,1.48-.94,1.24-1.68-.16-.51-.81-1.05-1.5-.74-.52.24-.7.85-.61,1.35.06.36.29,1.18.87,1.06Z"/>
      <path d="M256.85,270.63c-.8.33-1.05,2.28-.15,2.56.98.31,1.46-.75,1.44-1.39-.01-.48-.54-1.49-1.3-1.17Z"/>
      <path d="M240.32,68.95c-.61.19-.83.82-.79,1.29.03.46.07,1.16.83,1.11.93-.06,1.47-.72,1.39-1.35-.08-.63-.7-1.28-1.43-1.05Z"/>
      <path d="M212.7,253.97c0,.65.53,1.18,1.18,1.18s1.18-.53,1.18-1.18-.53-1.18-1.18-1.18-1.18.53-1.18,1.18Z"/>
      <path d="M245.47,262.37c.65,0,1.18-.53,1.18-1.18s-.53-1.18-1.18-1.18-1.18.53-1.18,1.18.53,1.18,1.18,1.18Z"/>
      <path d="M256.99,268.98c.24.05.72-.22.89-.6.32-.7.16-1.37.03-1.88-.65.35-1.26.06-1.74-.33-.16,1.23-.43,2.54.82,2.81Z"/>
      <circle cx="70.66" cy="165.58" r="1.18"/>
      <path d="M184.63,61.67c.77-.03,1.49-.61,2.18-.74-.4-.45-1.07-.18-.99-.74.18-.42.74-.02,1-.44-.57-.22-1.13-.35-1.7-.32-.59.03-.88.64-1,1.02-.12.37-.07,1.24.5,1.21Z"/>
      <path d="M186.21,193.34c.54.33,1.79.12,1.9-.72.11-.81-.92-1.46-1.52-1.33-.55.13-.72.57-.76.87-.06.41-.08.89.37,1.17Z"/>
      <path d="M70.21,60.84c0,.65.52,1.17,1.17,1.17s1.17-.52,1.17-1.17-.52-1.17-1.17-1.17-1.17.52-1.17,1.17Z"/>
      <path d="M181.07,101.81c.38.73,1.98.55,2.28.01.18-.33.26-.86-.14-1.17-.53-.42-1.29-.39-1.82-.13-.51.25-.53.89-.33,1.29Z"/>
      <path d="M56.41,44.63c-.36.58-.86,1.51-.29,2.07.42.41,1.37.38,1.86.21.4-.13.38-.61.31-.88-.18-.71-1.19-.61-1.89-1.4Z"/>
      <path d="M147.99,79.19c.41-.8-.14-2.09-1.03-2.08-.63,0-.79.91-.78,1.37,0,.6.26.97.73,1.09.27.07.81.14,1.08-.38Z"/>
      <path d="M202.94,95.72c-.31-.01-.6.02-.9.3-.43.41-.67,1.52-.17,1.9.46.35,1.16.03,1.51-.24.25-.19.46-.62.29-1.18-.15-.49-.45-.77-.73-.78Z"/>
      <path d="M34.19,41.91c-.46.02-.62.6-.6.92.06.69,1.38,1.52,2.19.95.33-.23.59-1.08.03-1.4-.55-.32-1.14-.5-1.62-.47Z"/>
      <path d="M157.56,72.81c-.58.42-.37,1.28.09,1.77.29.3.98.77,1.53.23.54-.53.24-1.25-.09-1.64-.32-.37-.96-.77-1.52-.36Z"/>
      <path d="M181.09,113.39c.05.4.43.73,1,.86.66.16,1.2-.01,1.43-.45.2-.38.14-.96-.24-1.21-.69-.47-2.29,0-2.19.8Z"/>
      <path d="M185.2,55.08c.51.13,1.45.18,1.75-.44.17-.35-.2-.88-.43-1.13-.25-.28-1.07-.22-1.42-.18-.54.07-.63.62-.62,1.03,0,.28.3.62.72.73Z"/>
      <path d="M192.31,227.91c.28-.53.11-1.1-.17-1.34-.4-.35-.98-.29-1.4-.06-.43.23-.64.57-.65.93-.01.46.3.73.86.91.64.21,1.18-.11,1.35-.44Z"/>
      <path d="M254.63,269.98c-.26.65-.64,1.42-.45,2.11.07.23.42.57.61.6,1.04.18,1.26-1.27,1.37-2.09-.66-.06-1-.34-1.52-.62Z"/>
      <path d="M134.98,110.26c.3-.5-.13-1.08-.42-1.31-.34-.27-1.11-.61-1.42-.32-.74.72-.02,1.34.33,2.02.45-.06,1.2.12,1.51-.4Z"/>
      <path d="M133.62,30.05c.24-.23.28-.56.3-1.13.02-.66-.42-1.51-1.09-1.13-.69.39-.65,1.7-.17,2.26.3.35.76.18.96,0Z"/>
      <path d="M61.08,37.06c.41.14,1.35.38,1.55-.22.24-.72-.54-1.22-.91-1.4-.43-.2-1.17-.18-1.37.4-.21.64.31,1.08.72,1.23Z"/>
      <path d="M210.13,67.67c.83.11,1.03-.69,1.1-1.08.09-.48.08-1.28-.53-1.39-.63-.11-.98.62-1.06,1.01-.1.47-.22,1.36.49,1.45Z"/>
      <path d="M88.44,85.42c-.22.85.72,1.29,1.23,1.26.57-.04,1.45-.44,1.04-1.29-.36-.76-2.09-.63-2.27.04Z"/>
      <path d="M219.7,67.34c-.32.52-.47,1.85.28,2.12.66.24,1.15-.95,1.09-1.56-.06-.63-.33-.84-.62-.88-.24-.04-.54-.02-.75.32Z"/>
      <path d="M72.5,80.53c-.04.47.46.78,1.09.84.62.06,1.02-.14,1.16-.48.16-.38.09-.83-.17-1.01-.73-.53-2.04-.01-2.09.66Z"/>
      <path d="M178.92,83.03c.23.54,1.12.29,1.44.04.29-.23.97-.63.71-1.31-.22-.6-1.16-.2-1.5.02-.37.24-.91.67-.66,1.26Z"/>
      <path d="M238.26,59.7c.01-.47-.13-.63-.27-.64-.19-.01-.28.07-.52.17-.69.3-1.45,1.73-.54,2.08.82.31,1.31-.96,1.33-1.61Z"/>
      <path d="M70.38,56.14c.22-.48-.04-1-.42-1.14-.29-.11-.78-.12-1.03.23-.42.58-.41,1.35,0,1.97.67-.06,1.2-.46,1.47-1.06Z"/>
      <path d="M142.95,30.13c.79-.67.85-1.6.46-2.34-.15-.28-.47-.34-.66-.32-.21.02-.49.16-.57.47-.22.79-.11,1.68.77,2.19Z"/>
      <path d="M66.06,53.73c-.53.16-.85.6-.95.96-.11.41-.12.93.3,1.18.45.27.96.05,1.17-.25.2-.3.28-.67.23-1.24-.05-.54-.33-.78-.75-.65Z"/>
      <path d="M185.13,88.98c-.18.3-.74.99-.28,1.34.72.56,2.28-.77,1.74-1.69-.37-.63-1.24,0-1.45.36Z"/>
      <path d="M160.72,71.72c.29.16,1.08.48,1.29-.03.28-.69-.3-1.13-.57-1.34-.31-.24-1.02-.43-1.3,0-.37.56.18,1.17.57,1.38Z"/>
      <path d="M49.89,140.95c.68.33,1.25-.9,1.26-1.55,0-.56-.13-.75-.35-.79-.78-.12-1.75,1.92-.91,2.33Z"/>
      <path d="M182.28,98.16c.32-.04,1.11-.18,1.04-.77-.07-.63-.88-.68-1.23-.7-.43-.03-1.08.11-1.08.76,0,.71.84.76,1.27.7Z"/>
      <path d="M262.91,262.75c-.47.22-.44,1.15-.16,1.5.27.32,1.05.37,1.44.11.48-.31.28-1.17-.09-1.39-.27-.16-.7-.45-1.19-.22Z"/>
      <path d="M246.12,63.58c.01-.59-.18-.78-.45-.82-.23-.03-.43.05-.69.34-.41.45-.86,1.77-.09,2.04.66.23,1.22-.95,1.23-1.56Z"/>
      <path d="M142.96,94.74c.17-1.07-1.93-1.29-2.31-.67.02.98,2.14,1.72,2.31.67Z"/>
      <path d="M142.21,86.15c-.04,1,2.41,1.18,2.41.23,0-1.02-2.38-1.1-2.41-.23Z"/>
      <path d="M86.16,61.43c.16.96,2.56.69,2.35-.27-.2-.9-2.49-.6-2.35.27Z"/>
      <path d="M57.75,141.82c-.54.32-1.09,1.94-.38,2.15.67.21,1.29-1.09,1.22-1.68-.08-.62-.45-.71-.84-.48Z"/>
      <path d="M57.77,48.81c-.95-.41-2.17.45-1.74,1.26.31.58,1.09.19,1.37-.05.25-.22.87-1,.37-1.21Z"/>
      <path d="M130.18,30.1c.69-.28.52-1.95-.1-2.19-.6-.16-.71.85-.72,1.25,0,.33.12,1.22.82.94Z"/>
      <path d="M198.32,66.47c-.03-.6-.34-.68-.72-.54-.54.19-1.34,1.57-.69,1.89.63.32,1.44-.8,1.42-1.35Z"/>
      <path d="M86.97,69.37c.08.91,2.62.84,2.29-.29-.24-.82-2.35-.4-2.29.29Z"/>
      <path d="M51.12,46.45c.8-.3.93-2.15.31-2.39-.88.09-1.05,2.26-.31,2.39Z"/>
      <path d="M163.93,67.92c-.66-.98-1.51-.94-2.41-.66.37.95,1.69,1.7,2.41.66Z"/>
      <path d="M251.85,269.4c-.86-.04-1.08,1.9-.59,2.4.91-.19,1.49-2.27.59-2.4Z"/>
      <path d="M178.89,57.58c-.99.53-1.46,1.79-.47,2.55.98-.7.97-1.71.47-2.55Z"/>
      <path d="M206.69,65.5c-.12.39-.2,1.26.47,1.24.69-.02,1.15-1.31.61-2.04-.39-.53-.96.42-1.08.8Z"/>
      <path d="M261.13,266.84c-.56.13-.49.88-.43,1.33.05.34.67.69,1.12.51.39-.15.31-.81.25-1.16-.04-.3-.4-.81-.95-.68Z"/>
      <path d="M248.53,64.16c-.14-.36-.48-.3-.68-.12-.48.42-.88,1.68-.32,2.03.69,0,1.26-1.23,1-1.91Z"/>
      <path d="M180.79,58.63c-.32.43-.59,1.75.02,1.92.62.11,1.18-1.14.95-1.81-.21-.6-.7-.46-.96-.11Z"/>
      <path d="M45.01,45.78c.81-.86.84-1.91.23-2.69-.67.81-1.08,1.88-.23,2.69Z"/>
      <path d="M258.99,260.93c-.51.17-.36.87-.25,1.42.23.31.83.32,1.13.3.53-.05.47-.64.35-1.23-.31-.19-.72-.66-1.23-.49Z"/>
      <path d="M177.5,80.54c.4.62,2.16-.4,1.8-1.13-.33-.69-2.31.34-1.8,1.13Z"/>
      <path d="M187.28,50.95c-.9-.69-1.92-.77-2.71-.09.82.66,1.88.66,2.71.09Z"/>
      <path d="M61.56,39.12c-.62-1.05-1.42-1.31-2.31-.94.31.94,1.49,1.47,2.31.94Z"/>
      <path d="M150.37,78.71c.83-.33-.04-2.32-.62-2.03-.68.35-.29,2.39.62,2.03Z"/>
      <path d="M217.66,68.95c.66-.12,1.03-1.81.41-2.14-.81-.14-1.01,1.9-.41,2.14Z"/>
      <path d="M187.1,56.38c-.9-.74-1.94-.68-2.78-.13.76.67,1.88.81,2.78.13Z"/>
      <path d="M70.73,39.36c-.25-.93-1.63-1.21-2.32-.99.24.94,1.84,1.64,2.32.99Z"/>
      <path d="M162.09,65.28c-.03.79,2.16.88,2.16.18,0-.86-2.13-.97-2.16-.18Z"/>
      <path d="M183.4,110.36c-.07-.85-2.13-.6-2.12.05.02.78,2.2.9,2.12-.05Z"/>
      <path d="M248.19,262.5c-.96.77-.44,1.85,0,2.73.22.44-.39,1.16.49,1.4.2-3.47-.64-.79-.49-4.13Z"/>
      <path d="M60.3,50.59c-.46-.54-2.02,1.22-1.19,1.69.49.28,1.7-1.08,1.19-1.69Z"/>
      <path d="M62.07,51.84c-.53-.61-1.73,1.01-1.27,1.69.59.13,1.85-1.03,1.27-1.69Z"/>
      <path d="M140.44,27.71c-.67.27-.56,1.84.09,2.33.64-.6.64-2.15-.09-2.33Z"/>
      <path d="M142.61,83.53c-.04.81,2.14.77,2.15.14.01-.74-2.11-.95-2.15-.14Z"/>
      <path d="M86.02,58.88c.22.68,1.96.49,2.29-.26-.64-.63-2.21-.57-2.29.26Z"/>
      <path d="M85.33,54.83c.72.44,1.67.43,2.43-.28-.84-.35-1.85-.47-2.43.28Z"/>
      <path d="M249.18,266.64c.81-.74.31-1.52.2-2.36-.09-.67.35-1.43-.37-1.97-.38,1.75.27,2.47.18,4.33Z"/>
      <path d="M250.11,66.97c.87-.5.92-1.46.94-2.37-.91.23-1.4,1.43-.94,2.37Z"/>
      <path d="M183.24,88.7c.83-.09,1.57-.45,1.86-1.59-.94-.28-1.75.72-1.86,1.59Z"/>
      <path d="M143.58,92.73c-.74-.78-1.61-.87-2.41-.52.63.67,1.63,1.12,2.41.52Z"/>
      <path d="M71.55,36.77c.01-.49-.36-.4-.68-.59.2-.3.44.05.72-.27-.65-.38-1.33-.72-2.17-.63-.08.17.13.23.29.31.37.17-.41.12-.57.33.73.37,1.47.7,2.4.86Z"/>
      <path d="M177.64,76.95c-.45-.24-1.75.65-1.88,1.31.73.23,1.4-.16,1.92-.73.2-.22.11-.5-.03-.57Z"/>
      <path d="M174.87,76.76c.4.45,1.42-.3,1.77-.85.77-1.2-2.25.1-1.77.85Z"/>
      <path d="M239.68,60.22c-.44.09-1.5,1.73-.87,1.99.58.39,1.61-2.14.87-1.99Z"/>
      <path d="M55.56,143.25c.65-.51,1.08-1.03.96-2.12-.9.01-1.22,1.33-.96,2.12Z"/>
      <path d="M249.18,267.26c0,.09.15.23.18.39.3,1.4-.8,3.93-.12,3.49.52-.34.45-3.7.35-4.24-.24.16-.41.27-.41.35Z"/>
      <path d="M142.4,80.97c.73.57,1.85.76,2.46,0-.89-.56-1.74-.46-2.46,0Z"/>
      <path d="M85.52,56.41c.79.43,1.82.51,2.45-.27-.91-.46-1.78-.31-2.45.27Z"/>
      <path d="M251.75,269.07c.59-.86.31-1.72.08-2.64-.64.65-.48,1.77-.08,2.64Z"/>
      <path d="M255.4,268.92c.35-.84.49-1.7-.03-2.54-.53.88-.4,1.78.03,2.54Z"/>
      <path d="M53.05,46.73c.74-.83.75-1.55.38-2.41-.76.55-.85,1.62-.38,2.41Z"/>
      <rect x="185.56" y="51.19" width=".54" height="2.01" transform="translate(129.28 236.74) rotate(-88.65)"/>
      <path d="M250.16,271.54c.66-.87.7-1.69.47-2.54-.54.82-.82,1.69-.47,2.54Z"/>
      <path d="M86.75,67.48c.83.42,1.61.45,2.45-.19-.78-.59-1.72-.44-2.45.19Z"/>
      <path d="M46.45,45.84c.55-.75.65-1.54.32-2.43-.48.69-.75,1.53-.32,2.43Z"/>
      <path d="M54.97,46.84c.63-.78.61-1.6.31-2.34-.5.68-.73,1.53-.31,2.34Z"/>
      <path d="M253.35,272.18c.61-.83.73-1.55.56-2.34-.67.65-.82,1.59-.56,2.34Z"/>
      <path d="M71.08,38.37c-.66-.71-1.38-.9-2.25-.87.51.65,1.32.95,2.25.87Z"/>
      <path d="M67.55,40.06c.8.56,1.49.8,2.34,1.09.43-.54-2.52-1.47-2.34-1.09Z"/>
      <rect x="184.48" y="57.86" width="2.28" height=".48"/>
      <path d="M146.83,229.73c.71,2.9,1.46,5.59,2.48,8.42l2.34,6.48c.54,1.5,1.95,5.42,2.11,6.76.04.36.49.54.72.55,2.23.11-1.26-9.46-1.28-9.52l-1.8-6.13c-.62-2.13-1.6-4.03-1.92-6.26-.41-2.9-4.05-5.24-6.42-6.79-.66-.43-1.11-.97-1.51-1.75,1.57-1.49,2.1-3.23,2.44-5.28.79-4.74,2.12-9.39,4.4-13.59,1.03-1.9,2.68-3.26,3.46-5.26l2.12-5.49c1.82-4.7,2.48-7.57,1.01-12.4-.17-.56-.81-.81-1.22-.67-1.62.53.35,2.84-.56,7.3-.47,2.33-1.2,4.47-2.29,6.63-.82,1.64-1.14,3.84-2.37,5.25-7.34,6.42-17.77,9.98-26.77,13.76l-7.65,3.21c-3.44,1.45-6.55,3.36-9.68,5.38-1.56,1.01-2.29,2.71-2.23,4.58l.31,9.36,1.29,16.76c.21,2.74.56,5.33.5,8.04-.13,5.94-5.37,5.6-6.44,10.71-.34-.36-.24-.65-.31-.91-.85.87-.16,1.77-.1,2.56.16,1.87.17,3.67.08,5.65-8.48,1.85-17.75,2.17-26.25.71-.75-2.91,1.16-5.5,1.65-8.62.58.39,1.07.81,1.73,1.07,1.49-.69-.25.39,3.38-.35.71-.15,1.07-.44,1.04-1.18-.05-1.39-4.27-1.05-2.97-.97l-2.38-.16c3.33-2.41,1.24-1.06,2.4-3.49,1.26-2.64.65-5.61.75-8.45l.13-3.95c.04-1.13.48-2.32-.07-3.44-1.56-3.13.39-3.46-.71-6.21-1.16-2.93.45-2.17-.76-6.63-.4-1.5-.42-7.51-1.04-10.06-1.42-.14-1.08,3.87-1.49,6.29-.19,1.09.69,2.49.36,3.46-.64,1.85-.16,3.08.2,4.81.72,3.38.57,6.96.93,10.43l.6,5.81c.19,1.88-.57,3.97-.69,5.82-.1,1.62-1.39,2.15-2.14,3.22-1.5,2.16-1.79,4.81-2.79,7.06-.73,1.64-.94,3.21-.89,4.97.06,1.95,1.13,3.03,3.04,3.21,4.16.4,8.24.94,12.46.55,2.02-.19,3.96-.46,6-.33,2.4.14,4.57-.38,6.86-.81,6.9-1.3-.64-8.91,6.17-13.58,1.59-1.09,3.1-2.67,3.49-4.62.65-3.24-.28-11.03-.79-14.54-.3-2.03-.68-4-.47-6.08.2-2-.13-3.85-.21-5.84l-.46-10.97c-.11-2.56,4.24-3.63,6.85-5.03,1.55-.83,2.94-1.69,4.57-2.39l8.38-3.62c1.94-.84,3.71-1.82,5.78-2.3,2.05-.48,3.75-1.4,5.61-2.3,3.25-1.56,6.3-3.01,9.44-5.1-1.52,3.36-3.29,9.08-3.78,12.38-.25,1.65-.94,3.06-1.78,4.45-2.1,3.46,6.59,7.2,7.14,9.45Z"/>
      <path d="M98.29,202.93c-.47-.81-1.95-.17-2.63.11-1.61.68-3.22.91-4.74,1.7l-4.37,2.27-2.16,1.45c-.3.2-.28.62-.15.78.96,1.16,5.13-1.36,7.11-1.78,2-.42,3.6-1.59,5.44-2.49.7-.35,2.07-1.09,1.51-2.05Z"/>
      <path d="M101.04,202.41c.58.3,1.15.15,1.64-.41,2.77-3.12,3.36-1.04,6.41-3.91,1.71-1.61,3.9-1.17,4.14-2.69.06-.35-.24-.71-.57-1.02-1.26-1.2-2.42,1.16-4.53,1.75-1.54.43-2.73,1.05-3.81,2.24-.94,1.04-2.58,1.22-3.53,2.09-.56.51-.21,1.7.25,1.94Z"/>
      <path d="M75.03,213.2c-.91.98-1.27,2.83-.26,3.61.8-.67.76-1.63,1.42-2.27,2.24-2.2,5.04-2.66,6.25-4.17,1.32-1.64-4.35-.47-7.41,2.83Z"/>
      <path d="M74.4,224.6c1.37-1.53,1.86-4.56.35-5.98-2.29-.74-1.9,5.83-.35,5.98Z"/>
      <path d="M85.27,270.68c.53-.34.63-1.34.24-1.97-.26-.42-1-.89-1.65-.6-.7.32-1.05.73-.98,1.51.08.8,1.88,1.38,2.38,1.06Z"/>
      <path d="M86.35,268.77c-.46.52-.31,1.64-.08,2.2.26-.17.3-.41.43-.5.16.1,1.74.33,1.77.52.15-.65.48-1.61.04-2.17-.58-.74-1.54-.76-2.16-.05Z"/>
      <path d="M91.71,270.25c.07.54.16.85.65.91.33.04.75-.04.94-.65.17-.56.11-1.47-.29-1.84-.78-.14-1.42.71-1.31,1.57Z"/>
      <path d="M81.11,268.27c-.55.12-.63,1.06-.26,1.44.34.35.99.74,1.5.3.34-.29.34-1.09.11-1.38-.21-.27-.87-.46-1.35-.35Z"/>
      <path d="M79.8,270.41c.81-.9.71-1.86.24-2.62-1.02.67-1.15,1.92-.24,2.62Z"/>
      <path d="M94.38,271.31c.65-.93.61-1.85.15-2.67-.68.73-.78,1.87-.15,2.67Z"/>
      <path d="M89.58,271.05c.7-.9.6-1.89.1-2.64-.51.81-.74,1.79-.1,2.64Z"/>
      <path d="M95.88,271.27c.57-.81.5-1.58.2-2.38-.63.58-.59,1.51-.2,2.38Z"/>
      <path d="M90.77,271.15c.45-1.04.21-1.81.13-2.58-.46.85-.66,1.71-.13,2.58Z"/>
      <path d="M149.01,270.15c.72-1,1.58.73,4.47-.94.08.29.18.75.61.98.7-.57.84-1.78.31-2.44-.43-.09-.76.59-.85,1.1-.14-.5-.55-.82-.88-1.17,1.01-.5,2.54-.61,2.93-1.77,1.1-3.26.79-6.82.12-10.17-.2-.99-.22-2.02-1.1-2.71-.81,1.12-.44,2.35-.46,3.56-.03,1.86-.25,6.85-1.14,8.22-.85,1.32-2.79,1.11-4.1.88-3.77-.66-3.46,2.98-4.64,5.28-.9,1.74-1.04,3.44-.86,5.37.18,1.99-.81,6,2.09,5.77,2.41-.2,4.82-.47,7.34-.99-.41-1.66-5.86-.51-7.15-1.18-1.16-3.98.96-3.51.82-8-.03-1.07.35-2.01.82-2.9l1.68,1.12Z"/>
      <path d="M173.33,252.53c-.92.45-.72,2.15-.75,3.09-.07,2.46-.75,4.77-.61,7.19.12,2.18-.02,4.23.21,6.24-.24-.05-.27-.46-.52-.38-.11.99-.51,1.79.12,2.37.32-.6.04-1.28.51-1.54.24,1.33-.1,2.65.68,2.74,1.6.18,1.14-6.77,1.61-9.08.54-2.65.23-5.29.2-8.03,0-.93-.35-2.55-1.44-2.6Z"/>
      <path d="M172.96,274.52c-.81-.09-.83,3.69-1.04,4.42-2.43.76-4.73-.34-7.71.86-.28.11-.48.44-.39.62.27.54,6.27.65,7.35.64,1.08,0,2.28-.4,2.53-1.53.28-1.25.17-4.91-.74-5.01Z"/>
      <path d="M158.05,279.44c-1.51.26-3.2.12-4.41,1.49,2.4,1.45,5.71,1.36,8-.27-.87-1.57-2.29-1.44-3.59-1.21Z"/>
      <path d="M159.42,270.53c.75-.2.71-1.37.49-1.84-.32-.7-1.14-.98-1.74-.76-.72.27-1.26.98-.82,1.85.25.49,1.41.93,2.07.75Z"/>
      <path d="M161.11,268.25c-1.17.53-.6,2.3-.57,2.33.09.1.27-.28.39-.25.68.15,1.25.32,1.93.39.06-.67.39-1.63,0-2.07-.64-.72-1.3-.6-1.76-.39Z"/>
      <path d="M166.06,270.03c.04.35.01.71.27.83.19.09.67.29.96-.01.74-.77.44-1.9-.06-2.49-.88.37-1.26.83-1.17,1.68Z"/>
      <path d="M155.5,268.08c-.65.05-.71.95-.34,1.44.25.34.89.72,1.44.34.39-.27.4-.94.25-1.3-.16-.38-.8-.53-1.36-.48Z"/>
      <path d="M168.65,271.15c.62-.82.66-1.71.24-2.69-.83.65-.7,1.84-.24,2.69Z"/>
      <path d="M163.98,268.24c-.43.74-.74,1.64-.12,2.62.68-.8.65-1.89.12-2.62Z"/>
      <path d="M170.19,271.06c.5-.76.64-1.67.11-2.4-.45.79-.48,1.59-.11,2.4Z"/>
      <path d="M165.06,270.81c.64-.96.33-1.78.21-2.53-.63.82-.4,1.75-.21,2.53Z"/>
      <rect x="250.36" y="266.66" width=".48" height="2.22"/>
      <path d="M254.55,268.82c.21-1.05.23-1.73,0-2.46-.57.81-.53,1.92,0,2.46Z"/>
      <path d="M247.24,264.9c.49-.97.22-1.71.16-2.59-.31.81-.71,1.66-.16,2.59Z"/>
      <path d="M71.35,37.39c-.77-.32-1.35-.96-2.34-.77.65.69,1.47.89,2.34.77Z"/>
      <path d="M127.15,57.54c.66-.75.66-1.63.46-2.34-.29.82-.68,1.46-.46,2.34Z"/>
      <path d="M166.18,34.55c0-3.64-2.95-6.58-6.58-6.58s-6.58,2.94-6.58,6.58,2.95,6.58,6.58,6.58,6.58-2.95,6.58-6.58ZM159.09,32.53c.44.11.82.4.84.74.04.59-.41.86-1.01.82-.62-.03-1.01-.22-.93-.81.07-.45.52-.89,1.1-.75ZM155.6,34.5c.65,1.37,1.74,2.1,3.05,2.16,1.39.07,2.58-.76,3.1-1.8.73-1.47.28-2.83-.69-4.11,1.37.34,2.38,1.43,2.81,2.71.44,1.32,0,2.65-.84,3.63-.81.94-1.97,1.49-3.53,1.4-2.26-.13-4.17-1.62-3.9-3.99Z"/>
      <path d="M85.58,49.88c.03.38-.08.87.14,1.1.23.25.52.37.91.42l10.92,1.59,11.21,1.7c.23.37.27,1.36-.05,1.63-.8.35-1.69.02-2.52.15.22,3.68,2.72,4.66,5.75,6.33.99.55,1.09,1.48,1.71,2.22.52.63,1.6.85,1.3,2.17,3.04,1.94-.16.69,2.86,3,1.16.89,2.06,2.25,3.71,2.44.37.04.42-.82.21-1.11l-1.29-1.79c-.62-.85-.71-1.49-1.44-2.12l-1.61-1.39c-.51-.44-1.2-4.18-6.73-7.13l4.84-.05c2.18-.02,4.61.06,6.6-.48.35-.32.31-1.84-.17-1.86l-10.72-.28,1.38-9.65c1.19,1.28,2.47,2.19,3.47,3.51.28.37.25.98.79,1.04.94.09,1.51-.79,1.54-1.96.01-.65-.74-.56-1.13-1-1.4-1.58-2.67-3.18-4.19-4.68.62-3.27-2.5-.31-3.55-2.99l2.22-5.83,1.68-4.27c.5-1.27,1.45-2.17,2.68-2.61,2.8-1.01,5.79-1.46,7.42,1.63,2.74,5.2.84,7.98,2.89,8,2.04.02.3-6.73-.34-8.31-1.12-2.76-3.5-4.6-6.51-4.5-3.41.11-7.19,1.33-8.52,4.84l-4.77,12.53c1.82,1.05,4.81,1.93,3.77,4.24-.61.31-2.07.08-2.61-.34-.51-.39-.61-.15-1-.2-.89-.1-1.81-.17-2.79-.21-1.77-.07-4.86-1.3-4.85.55,0,.45.36.92.92,1.05,1.68.38,3.31.91,4.99,1.1,1.76.19,3.37.44,5.05.74-.27,1.18-.13,2.11-.65,3.18-2.94-.81-5.71-.97-8.58-1.35l-9.99-1.32c-1.36-.18-2.65-.04-3.92-.43.25-.42.28-.9-.05-1.28l-1.35-1.51c-.28-.32-.64-.4-.98-.25-1.16.51-.08,3.14,1.38,3.74Z"/>
      <path d="M78.99,33.62c-1.46-.46-.11,4.08-.12,3.8.06,1.18.18,1.42.82,2.22,1.08,1.36,1.76,5.88,4.08,6.23.9.13.53-.9.64-1.26.33-1.04-1.64-4.05-1.49-3.51-.22-.8-.65-1.63-.97-2.31-.37-.79-.21-1.38-.97-2.12-.74-.74-.76-2.65-1.99-3.04Z"/>
      <path d="M97.45,47.16c.67-.21,1.44-.71,1.03-1.7-.25-.62-1.33-1.12-1.97-1.02-.82.12-.9,1.28-.64,1.92.23.58.99.98,1.58.8Z"/>
      <path d="M95.1,46.32c.47-.47.29-1.44.3-2.05-.05.59-1.98-.08-2.31-.38-.25.78-.42,1.5-.28,2.22.68.63,1.59.9,2.29.21Z"/>
      <path d="M87.09,63.19c-.33.19-1.06.74-.69,1.17.32.38.38.85.61,1.15.3.4,1.57.32,1.84-.17.3-.57.12-1.37-.13-1.8-.37-.64-1.14-.63-1.62-.34Z"/>
      <path d="M117.53,51.91c0,.13.32-.02.41.09l1.15,1.4c.4-.48,1.24-1.01,1.27-1.66.04-.77-.59-1.23-1.21-1.29-.72-.07-1.61,1.22-1.62,1.46Z"/>
      <path d="M89.83,44.31c0-.65-.24-.83-.63-.88-.33-.04-.7.05-.89.45-.32.69-.24,1.46.15,2.1.83-.12,1.38-.66,1.37-1.67Z"/>
      <path d="M123.01,55.36c.33-.34.82-1.39.52-1.7-.58-.52-1.38.2-1.66.73-.27.52-.36.84-.03,1.11.36.29.73.31,1.17-.14Z"/>
      <path d="M127.01,30.32c.71-.09.66-2.07-.03-2.09-.65-.02-.69,2.17.03,2.09Z"/>
      <path d="M87.21,43.08c-.53.86-.84,1.82-.25,2.68.76-.92.83-1.87.25-2.68Z"/>
      <path d="M121.4,52c-.82.35-1.69.99-1.57,2.02,1.02-.4,1.39-1.11,1.57-2.02Z"/>
      <path d="M124.67,54.14c-.83.56-1.37,1.47-1.07,2.33.9-.65,1.22-1.44,1.07-2.33Z"/>
      <path d="M92,43.77c-.69.81-.72,1.77-.31,2.66.62-.83.89-1.8.31-2.66Z"/>
      <path d="M85.75,43.1c-.59.7-.74,1.56-.33,2.34.64-.8.58-1.56.33-2.34Z"/>
      <path d="M125.7,54.77c-.59.63-.87,1.31-.78,2.18.74-.64,1.04-1.4.78-2.18Z"/>
      <rect x="89.71" y="44.65" width="2" height=".5" transform="translate(34.84 129.3) rotate(-82.83)"/>
      <path d="M122.02,52.78c-.59.41-1.19.86-1.24,1.69.8-.39,1.06-.98,1.24-1.69Z"/>
      <path d="M121.94,32.52c0-2.12-1.71-3.84-3.84-3.84s-3.83,1.72-3.83,3.84,1.71,3.84,3.83,3.84,3.84-1.72,3.84-3.84ZM119.44,33.33c-.64.72-2.4.52-2.65-.41-.14-.51.01-1.12.57-1.55.7-.53,1.74-.23,2.28.6.33.5.09,1.04-.2,1.36Z"/>
      <path d="M15.24,16.35c4.51,0,8.17-3.66,8.17-8.17S19.75,0,15.24,0,7.06,3.66,7.06,8.18s3.66,8.17,8.18,8.17ZM15.24,2.41c3.18,0,5.76,2.58,5.76,5.77s-2.58,5.76-5.76,5.76-5.77-2.58-5.77-5.76,2.58-5.77,5.77-5.77Z"/>
      <path d="M8.77,87.62c0,4.51,3.66,8.18,8.18,8.18s8.17-3.67,8.17-8.18-3.66-8.18-8.17-8.18-8.18,3.66-8.18,8.18ZM16.94,81.86c3.19,0,5.77,2.58,5.77,5.76s-2.58,5.76-5.77,5.76-5.76-2.58-5.76-5.76,2.58-5.76,5.76-5.76Z"/>
      <path d="M25.11,112.78c2.04,0,3.69-1.65,3.69-3.68s-1.65-3.69-3.69-3.69-3.68,1.65-3.68,3.69,1.65,3.68,3.68,3.68ZM24.59,108.12c.8-.24,1.57-.1,1.69.73.09.63-.22,1.47-1.17,1.51-.73.04-1.34-.29-1.46-.82-.14-.63.26-1.23.94-1.42Z"/>
      <path d="M20,31.13c0-2.03-1.65-3.68-3.68-3.68s-3.68,1.65-3.68,3.68,1.65,3.68,3.68,3.68,3.68-1.65,3.68-3.68Z"/>
      <path d="M19.39,105.68c0-3.38-2.74-6.12-6.12-6.12s-6.12,2.74-6.12,6.12,2.74,6.12,6.12,6.12,6.12-2.74,6.12-6.12ZM9.58,107.17c-.54-1.21-.19-2.52.55-3.53.64-.86,1.8-1.32,3.06-1.46,1.56-.16,2.89.78,3.38,1.95.67,1.6.33,3.27-1.04,4.43-1.92,1.61-4.95.82-5.95-1.39Z"/>
      <path d="M12.24,24.2c0-3.38-2.74-6.12-6.12-6.12S0,20.82,0,24.2s2.74,6.12,6.12,6.12,6.12-2.74,6.12-6.12ZM8.67,26.8c-1.49,1.5-3.68,1.44-5.22.06-.83-.75-1.36-1.64-1.31-2.72.05-1.01.53-2.06,1.54-2.77,1.38-.98,3.66-.94,5.03.32,1.63,1.51,1.23,3.84-.04,5.11Z"/>
      <path d="M43.18,162.59c-.38-.59,0-1.33-.21-1.9-.4-1.12-.36-2.22-.56-3.37l-.94-5.26c-2.38.41-1.59-.75-2.68-.66-.46.04-1.05.05-1.27.6-.23.59.24.98.57,1.32.34.36.82.33,1.36.21l.48,5.58c.17,1.96.81,3.76.93,5.85,3.24.17,5.38-.05,8.81,1.01-3.05,1.55-6.35,2.95-9.91,3.75-2.12.48-4.25-.04-6.36-.22-1.59-.14-3.13.01-4.58-.66.9-.67,1.89-.77,2.75-1.27,1.65-.95,3.35-1.5,5.32-1.92.03-1.86-1.21-8.06-1.15-9.27.02-.41.52-.74.32-1.2-.13-.31-.36-.57-.79-.82-.4-.23-.2-1.12-.57-1.28-.63-.26-1.29.1-1.94.21l1.47,10.42c-1.77.55-10.15,3.89-9.68,5.81.08.35.53.87,1.08,1.06,6.21,2.11,13.03,2.17,19.31.09,3.1-1.03,5.87-2.46,8.54-4.17.4-.26.58-.93.57-1.25-.07-1.92-9.19-2.72-10.85-2.69Z"/>
      <path d="M29.9,154.46c-.48-1.3-1.35-2.24-1.84-3.37l2.51,2.07c.62-.51.97-.88,1.42-1.55l-4.55-4.75c-1.4-1.46-3.02-2.53-4.49-3.96-.68-.66-1.43-1.42-2.36-1.65-1.43-.36-2.76-.81-4.36-.85,2.31,2.71,4.61,5.05,6.67,7.81l1.55,2.08c1.29,1.72,2.17,3.64,3.79,5.19.48.46,1.89-.34,1.64-1.01Z"/>
      <path d="M30.24,134.57c-.62-1.06-1.59-.3-2.29-.47-.87-.21-1.35-.45-2.31-.19-1.07.29-2.77-.56-3.69.34-.87.85,2.93,2.25,3.48,1.6.57,1.16,1.37.65,2.22.56,2.83-.28,3.99,1.14,7.17-.34.38-.18.32-.71.18-.99-.25-.49-2.46-.65-3.54-1.12-.41-.03-.75.38-1.23.61Z"/>
      <path d="M14.26,138.7c-.79.14-1,.9-1.51,1.23-1.31.85-2.7,2.75-2.28,3.46.75,1.27,4.33-.48,4.9-3.98.1-.6-.69-.79-1.1-.71Z"/>
      <path d="M20.09,135.46c.57.08,1.4-.66,1.44-1.23.06-.81-.64-1.2-1.19-1.24-1.28-.1-.97,1.26-3.29,2.64-.86.51-2.27,1.68-1.47,2.7.62.79,1.64-.5,2.11-.89.8-.65,1.59-1.16,1.09-2.48.77-.18.87.44,1.3.5Z"/>
      <path d="M15.38,148.38l-1.22-2.31c-.33-.64-1.21-1.09-1.76-1.5-.57-.43-1.95.33-2.2,1.21,1.55.07,1.51,1.06,2.06,1.9.4.6,1.06,1.28,1.43,2.05.43.33,1.86-.86,1.68-1.34Z"/>
      <path d="M21.43,155.46c-.8-.04-1.01-.37-1.39-.78-.39-.42-1.11.11-1.38.4-.4.43-.08,1,.22,1.55.43.77,1.39,1.65,2.3,1.07.68-.43.59-1.59.25-2.24Z"/>
      <path d="M35.7,135.01c-.44.2-.18,1.13.22,1.3,1.12.5,2.14.42,3.19-.06.25-.51.32-1.77-.4-1.91-.97-.19-2.13.27-3.01.67Z"/>
      <path d="M47.06,155.95c.69-.76-.09-1.86-.65-2.03-.75-.23-2-.1-2.03.94-.03,1.14,1.9,1.96,2.69,1.09Z"/>
      <path d="M22.01,158.89c-.33.34-.62,1.04-.15,1.47.44.4,1.11.1,1.41-.21.32-.32.87-.95.44-1.53-.47-.62-1.33-.12-1.7.26Z"/>
      <path d="M17.19,150.25c-.33-.58-1.33-.2-1.73.12-.29.24-.67.8-.31,1.32.34.5,1.14.31,1.5-.04.28-.27.87-.82.54-1.4Z"/>
      <path d="M25.14,161.92c.17.38.9.48,1.09.04.36-.84.02-1.67-.76-2.08-.52.57-.64,1.35-.33,2.04Z"/>
      <path d="M18.58,152.4c-.42-.59-2.26.7-1.67,1.3.49.5,2.01-.65,1.67-1.3Z"/>
      <path d="M30.1,157.66c-.73.33.16,2.09.93,2.03.43-.74-.25-2.28-.93-2.03Z"/>
      <path d="M29.09,160.56c.59-.68-.31-1.97-1-2.03-.47.75.29,2.34,1,2.03Z"/>
      <path d="M43.68,138.59c.74-.36.9-1.06,1.02-1.9.17-1.23-1.63.92-1.02,1.9Z"/>
      <path d="M46.21,136.92c-.97.24-1.24,1.35-1.01,2.23.74-.57,1.22-1.28,1.01-2.23Z"/>
      <path d="M12.83,130.22c.29,1.07,2.96,3.92,2.96,3.93.27.03.44-.18.82-.18-.13.32-.45.46-.3.78.7-.32,1.32-.82,1.59-1.5-.5.04-.61.46-1.07.42l.76-.94c-.73-.54-1.02-1.35-1.51-2.08-1.28-1.93-2.46-3.82-3.15-6.21,11.1,2.7,19.38,2.81,30.21-1.09,3.31-1.19,6.2-2.66,9.27-4.59.56.27-.7,6.86-.8,7.26-.67,2.49-3.81,9.3-5.18,11.37-.32.47.69.92.76,1.24l.29,1.35c1.2-.12.81-1.35,1.2-2.01,3.88-6.56,7.05-12.92,6.23-20.72-.11-1.06-.5-1.73-1.52-2.09-3.14-1.11-6.32-1.63-9.69-2.13-11.08-1.63-23.12,1.68-32.39,7.94-2.26,1.52-.98,2.33-.47,5.51.21,1.29,1.6,2.35,1.99,3.74ZM32.69,123.81c-.28.06-11.38.27-12.33-.55,3.67-.59,7.31-.78,10.92-1.77,2.13-.58,4.25-.31,6.43-.6,2.51-.32,4.86-1.03,7.48-1.02-4.02,1.67-8.15,3.01-12.5,3.94ZM19.09,119.42c3.31-1.65,6.82-2.58,10.37-3.61,1.78-.52,3.49-.89,5.4-.71,1.93.19,3.8.04,5.73.11,3.1.11,6,.74,8.97,1.33-2.46.56-4.63.73-7.18,1.1l-19.52,2.79-7.49.95c1.32-.52,2.41-1.31,3.72-1.96Z"/>
    </g>
  </g>
</svg>