<?xml version="1.0" encoding="UTF-8"?>
<svg id="Layer_2" data-name="Layer 2" xmlns="http://www.w3.org/2000/svg" viewBox="0 0 50.11 56.46">
  <defs>
    <style>
      .cls-1 {
        fill: #FE4C36;
      }
    </style>
  </defs>
  <g id="Layer_1-2" data-name="Layer 1">
    <path class="cls-1" d="M26.53,56.46c-.9,0-1.8-.06-2.67-.17-2.01-.27-3.79-.82-5.29-1.64L0,44.53,24.26,0l17.94,9.77c2.63,1.43,5.1,4.43,6.6,8.01,1.51,3.6,1.72,7.03.56,9.16l-1.5,2.76c-.7,1.29-1.84,2.41-3.38,3.33-1.35.81-3.02,1.48-4.97,1.98l-1.27,2.33c.96,2.06,1.6,4.14,1.85,6.01.31,2.3.05,4.24-.78,5.76l-1.5,2.76c-1.17,2.15-4.25,3.78-8.25,4.37-1,.15-2.02.22-3.04.22ZM.98,44.24l17.93,9.77c2.06,1.12,4.78,1.72,7.62,1.72.97,0,1.95-.07,2.93-.21,1.8-.26,3.46-.76,4.8-1.44,1.38-.7,2.39-1.58,2.92-2.55l1.5-2.76c.76-1.39.99-3.18.7-5.32-.25-1.85-.9-3.91-1.87-5.96l-.08-.17,1.6-2.93.15-.04c1.94-.49,3.6-1.14,4.93-1.94,1.43-.86,2.47-1.89,3.11-3.06l1.5-2.76c.53-.97.74-2.29.62-3.81-.12-1.47-.54-3.1-1.22-4.72-1.44-3.43-3.79-6.29-6.28-7.65L24.55.98.98,44.24ZM27.87,48.65c-1.48,0-2.92-.28-3.82-.78l-14.11-7.69,6.16-11.3,14.11,7.69c1.09.6,2.35,1.99,3.2,3.54.44.81.75,1.62.88,2.34.15.85.07,1.58-.24,2.16l-.32-.17.32.17-1.13,2.07c-.31.58-.88,1.04-1.69,1.38-.68.29-1.53.48-2.45.55-.3.02-.61.04-.91.04ZM10.92,39.9l13.48,7.34c.96.52,2.7.79,4.33.66,1.8-.15,3.1-.71,3.56-1.56l1.13-2.07c.46-.84.23-2.23-.64-3.8-.78-1.42-1.95-2.72-2.92-3.25l-13.48-7.34-5.46,10.02ZM36.12,29.59c-1.46,0-2.85-.27-3.74-.76l-12.55-6.84,6.16-11.3,12.55,6.84c1.1.6,2.36,1.97,3.22,3.51.45.8.76,1.6.89,2.32.16.85.08,1.57-.24,2.15l-1.13,2.07c-.31.58-.88,1.05-1.69,1.39-.68.29-1.53.49-2.46.57-.34.03-.68.04-1.02.04ZM20.82,21.71l11.91,6.49c.96.52,2.7.77,4.34.62,1.79-.16,3.12-.75,3.58-1.59l1.13-2.07c.46-.84.22-2.21-.65-3.77-.78-1.4-1.96-2.69-2.93-3.22l-11.91-6.49-5.46,10.02Z"/>
  </g>
</svg>